<svg xmlns="http://www.w3.org/2000/svg" viewBox="0 0 800 800" style="enable-background:new 0 0 800 800" xml:space="preserve">
    <path d="M395.5 40.6c-22.7 2.4-42.3 6.9-60.3 14-73.1 28.5-124.6 95-133.6 172.5-4.1 35.2.7 63.7 17.8 105 .6 1.3-1.2 1.8-11 3.3-24.5 3.6-52 14.8-72.4 29.3-30.2 21.7-53.6 55.4-63.5 91.6-5.2 19.1-5.5 24.3-5.5 90.8 0 69.3 0 69.4 7.7 84.2 5.3 10.3 18.2 23 28.3 27.9 15 7.2 15.4 7.3 63.5 7.3 38.2 0 43.7-.2 49.5-1.8 19.6-5.4 34.9-17.7 43.5-35.2 6.6-13.3 6.8-14.9 7.3-57.7l.4-38.8h31.4l2.7 9.7c3.3 11.6 10 26 16.2 34.9 2.5 3.6 4.5 6.9 4.5 7.3 0 .4-4.5 4.7-10 9.5-12.3 10.7-15.3 15.7-15.4 25.7-.1 5.4.4 7.6 2.9 12.5 2.6 5.1 4.4 6.8 12.2 12.4 5.1 3.6 9.2 6.7 9.2 7s-3.5 3.1-7.9 6.2c-12.2 8.8-16.8 19-14 30.8 2.3 9.7 3.9 11 50.8 42.2 24 16 46 30.1 48.7 31.4 11.3 5.2 24.7 5.2 36 0 6.6-3 87.7-56.5 92.3-60.9 5.8-5.5 7.7-10.1 7.7-19.2 0-11.8-3.5-17.2-16.8-26.4-2.6-1.7-4.7-3.5-4.7-4 0-.4 3.6-3.3 8-6.5 9-6.5 12.3-10.3 14.6-17.1 2.1-5.9 1.4-14.6-1.4-20.1-1.9-3.7-7.8-9.8-18.5-19.1l-4.8-4.1 5.6-8.6c7-10.7 11.9-21.3 15.4-33.6l2.7-9.5h131.9l.5 21.5c.5 20.1.7 21.8 2.8 25.8 3.6 6.7 9.8 12.9 16.1 15.9 4.8 2.4 6.8 2.8 14.1 2.8s9.3-.4 14.1-2.8c6.3-3 12.5-9.2 16.1-15.9l2.3-4.3v-286l-2.7-5.2c-3.5-6.6-8.5-11.6-15.1-15-4.6-2.5-6.3-2.8-14.7-2.8-8.4 0-10.1.3-14.7 2.8-6.6 3.4-11.6 8.4-15.1 15-2.7 5.1-2.7 5.5-3 26.4l-.3 21.3h-54l1.5-2.8c2.1-4.1 8.5-21.7 11.2-30.7 8.7-28.9 9.7-60.7 2.8-92.5C613.3 136.9 563 78.7 495.7 53.6c-24.6-9.2-44-12.6-74.2-13.1-12.1-.2-23.8-.1-26 .1zM432.2 74c24.6 1.6 45.4 6.9 66.6 17 52.8 25.2 90.4 76 99.2 134 4.8 32.3.7 57.5-15.7 95.2l-5.6 12.8h-23.2l-8.7-17.8c-4.9-10-10.6-20.2-13.2-23.4-8.8-11.1-23-20-36.6-23.2-3.7-.9-11.2-1.6-17.2-1.6H467v-67h35.3c38.8 0 41.3-.3 49.9-6 9.8-6.5 16-20.6 14-32-2.1-11.8-8.9-20.6-19.7-25.7l-6-2.8-104.4-.3c-115.8-.3-111.5-.5-121.7 6.2-9.5 6.3-15.2 18.5-14.1 30.2 1.1 11.9 7.6 21.3 18.5 26.6l6.7 3.3 37.2.3 37.3.3V267h-10.8c-19.1 0-34.5 5.7-47 17.4-8.4 7.9-10.6 11.3-20.7 31.6l-8.5 17h-56.1l-4.4-9.3c-14.6-31.1-20.7-59-18.5-85.2 4.8-59.2 36.2-109.9 87.2-140.4 22-13.2 51.6-22.4 77.3-24 17.4-1.1 17.6-1.1 33.7-.1zm23.7 302.7c-7.7 23.6-14.9 45.8-16 49.5l-2.1 6.8h-42.3l-11.2-34.9-11.3-34.9 7.1-14.6 7.1-14.6h82.5l-13.8 42.7zm51.2 4.4c6.3 6.2 16.4 12.6 24.4 15.5 2.8.9 5.1 1.9 5.3 2 .2.1-2 3.5-4.8 7.4-11.6 16.2-24.3 43.3-25.6 54.4l-.7 5.6H467v-6.8c0-5.9 1.6-11.8 13.5-48.7 7.5-23.1 13.8-42.6 14.1-43.4.3-.9 1.6.4 3.5 3.5 1.7 2.6 5.8 7.4 9 10.5zM356.5 422c8.4 26.1 9.5 30.3 9.5 36.7v7.3h-19c-21.4 0-19 .9-20.4-8-1.8-11-16.8-41.4-26.8-54.3l-3-3.7h12.5c13.7 0 23.8-2 32.4-6.3 2.6-1.4 4.9-2.2 5-1.9.2.4 4.6 14 9.8 30.2zm-88.4-4.8c11.5 17.5 23.6 39.4 24.9 45.3l.7 3.2-19.1.6c-21.8.6-26.8 1.6-39.1 8-10.6 5.5-22.5 17.2-27.8 27.4-7.2 13.8-7.7 17.7-7.7 60.5V600h-66.1l.3-58.8c.4-57.6.4-58.8 2.7-66.7 7.9-27.6 26-50.1 50.7-62.7 17.7-9 28.5-11.3 55.5-11.6l13.6-.2 11.4 17.2zM666 433v33H540v-2.3c0-4 12.2-26.6 24.5-45.4l12-18.3H666v33zM366.5 550v16.5l-7.6.3-7.5.3-4.3-5.8c-4.2-5.6-12.3-21.3-13.4-26.1l-.5-2.2 16.6.2 16.7.3V550zm66.5 0v17h-33v-34h33v17zm67-16.7c0 .2-.9 3-2 6.2-2.4 7.1-6.8 15.2-12.1 22.2l-4 5.3H467v-34h16.5c9.1 0 16.5.2 16.5.3zm-11.9 76.3c6 5.3 10.9 9.9 10.9 10.2 0 .4-9.9 7.6-22 16.1s-22 15.6-22 15.7c0 .1 9.2 6.9 20.5 15 11.2 8.2 20.5 15.2 20.5 15.6 0 .4-16.8 11.8-37.2 25.4-38.5 25.4-41.7 27.1-46.9 24.4-2.8-1.5-73-47.8-74.2-49-.8-.7 9-8.4 30.5-23.8 4.8-3.5 9-6.7 9.3-7.2.3-.5-9.1-7.7-21-16-11.8-8.3-21.7-15.5-22-15.9-.2-.5 4.6-5.2 10.7-10.5l11.2-9.6h120.8l10.9 9.6z" style="fill:#c9bc2d"/>
</svg>
