<svg version="1.1" id="Layer_1" xmlns="http://www.w3.org/2000/svg" x="0" y="0" viewBox="0 0 727 430.4" style="enable-background:new 0 0 727 430.4" xml:space="preserve">
       <g id="Group" transform="translate(-704 -217)">
       <path id="Vector" fill="#c9bc2d" d="M1272.5 470.8v-3.5c-.9-44.1-37.3-79.1-81.3-78.4-13.8 0-27.3 3.4-39.5 9.8-14.4-26.8-42.3-43.4-72.7-43.1-44.2-.8-80.7 34.3-81.5 78.5 0 4.2.4 8.4 1.1 12.5-3.2-.6-6.4-.9-9.6-.9-36.5 2.1-64.4 33.4-62.5 69.9-1.9 36.5 26 67.7 62.5 69.9h278c32.3.5 59-25.2 59.7-57.5-.5-30.2-24-55-54.2-57.2z"/>
       <path id="Vector-2" fill="#c9bc2d" d="M918.1 549.4c-11.6 8.7-25.7 13.5-40.2 13.5-39.5-1.1-70.7-34-69.6-73.6-.7-35.2 24-65.8 58.5-72.6-.2-2.9-.4-5.8-.4-8.7-1.4-52.2 39.8-95.7 92-97.2 16.9 0 33.4 5 47.6 14.2 19.4-28.6 51.6-45.9 86.2-46.2 53.9 1.2 98.9 41.7 105.8 95.2-2.3-.2-4.6-.2-6.9-.2-11.6 0-23.1 2.1-34 6.1-18.2-24.9-47.3-39.5-78.2-39.4-51.1-.5-93.4 39.4-96 90.4-42 5.8-72.7 42.6-70.9 84.9 0 11.5 2.1 22.9 6.3 33.6h-.2z"/>
    </g>
</svg>
