<svg xmlns="http://www.w3.org/2000/svg" viewBox="0 0 477.6 363" style="enable-background:new 0 0 477.6 363" xml:space="preserve">
    <path d="M402.3 114.2c0-9.7-4.1-19-11.2-25.6-7.3-6.9-17-10.7-27-10.6H214.4c-3.2 0-6.4-.9-9.1-2.6l-18.9-12c-6.3-4-13.7-6.1-21.2-6.1h-51.7c-10 0-19.7 3.8-27 10.6-7.1 6.6-11.1 15.9-11.2 25.6v31.1c0 1.4.6 2.7 1.6 3.7s2.4 1.5 3.9 1.5h316.1c1.4 0 2.8-.5 3.9-1.5 1-.9 1.6-2.3 1.6-3.7v-10.4zm-327 155.3c0 9.7 4.1 19 11.2 25.6 7.3 6.9 17 10.7 27 10.6h250.7c10 0 19.7-3.8 27-10.6 7.1-6.6 11.1-15.9 11.2-25.6V155.6c0-1.4-.6-2.7-1.6-3.7s-2.4-1.5-3.9-1.5H80.8c-1.4 0-2.8.5-3.9 1.5-1 .9-1.6 2.3-1.6 3.7v113.9z" style="fill:#c9bc2d"/>
</svg>
