<svg version="1.1" id="Layer_1" xmlns="http://www.w3.org/2000/svg" x="0" y="0" viewBox="0 0 69.5 74.8" style="enable-background:new 0 0 69.5 74.8" xml:space="preserve">
    <path fill="#938c34" d="M62.7 16.6v9.1c0 2.4-.8 4.8-2.4 6.6-1.5 1.7-3.7 2.8-6 2.8h-3.4c-1.4-.3-2.3-1.6-2-3 .2-1 1-1.8 2-2h3.3c1.1 0 2.1-.5 2.8-1.3.7-.9 1.1-2 1.1-3.1v-9.1c.1-2.3-1.7-4.2-3.9-4.3h-8.3c-2.3.1-4 2-3.9 4.3v13.6c0 1.3-1 2.4-2.3 2.5-.6 0-1.2-.3-1.6-.8-.4-.5-.6-1.1-.6-1.8V16.6c0-2.4.9-4.8 2.5-6.6 1.5-1.7 3.7-2.7 6-2.7h8.3c4.8.3 8.5 4.4 8.4 9.3z"/>
    <path fill="#c9bc2d" d="M23.6 7.3h-8.3c-4.9.3-8.7 4.4-8.5 9.3v9.1c-.2 4.9 3.6 9.1 8.5 9.3h8.3c2.3 0 4.5-1 6-2.7 1.6-1.8 2.5-4.2 2.5-6.6v-9.1c.1-4.9-3.6-9.1-8.5-9.3zm3.9 18.4c0 1.1-.4 2.2-1.1 3.1-.7.8-1.7 1.3-2.8 1.3h-8.3c-1.1 0-2.1-.4-2.9-1.3-.8-.9-1.2-2-1.1-3.1v-9.1c0-1.1.4-2.2 1.2-3.1.7-.8 1.8-1.2 2.8-1.2h8.3c2.3.1 4 2 3.9 4.3v9.1zM46 39.8h8.3c4.9.3 8.7 4.4 8.5 9.3v9.1c.2 4.9-3.6 9.1-8.5 9.3H46c-4.9-.3-8.7-4.4-8.5-9.3v-9.1c-.2-4.9 3.5-9 8.5-9.3zm11.1 21.5c.7-.8 1.2-1.9 1.1-3.1v-9.1c0-1.1-.4-2.2-1.1-3-.7-.8-1.7-1.3-2.8-1.3H46c-2.3.1-4 2-3.9 4.3v9.1c0 1.1.4 2.2 1.1 3.1.7.8 1.7 1.3 2.8 1.3h8.3c1-.1 2-.5 2.8-1.3z"/>
    <path fill="#938c34" d="M6.8 58.2v-9.1c0-2.4.9-4.8 2.5-6.6 1.5-1.7 3.7-2.7 6-2.7h3.4c.9-.1 1.8.4 2.2 1.2.5.8.5 1.8 0 2.7-.4.8-1.3 1.3-2.2 1.2h-3.4c-2.3.1-4 2-3.9 4.3v9c0 2.3 1.7 4.2 3.9 4.3h8.3c1.1 0 2.1-.5 2.8-1.3.8-.8 1.2-1.9 1.2-3.1V44.6c-.2-1 .2-2 1-2.6.8-.5 1.8-.5 2.6.1s1.1 1.7.9 2.6v13.5c.2 4.9-3.6 9.1-8.5 9.3h-8.3c-4.9-.3-8.7-4.4-8.5-9.3z"/>
</svg>
