<?xml version="1.0" encoding="UTF-8"?>
<!DOCTYPE svg PUBLIC "-//W3C//DTD SVG 1.1//EN" "http://www.w3.org/Graphics/SVG/1.1/DTD/svg11.dtd">
<svg version="1.1" xmlns="http://www.w3.org/2000/svg" xmlns:xlink="http://www.w3.org/1999/xlink" x="0" y="0" width="862" height="516" viewBox="0, 0, 862, 516">
  <g id="Layer_x0020_1">
    <g id="_1202569808">
      <path d="M753.456,301.952 C737.688,303.032 723.504,310.16 712.128,319.088 C706.656,323.408 706.224,323.912 701.688,328.376 C700.896,329.168 699.96,329.888 699.24,330.68 L694.704,335.792 C693.912,336.728 693.336,337.52 692.4,338.528 C670.224,365.672 656.328,407.792 664.752,443.144 C667.272,453.584 671.952,463.16 677.352,469.64 C680.16,473.024 683.616,476.408 687.432,479 C690.816,481.304 690.168,480.872 695.496,480.872 C698.664,480.872 701.832,480.728 705,480.368 C724.944,478.28 740.28,469.928 755.04,457.472 L757.704,455.096 C759.216,453.44 760.944,452.072 762.6,450.344 C774.336,437.888 782.76,425.216 789.024,408.08 C800.256,377.336 798.384,341.192 781.176,312.824 C779.88,310.736 778.728,308.936 777.432,306.992 C776.496,305.552 776.712,305.624 774.768,304.904 C768,302.384 761.088,301.376 753.6,301.88 z" fill="#DDD050"/>
      <path d="M568.992,431.12 C567.984,429.968 562.44,427.52 560.712,426.296 C559.2,425.216 555.6,421.04 554.304,419.528 C540.264,402.824 535.44,380.504 537.528,357.608 C538.896,342.848 542.208,328.52 548.112,315.128 C550.776,309.08 553.584,302.816 556.68,297.272 C562.872,286.256 567.264,279.128 575.184,269.48 L578.28,265.88 C581.952,261.704 587.352,256.52 591.96,252.92 C601.608,245.36 612.552,239.168 627.456,235.352 C634.872,233.48 643.368,232.688 651.432,232.76 C657.048,232.832 658.128,232.76 662.736,234.776 C665.832,236.144 668.928,237.512 672.024,238.88 L704.136,253.064 C704.856,253.352 705.792,253.784 706.44,254.144 C707.52,254.792 707.952,255.656 708.312,255.728 C711.264,255.512 715.656,254.864 718.464,255.224 C721.56,255.584 724.8,256.16 727.752,256.808 C739.632,259.184 749.784,262.352 760.512,267.536 C762.384,268.472 769.512,272.144 771.024,273.368 C771.744,274.016 772.176,275.024 772.464,275.96 L772.824,277.112 C775.2,278.408 778.008,279.488 780.168,281 C782.112,282.296 781.68,283.736 782.4,284.528 C782.616,284.744 785.856,286.04 786.432,286.256 C794.928,290.072 797.232,293.312 800.472,295.112 L809.04,242.912 C809.328,241.4 809.688,239.6 809.832,238.16 C810.408,230.816 806.808,225.848 801.048,224.624 C798.528,224.12 793.56,224.408 790.824,224.696 C787.512,225.056 783.408,224.624 780.096,225.056 C777.144,225.488 772.824,225.344 769.44,225.488 L764.184,225.704 C762.672,225.704 761.592,225.992 758.64,225.92 C753.384,225.92 742.8,226.928 737.544,226.856 L716.088,227.72 C712.848,228.152 708.744,227.72 705.36,228.08 C702.048,228.44 698.376,228.44 694.776,228.512 L689.52,228.728 C687.792,228.728 686.352,229.016 684.264,228.944 C682.32,228.944 681.096,229.232 679.008,229.16 C676.92,229.16 675.84,229.376 673.752,229.376 L641.928,230.672 C638.688,231.176 634.512,230.744 631.056,231.032 L591.168,232.688 C589.944,232.76 589.872,232.904 588.576,232.976 C585.12,233.048 581.088,233.048 577.992,233.408 C574.68,233.768 570.576,233.336 567.264,233.768 C564.312,234.2 559.992,234.056 556.608,234.2 C555.456,234.2 555.384,234.416 554.232,234.488 C553.296,234.488 552.288,234.488 551.352,234.488 C549.84,234.488 548.76,234.776 545.808,234.704 L535.368,235.352 C527.448,236.792 519.96,243.272 517.944,251.048 C517.152,253.928 516.576,256.952 515.856,260.048 L501.744,323.696 C500.376,329.816 499.152,335.72 497.712,341.768 L491.664,369.056 C491.016,372.152 490.368,375.176 489.648,378.056 L481.584,414.416 C480.36,419.96 478.776,426.584 484.896,431.192 C488.928,434.216 493.824,433.208 498.936,433.208 C501.024,433.208 502.176,432.92 504.192,432.992 C508.08,432.992 511.104,432.704 514.992,432.776 L525.792,432.272 C527.448,432.128 529.608,432.272 531.336,432.272 L536.592,432.056 C537.456,432.056 538.392,432.056 539.256,432.056 C540.552,432.056 540.696,431.84 541.848,431.768 C543.648,431.696 545.592,431.84 547.392,431.768 L552.648,431.552 C553.512,431.552 554.448,431.624 555.312,431.552 C556.392,431.48 556.608,431.336 557.976,431.336 C561.936,431.336 565.032,431.12 568.92,431.12 z" fill="#DDD113"/>
      <path d="M603.84,444.944 C603.336,442.928 601.968,440.192 601.248,438.104 C590.88,409.736 594.912,378.776 606.288,351.488 C608.16,346.952 610.464,343.208 612.552,339.032 C617.664,328.952 628.248,312.68 634.584,304.472 C636.096,302.528 637.248,301.088 638.688,299.288 C640.128,297.488 641.568,295.904 642.936,294.176 C647.328,288.704 656.688,280.136 662.232,275.816 C665.616,273.152 669.36,270.416 673.464,268.04 C677.568,265.664 681.312,263.648 686.064,261.704 C690.96,259.616 695.208,258.608 700.464,257.168 C698.088,255.872 684.84,250.184 681.24,248.672 C679.008,247.664 658.272,238.304 657.048,238.16 C651.864,237.512 642.216,238.016 637.32,238.736 C629.256,239.816 622.128,241.904 615.288,244.784 C605.424,248.96 597.576,254.504 590.016,261.272 C587.28,263.72 585.264,265.52 582.888,268.328 C581.808,269.624 580.656,270.632 579.576,272 C578.568,273.296 577.632,274.448 576.48,275.816 C566.472,287.984 557.472,305.624 551.208,320.384 C548.4,326.936 546.384,334.568 544.872,342.056 C539.688,367.112 540.408,389.576 553.944,410.816 C556.032,414.056 557.616,415.856 559.992,418.664 C563.736,422.984 563.016,422.048 567.984,424.856 L603.84,445.088 z" fill="#DDD113"/>
      <path d="M652.152,485.84 C651.576,484.832 650.208,483.68 649.344,482.816 C646.248,479.648 644.016,476.984 641.424,473.024 C634.584,462.44 630.336,452.792 627.168,440.048 C624.648,429.824 624.648,429.536 624.936,418.736 C625.584,393.176 631.2,364.664 643.512,342.848 C648.408,334.208 655.896,322.184 662.808,314.912 C663.312,314.336 663.6,313.904 664.104,313.328 C667.632,309.656 670.152,306.488 674.256,302.816 L687.072,291.872 C695.568,285.464 705.216,279.056 717.24,274.736 C723.288,272.576 729.48,270.992 736.392,270.344 C740.136,270.056 743.88,270.056 747.624,270.416 C751.152,270.776 754.752,271.784 757.992,272.072 C756.048,270.128 741.648,265.448 737.76,264.368 C731.424,262.568 720.912,259.976 714,260.336 C694.416,261.344 677.568,269.768 664.392,280.496 C659.568,284.384 657.408,286.472 653.448,290.432 C648.624,295.256 647.688,296.552 643.368,301.52 C635.664,310.304 626.448,324.704 620.688,334.784 C613.056,347.96 607.8,358.4 604.056,373.808 C597.72,400.304 598.872,425.288 611.544,449.408 C612.48,451.136 619.032,459.632 620.76,461.288 C623.424,463.88 624.072,465.176 627.6,468.344 C630.048,470.504 632.352,472.664 635.088,474.752 C638.688,477.56 643.296,480.944 647.4,483.32 C648.84,484.184 650.64,485.408 652.08,485.912 z" fill="#DDD113"/>
      <path d="M754.608,296.84 C761.16,296.552 767.856,297.416 773.616,299.288 C777,300.368 779.16,300.872 780.744,303.176 C781.896,304.76 781.752,304.904 783.48,305.912 C788.88,309.152 793.992,313.832 797.736,318.728 C816.168,343.208 815.448,378.056 806.376,406.568 C802.848,417.584 798.096,427.88 792.84,436.664 C786.072,447.896 783.768,449.912 776.496,458.768 C775.776,459.704 774.696,460.568 773.904,461.432 C757.128,479.216 728.112,497.432 696.864,487.352 C695.568,486.92 693.912,486.2 692.832,485.912 C691.176,485.48 689.664,485.984 688.008,485.192 C686.28,484.4 682.824,481.808 681.6,480.8 C674.256,474.68 668.136,466.904 663.456,455.24 C650.208,421.976 659.856,380.648 677.712,350.84 C680.592,346.088 683.544,341.984 686.568,337.88 C689.376,334.064 693.552,329.528 696.72,326.216 C711.192,310.88 732.288,297.848 754.608,296.84 z M755.976,286.04 C734.376,287.624 717.024,298.208 701.904,311.024 C701.328,311.528 700.896,312.032 700.32,312.536 C698.304,314.192 694.488,318.368 692.616,320.168 L686.928,326.504 C684.984,328.736 683.256,330.968 681.528,333.272 C655.032,368.336 639.696,423.2 657.048,464.888 C674.04,505.784 715.296,513.128 752.592,490.952 C757.92,487.784 762.528,484.544 766.848,480.944 C769.152,479 771.24,477.128 773.4,475.256 C777.936,471.368 787.656,459.776 790.536,455.96 C817.176,420.68 832.296,366.464 815.088,324.344 C806.448,303.248 786.936,283.736 756.048,286.04 z" fill="#DDD113"/>
      <path d="M806.736,301.304 L812.928,309.656 C822.144,323.048 824.592,339.752 825.384,341.12 L850.296,276.536 C851.16,274.376 851.88,272.288 852.816,270.128 C853.32,268.976 853.536,267.896 854.04,266.744 C858.864,255.44 864.408,236.504 853.752,227.216 C853.176,226.712 853.032,226.712 852.456,226.352 C847.488,222.968 841.512,221.816 835.32,221.744 L827.976,221.744 C827.184,221.744 826.464,221.816 825.816,221.888 C824.52,222.032 822.216,221.744 820.344,221.744 L819.912,221.744 C818.832,221.744 817.968,221.888 817.536,222.32 C816.96,222.824 817.248,223.184 817.176,224.12 L815.232,238.088 C814.872,240.752 814.584,243.128 814.224,246.008 C813.72,250.4 812.568,256.952 812.064,261.632 L810.912,269.624 C810.696,272.288 810.336,275.024 809.904,277.544 C809.04,282.512 808.464,288.632 807.816,293.456 C807.6,294.896 807.384,295.976 807.168,297.344 C806.952,298.64 807.096,300.368 806.664,301.304 z" fill="#DDD113"/>
      <path d="M669.864,492.536 L664.392,486.704 C662.664,484.616 661.152,482.744 659.496,480.296 C635.016,443.936 644.016,390.152 662.52,354.224 C679.728,320.744 711.048,287.912 748.992,281.792 C759.72,280.064 760.944,281.144 770.088,281.504 C767.352,280.568 765.552,279.416 761.16,278.12 C757.848,277.184 754.248,276.464 750.72,275.816 C726.024,271.64 700.176,286.112 683.184,301.376 C682.536,301.952 682.248,302.096 681.528,302.816 C680.952,303.392 680.376,303.824 679.728,304.4 L667.344,317.216 C659.352,326.072 652.296,336.656 646.752,347.24 C641.064,358.112 636.528,371.288 633.72,384.608 C632.208,391.736 631.128,399.152 630.552,406.64 C630.048,412.904 629.112,425.144 630.264,430.904 C633,444.8 637.536,457.544 644.016,467.84 C647.4,473.168 648.624,474.32 652.08,478.496 C652.512,479.072 653.016,479.648 653.52,480.152 C657.912,484.256 664.392,490.376 669.936,492.608 z" fill="#DDD113"/>
      <path d="M708.744,484.976 C729.192,488.216 750.648,475.4 761.088,466.472 C774.336,455.312 784.92,442.208 792.768,426.368 C800.976,409.736 807.312,391.16 807.6,369.416 C807.816,354.368 804.648,338.6 796.872,326.36 C795.504,324.272 792.84,320.528 791.112,318.656 C790.392,317.864 789.528,317.288 788.88,316.496 L793.992,328.232 C795.576,332.336 796.944,336.872 797.952,341.336 C804.72,370.352 799.608,401.312 786.288,426.224 C777.72,442.136 767.208,453.872 755.472,463.592 C744.384,472.736 727.824,482.6 708.672,485.048 z" fill="#DDD113"/>
    </g>
    <path d="M381.72,1.784 L380.064,2 C377.112,2.432 373.512,2.288 370.776,2.648 C369.264,2.864 367.752,2.648 366.24,2.864 C364.656,3.08 363,3.008 361.272,3.008 L359.544,3.224 C355.872,3.656 351.624,3.368 348.24,3.8 C346.368,4.088 344.496,3.8 342.552,4.088 C340.608,4.376 338.376,4.232 336.36,4.232 L334.992,4.448 L330.456,4.52 L327.576,4.664 L316.632,5.096 C314.4,5.096 313.392,5.384 311.304,5.384 C309.36,5.384 307.344,5.384 305.4,5.384 L304.464,5.6 L298.128,5.672 L294.672,5.816 C289.632,6.608 282.504,5.6 277.392,6.392 C274.584,6.824 271.56,6.248 268.68,6.536 C265.944,6.824 262.776,6.824 259.536,6.824 L255.864,7.04 C250.68,7.76 243.768,6.896 238.44,7.472 C235.848,7.76 232.536,7.472 229.872,7.76 C227.136,8.048 224.04,8.048 220.872,8.048 C220.224,8.408 219.576,8.264 218.568,8.264 L205.824,8.624 C201.648,8.624 195.456,9.488 193.512,9.488 L192.792,9.632 C190.992,9.92 189.336,10.64 187.68,10.64 L187.464,10.856 L184.152,11.864 L183.936,12.08 C183.144,12.368 183,12.512 182.208,12.872 C181.488,13.16 181.2,13.232 180.552,13.592 C179.328,14.24 178.536,14.96 177.24,15.464 L177.096,15.608 C174.216,18.344 175.224,16.616 171.552,20.864 C170.904,21.584 170.544,22.16 169.896,22.88 L169.752,23.024 C168.96,24.536 167.808,26.048 167.088,27.632 C166.368,29.432 165.36,30.944 164.856,32.96 L164.712,33.104 C164.424,34.688 163.848,35.912 163.416,37.712 L163.2,37.928 C163.2,39.656 162.48,40.952 162.192,42.752 L161.976,43.256 C161.976,45.344 161.256,47.648 160.896,49.736 C160.464,52.184 160.176,54.056 159.744,56.432 L159.6,56.936 L159.528,58.232 L159.312,58.448 C159.312,60.752 158.664,62.624 158.304,65 L158.088,65.432 C158.016,67.448 157.368,69.464 157.08,71.552 L156.864,72.056 C156.864,74.072 156.216,76.304 155.856,78.32 L155.712,79.04 L155.64,80.12 L155.424,80.552 C155.424,82.28 154.992,83.504 154.704,85.16 L154.56,85.664 L154.488,86.96 L154.272,87.248 C154.272,89.552 153.624,91.208 153.264,93.512 L153.048,94.016 C153.048,96.104 152.4,98.264 152.04,100.352 L151.896,100.784 C151.896,102.728 151.248,104.888 150.888,106.904 L150.744,107.408 L150.672,108.632 L150.456,108.92 C150.456,110.864 149.736,112.952 149.448,115.184 L149.232,115.4 C149.232,117.488 148.512,119.576 148.224,121.664 L148.008,122.096 L147.792,124.04 C148.584,125.12 164.28,136.424 168.024,139.88 L177.672,148.304 C178.536,148.952 179.328,149.6 180.12,150.32 L182.568,152.264 C188.184,156.512 191.928,161.048 193.296,168.752 L196.248,188.336 C196.68,191.576 197.04,190.64 203.016,195.176 C206.4,197.768 209.856,200.216 213.456,202.808 C220.512,207.848 227.208,213.032 234.336,218.072 C248.16,227.936 262.272,238.592 276.024,248.6 C282.936,253.64 290.064,258.68 296.904,263.864 C300.36,266.456 303.816,268.76 307.344,271.496 L317.784,279.128 C343.776,297.704 369.912,317.504 395.976,336.296 C397.848,337.664 399.504,338.744 401.304,340.184 C412.248,348.68 426.792,358.328 437.736,366.824 C439.536,368.192 441.336,369.344 443.064,370.712 L462.72,385.112 C463.512,385.688 463.368,385.76 464.376,385.976 L471.072,366.608 C471.648,365.384 471.216,366.032 472.008,365.744 L472.152,365.456 L472.296,365.312 C472.512,364.016 473.088,362.504 473.592,361.352 L473.736,361.208 C473.88,359.48 474.384,359.336 474.744,357.824 L474.96,357.608 C475.248,355.952 476.472,352.496 477.192,350.984 L477.336,350.768 L477.408,350.12 L477.624,349.904 C477.696,348.824 479.352,344.504 479.784,343.28 L480,342.992 C480.072,341.768 480.936,340.112 481.44,338.456 C481.872,336.944 482.448,335.504 482.952,334.064 L486.12,324.92 L486.264,324.776 C486.624,323.048 487.128,322.328 487.56,320.816 L487.704,320.672 C487.776,319.304 488.352,318.728 488.712,317.288 L488.856,317.144 C489.144,315.488 490.368,312.032 491.088,310.52 L491.232,310.304 L491.376,309.656 L491.592,309.44 C491.736,307.712 492.24,307.568 492.6,306.056 L492.816,305.84 C492.888,304.76 494.184,301.52 494.544,300.368 C494.832,299.432 495.12,298.568 495.408,297.704 C495.768,296.624 496.2,295.832 496.416,294.752 L496.632,294.536 C496.704,293.528 499.44,285.608 500.016,284.384 L500.16,284.24 C500.376,282.944 500.952,281.648 501.312,280.496 C501.744,279.2 502.32,277.976 502.68,276.68 L502.824,276.536 C503.04,275.384 503.4,274.52 503.832,273.44 L503.976,273.224 L504.12,272.576 L504.264,272.432 C504.696,270.2 505.704,268.112 506.424,265.88 C507.144,263.648 507.864,261.632 508.8,259.544 L508.944,259.328 L509.088,258.68 L509.232,258.536 C509.592,256.664 513.768,248.24 514.704,246.656 C516.216,244.064 517.728,241.256 519.6,238.808 C520.248,237.944 520.752,237.008 521.544,236.216 L521.688,236.072 C522.336,234.848 525.648,231.536 526.872,230.888 L527.016,230.744 C527.88,229.88 529.32,229.016 530.4,228.512 L530.544,228.368 C532.128,227.072 538.68,224.552 541.344,224.408 L541.848,224.264 C545.592,223.616 547.968,223.256 552.36,223.256 L556.104,223.112 C561.216,222.32 568.56,223.328 573.744,222.608 C576.48,222.176 579.648,222.68 582.384,222.392 C585.12,222.104 588.288,222.104 591.456,222.104 L594.552,221.888 C599.88,221.168 606.936,222.104 612.264,221.384 C614.856,221.024 618.384,221.456 621.12,221.096 C623.64,220.736 627.24,220.88 630.264,220.88 L632.784,220.664 L638.04,220.592 L642.576,220.448 L661.8,219.728 C664.104,219.728 666.408,219.728 668.712,219.728 L670.08,219.512 L676.416,219.44 L680.448,219.296 C685.272,218.504 692.328,219.512 697.224,218.72 C699.888,218.288 702.912,218.792 705.648,218.504 C708.312,218.288 711.048,218.216 714.072,218.216 L717.456,218 C722.352,217.28 729.048,218.216 733.944,217.496 C736.536,217.136 739.416,217.568 742.008,217.28 C744.6,216.992 747.48,216.992 750.504,216.992 L753.312,216.776 C758.352,216.128 764.832,216.992 769.8,216.272 C772.176,215.912 775.56,216.344 778.08,215.912 C780.672,215.48 783.768,215.768 786.576,215.768 C787.296,215.408 787.584,215.552 788.592,215.552 L794.064,215.48 L798.096,215.336 L810.264,214.904 C812.64,214.904 814.152,214.616 816.168,214.616 C818.4,214.616 820.632,214.616 822.792,214.616 L823.584,214.4 L830.136,214.328 L833.664,214.184 L845.832,213.752 L844.248,212.672 C843.528,212.312 842.952,212.024 842.304,211.664 L751.656,166.376 C746.4,163.712 741.216,161.192 735.888,158.456 L719.976,150.536 L719.76,150.32 C718.824,150.104 718.392,149.888 717.6,149.312 L717.384,149.168 C716.016,148.88 712.992,147.152 711.696,146.504 C709.824,145.568 708.096,144.704 706.152,143.768 C702.264,141.824 698.736,139.952 694.776,138.08 L694.56,137.936 L694.128,137.792 L693.912,137.576 C693.48,137.432 693.264,137.36 692.76,137.144 C692.112,136.856 692.544,136.928 691.752,136.568 L691.536,136.352 L691.104,136.208 L690.96,136.064 C689.736,135.776 690.456,135.848 689.376,135.344 L689.16,135.2 L688.728,135.056 L688.584,134.912 C686.928,134.624 681.6,131.672 679.872,130.736 C676.992,129.296 674.256,127.856 671.304,126.416 L671.16,126.272 C670.728,126.128 670.512,126.056 670.008,125.84 C669.432,125.552 669.648,125.624 669,125.264 L668.856,125.12 L661.296,121.448 L661.152,121.304 C659.64,121.016 656.544,119.216 654.96,118.424 L640.128,111.08 C635.808,109.28 623.784,103.016 618.96,100.568 L614.424,98.336 C613.488,97.904 613.56,98.12 612.768,97.472 L612.552,97.328 C610.824,96.968 604.56,93.512 602.472,92.504 C599.016,90.776 595.848,89.048 592.32,87.392 L592.104,87.248 L591.672,87.104 L591.528,86.96 C591.096,86.816 590.88,86.744 590.376,86.528 C589.728,86.24 590.16,86.312 589.368,85.952 L589.152,85.736 C588.72,85.592 588.504,85.52 588,85.304 C587.352,85.016 587.712,85.088 586.992,84.728 L586.776,84.584 L586.344,84.44 L586.2,84.296 C585.192,84.08 585.336,84.152 584.616,83.576 L584.4,83.432 L583.968,83.288 L583.824,83.144 C582.168,82.856 576.84,79.904 575.112,78.968 C572.232,77.528 569.496,76.088 566.544,74.648 L566.4,74.504 L564.168,73.496 L564.024,73.352 C563.088,72.992 562.368,72.56 561.504,72.2 C561.072,71.984 560.712,71.84 560.28,71.624 C559.416,71.264 559.704,71.264 558.84,70.832 L558.696,70.688 C558.192,70.544 558.048,70.472 557.544,70.256 C557.04,69.968 557.184,70.04 556.536,69.68 L556.392,69.536 L550.848,66.944 C549.912,66.512 549.696,66.512 548.832,65.864 L548.688,65.72 C546.888,65.36 516.072,49.664 509.736,46.496 L470.856,27.056 C462.432,22.808 453.072,17.984 444.576,14.096 L444.36,13.952 C443.352,13.736 442.992,13.448 442.128,13.088 C441.264,12.728 440.616,12.512 439.824,12.152 C438.312,11.432 436.728,11 435.072,10.208 L434.928,10.064 C433.848,9.848 433.056,9.56 432.12,9.2 C431.112,8.768 430.248,8.624 429.168,8.264 C427.368,7.688 425.208,6.896 423.192,6.392 L422.904,6.248 C421.392,6.248 419.808,5.6 418.44,5.24 L417.936,5.096 L417,4.952 L416.856,4.808 C415.488,4.808 415.128,4.592 413.904,4.376 C412.68,4.088 412.104,4.016 410.736,3.872 L410.304,3.656 C408.792,3.656 407.208,3.296 405.912,3.152 C404.4,2.936 403.104,2.936 401.52,2.72 L400.08,2.504 C396.624,2.504 394.32,2.216 390.864,2.216 C387.408,2.216 385.032,2.504 381.576,2.504 z" fill="#DDD113"/>
    <path d="M25.968,459.92 C24.528,453.512 28.344,447.968 33.024,446.816 C45.552,443.648 49.584,465.752 36.984,468.56 C33.816,469.28 31.152,468.128 29.568,466.472 C27.912,464.744 26.544,462.872 25.896,459.92 z M123.672,449.552 C122.52,454.232 117.984,459.776 111.792,457.4 C107.256,455.744 103.728,449.84 105.384,443.504 C106.536,438.824 110.928,433.568 117.048,435.872 C121.08,437.384 125.256,443.288 123.672,449.48 z M77.736,362.072 C77.448,360.56 78.312,358.112 78.672,356.456 C80.184,356.24 131.88,364.736 138.072,365.744 L301.512,391.808 C306.048,392.528 312.024,393.176 316.272,394.184 L315.12,398.864 C314.904,399.584 314.904,399.584 314.544,400.16 L77.664,362 z M34.752,319.808 C40.872,317.864 45.192,323.336 46.056,328.304 C47.136,334.64 43.896,340.256 39.216,341.624 C33.384,343.352 28.776,337.664 27.696,333.128 C26.256,326.648 30.144,321.248 34.752,319.88 z M111.288,310.16 C117.408,308.072 121.872,313.4 122.808,318.296 C124.104,324.704 120.864,330.392 116.04,331.688 C107.688,333.992 101.424,323.12 105.672,314.84 C106.968,312.392 108.408,311.168 111.216,310.16 z M128.496,419.384 L130.944,418.376 C131.952,420.176 133.608,420.608 133.608,423.56 C133.608,432.344 134.256,453.728 130.296,460.28 C125.832,467.696 115.536,467.192 106.392,468.344 L64.128,474.032 C54.912,475.328 45.48,476.984 36.264,477.848 C23.736,479.072 20.424,474.68 19.632,462.944 C18.912,452.792 19.416,441.272 19.416,430.976 C19.416,399.44 19.056,366.608 19.488,335.288 C19.632,327.368 20.712,315.632 27.984,311.744 C31.944,309.656 36.336,309.512 41.16,308.936 C45.912,308.36 50.664,307.712 55.416,307.208 C74.28,304.976 93.144,302.168 111.936,299.72 C123.24,298.208 130.512,296.408 132.6,308.72 C133.464,313.76 134.76,333.992 134.328,338.744 L131.52,339.608 C126.624,333.128 129.216,324.344 127.272,314.048 C124.968,302.24 119.856,303.464 108.624,304.976 C91.128,307.352 73.704,309.872 56.208,312.104 C49.584,312.968 35.616,313.904 30.36,315.92 C23.16,318.728 21.36,329.312 21.072,336.512 C20.712,346.16 21.072,356.456 21.072,366.104 L21.072,425.648 C21.072,435.656 19.848,459.056 23.592,467.768 C25.176,471.44 27.984,473.672 33.168,473.096 C41.88,472.16 50.808,470.648 59.52,469.496 C76.944,467.192 94.44,464.816 111.72,462.152 C117.408,461.288 118.992,461.36 122.52,458.12 C130.584,450.776 128.424,429.68 128.424,419.384 z M190.2,223.976 C196.032,228.224 199.416,231.104 204.744,235.208 C211.224,240.248 220.224,247.592 226.56,252.2 L241.32,263.504 C255.936,275.024 270.48,285.464 285.024,297.416 C294.024,304.832 305.04,312.248 314.4,319.88 C319.224,323.768 324.12,327.368 329.016,331.328 L343.704,342.344 L343.704,388.136 C340.176,387.632 336.144,386.408 332.544,385.616 C278.256,373.376 224.256,360.272 169.824,348.104 C165.72,347.168 150.816,344.072 147.936,343.064 C138.72,339.968 141.096,333.704 141.24,323.84 C141.384,316.208 141.312,305.48 140.304,297.992 C139.8,293.96 138.432,290.504 136.344,288.56 C134.76,287.048 130.8,284.24 127.488,284.096 C125.112,284.024 107.472,286.4 103.656,286.904 C93.576,288.2 80.976,289.568 70.968,291.152 C59.592,292.952 44.544,294.608 32.808,296.192 C23.808,297.416 17.544,297.776 13.224,303.536 C9.048,309.008 9.192,317.936 8.904,325.928 C8.328,343.496 8.688,361.352 8.616,378.92 C8.616,396.776 8.616,414.632 8.688,432.488 C8.76,448.904 7.752,467.84 11.28,483.176 C13.44,492.536 17.832,493.76 27.984,492.392 L98.472,482.96 C106.392,481.88 114.168,480.872 122.088,479.792 C129.288,478.784 135.48,478.064 138.072,469.208 C139.872,463.232 140.808,440.48 140.952,432.272 C141.024,427.952 140.664,423.128 140.952,418.88 C172.704,421.472 214.392,428.672 244.776,437.24 C277.104,446.312 305.76,456.824 332.976,471.08 C336.432,472.88 340.176,475.184 342.048,477.416 C345.792,481.88 345.288,483.608 347.016,487.568 C349.824,494.12 356.016,499.016 363.36,501.68 C380.496,507.872 397.416,508.808 415.128,502.832 C433.992,496.424 440.688,486.776 440.472,467.192 C440.256,446.96 440.184,426.368 440.472,406.136 C441.696,406.568 443.928,408.368 444.936,409.16 L466.104,424.424 C467.616,425.504 468.984,426.44 470.424,427.52 C471.72,428.456 473.304,429.824 474.6,430.4 C473.808,424.568 472.512,424.064 472.368,415.064 C472.296,409.52 472.872,404.192 473.592,398.864 L474.168,395.12 C474.384,393.896 474.528,392.744 474.744,391.52 C475.752,385.04 477.624,374.312 477.264,368.264 C476.328,369.704 469.632,389.288 467.976,394.184 L467.256,395.552 L458.472,389.216 C441.336,377.048 423.84,363.584 406.632,351.272 C392.232,340.976 377.904,330.104 363.576,319.736 L311.88,281.936 C283.224,260.768 254.28,239.96 225.696,218.864 L195.6,196.832 C194.808,196.256 194.16,195.824 193.368,195.248 L191.856,194.096 C190.488,193.016 189.912,184.448 189.552,182.216 C188.904,178.256 188.4,174.44 187.824,170.48 C186.168,159.68 178.536,157.16 169.752,148.952 C166.224,145.64 149.304,132.032 147.432,131.528 C146.496,139.304 145.632,147.08 144.552,154.856 C143.256,164.432 141.816,180.632 147.288,189.128 C149.016,191.864 149.736,192.368 151.968,194.24 C152.616,194.744 152.976,195.32 153.552,195.896 C155.712,197.984 158.16,199.64 160.896,201.584 C163.272,203.312 166.152,205.112 168.24,206.912 C175.584,213.104 182.568,218.288 190.344,223.904 z" fill="#DDD113"/>
    <path d="M2.568,430.04 C2.856,429.68 2.856,429.752 2.424,429.752 L2.568,430.04 z" fill="#DDD113"/>
    <path d="M178.536,223.04 L178.32,222.896 z" fill="#DDD113"/>
    <path d="M198.696,238.16 L198.48,237.944 z" fill="#DDD113"/>
    <path d="M254.352,281.36 L254.208,281.216 z" fill="#DDD113"/>
    <path d="M192.144,431.84 L192,431.624 z" fill="#DDD113"/>
    <path d="M350.328,501.392 L350.112,501.248 z" fill="#DDD113"/>
    <path d="M389.784,512.984 L389.568,512.768 z" fill="#DDD113"/>
    <path d="M393.096,512.768 L392.88,512.984 z" fill="#DDD113"/>
  </g>
</svg>
