<svg version="1.1" id="Layer_1" xmlns="http://www.w3.org/2000/svg" x="0" y="0" viewBox="0 0 800 800" style="enable-background:new 0 0 800 800" xml:space="preserve">
    <path d="M354.3 105.2H70.9c-21.7 0-39.4 17.6-39.4 39.4v89.2c0 21.7 17.6 39.4 39.4 39.4h283.5c21.7 0 39.4-17.6 39.4-39.4v-89.2c-.1-21.8-17.7-39.4-39.5-39.4z" style="fill:#f7dc4d"/>
    <path fill="#938c34" d="M212.6 694.8c-21.7 0-39.4-17.6-39.4-39.4V240.8c0-21.7 17.6-39.4 39.4-39.4S252 219 252 240.8v414.7c0 21.7-17.7 39.3-39.4 39.3z"/>
    <path fill="#625e28" d="M773.8 350.3H471.3c-14.5 0-26.2-11.8-26.2-26.2 0-97.8 79.6-177.5 177.5-177.5 97.8 0 177.5 79.6 177.5 177.5-.1 14.4-11.9 26.2-26.3 26.2zm-273.4-52.5h244.4c-12.1-56.3-62.3-98.7-122.2-98.7-60 0-110.1 42.3-122.2 98.7z"/>
    <path fill="#938c34" d="M354.3 105.2H212.7v168h141.6c21.7 0 39.4-17.6 39.4-39.4v-89.2c0-21.8-17.6-39.4-39.4-39.4z"/>
    <path fill="#625e28" d="M212.6 201.4v493.4c21.7 0 39.4-17.6 39.4-39.4V240.8c0-21.8-17.7-39.4-39.4-39.4z"/>
    <path fill="#938c34" d="M793.2 306.7c-5-5.6-12.1-8.9-19.7-8.9h-302c-7.5 0-14.7 3.2-19.7 8.9-5 5.6-7.3 13.1-6.4 20.6l41.9 340.1c1.6 13.2 12.8 23 26.1 23h218.2c13.3 0 24.4-9.9 26.1-23l41.9-340.1c.9-7.5-1.4-15-6.4-20.6z"/>
    <path fill="#625e28" d="M793.2 306.7c-5-5.6-12.1-8.9-19.7-8.9H621v392.6h110.6c13.3 0 24.4-9.9 26.1-23l41.9-340.1c.9-7.5-1.4-15-6.4-20.6z"/>
    <path fill="#c9bc2d" d="M474.7 564.5h295.7l5.1-41.4H469.6zM762.5 628.2l5.1-41.4H477.5l5.1 41.4z"/>
    <path fill="#c9bc2d" d="M621 523.1v41.4h149.4l5.1-41.4zM621 586.8v41.4h141.5l5.1-41.4zM690.9 322.3H551.1c-13.6 0-24.6-11-24.6-24.6 0-13.6 11-24.6 24.6-24.6h139.8c13.6 0 24.6 11 24.6 24.6 0 13.6-11 24.6-24.6 24.6z"/>
    <path fill="#c9bc2d" d="M666.5 408.5c-12.5 0-22.7-10.2-22.7-22.7v-88h45.4v88c0 12.5-10.1 22.7-22.7 22.7zM607.4 359.2c-12.6 0-22.7-10.2-22.7-22.7v-47.4h45.4v47.4c0 12.5-10.2 22.7-22.7 22.7z"/>
    <path fill="#625e28" d="M39.4 201.4h346.4c21.7 0 39.4 17.6 39.4 39.4 0 21.7-17.6 39.4-39.4 39.4H39.4C17.6 280.1 0 262.5 0 240.8c0-21.8 17.6-39.4 39.4-39.4z"/>
    <path fill="#938c34" d="M39.4 280.1h173.1v-78.7H39.4C17.6 201.4 0 219 0 240.8s17.6 39.3 39.4 39.3z"/>
    <path fill="#c9bc2d" d="M247.1 639.2h-71.2c-6.5 0-11.7-5.2-11.7-11.7V528c0-6.5 5.2-11.7 11.7-11.7h71.2c6.5 0 11.7 5.2 11.7 11.7v99.5c0 6.4-5.2 11.7-11.7 11.7z"/>
    <path fill="#938c34" d="M247.1 516.3h-34.5v122.9h34.5c6.5 0 11.7-5.2 11.7-11.7V528c0-6.5-5.2-11.7-11.7-11.7z"/>
</svg>
