<svg version="1.1" id="Layer_1" xmlns="http://www.w3.org/2000/svg" x="0" y="0" viewBox="0 0 800 800" style="enable-background:new 0 0 800 800" xml:space="preserve">
    <style>
        .st1{fill:#fff}.st2{fill:#938c34}
    </style>
    <path d="M402.9 221.6c-128.3 0-232.3 23.1-232.3 51.6v.3c0 .7 0 1.3.1 2l62.4 425.7c.2 1.6.8 3.2 1.6 4.6 3.7 19.9 77.7 35.9 168.4 35.9 92.3 0 167.2-16.4 168.6-36.8.5-1.1.9-2.3 1.1-3.6l62.4-425.7c.1-.6.1-1.3.1-2v-.3c0-28.6-104.1-51.7-232.4-51.7z" style="fill:#c9bc2d"/>
    <path fill="#fff" d="M170.6 273.2c0 28.5 104 51.6 232.3 51.6s232.3-23.1 232.3-51.6-104-51.6-232.3-51.6-232.3 23.1-232.3 51.6z"/>
    <path fill="#938c34" d="M403.1 747.5c-44.2 0-86.2-3.8-118.1-10.6-34-7.3-52.8-17-55.9-29.1-.9-1.8-1.5-3.8-1.8-5.8l-62.4-425.7c-.1-.9-.2-1.7-.2-2.6v-.5c0-17.3 24.4-31.5 72.7-42.2 44.3-9.8 103.1-15.2 165.6-15.2s121.3 5.4 165.5 15.2c48.2 10.7 72.7 24.9 72.7 42.2v.5c0 .9-.1 1.7-.2 2.6L578.5 702c-.2 1.4-.6 2.9-1.1 4.2-1.8 12.6-20.2 22.8-54.7 30.3-32.1 7.1-74.6 11-119.6 11zM176.4 273.1v.5c0 .4 0 .7.1 1.1l62.4 425.7c.1.9.4 1.7.9 2.5l.5.9.2 1c.8 4.1 11.5 13.1 47 20.7 31.2 6.7 72.2 10.3 115.6 10.3 44.2 0 85.8-3.8 117.1-10.6 44.4-9.7 45.5-20.3 45.6-20.7l.1-1.1.5-1c.3-.6.5-1.3.6-2l62.4-425.7c0-.4.1-.7.1-1.1v-.5c-.2-7.7-16.9-20.3-63.5-30.6-43.4-9.6-101.3-15-163-15s-119.5 5.3-163 15c-46.7 10.3-63.4 22.9-63.6 30.6z"/>
    <path fill="#fff" d="M290 226.1c0 13.6 49.8 24.7 111.3 24.7s111.3-11.1 111.3-24.7-49.8-24.7-111.3-24.7c-61.4-.1-111.3 11-111.3 24.7z"/>
    <path fill="#938c34" d="M401.3 256.6c-30.1 0-58.5-2.6-80-7.4-25-5.6-37.2-13.1-37.2-23.2s12.2-17.6 37.2-23.2c21.4-4.8 49.8-7.4 80-7.4s58.5 2.6 80 7.4c25 5.6 37.2 13.1 37.2 23.2s-12.2 17.6-37.2 23.2c-21.4 4.8-49.8 7.4-80 7.4zm-105.4-30.5s2.4 6.2 29.6 12.1c20.4 4.4 47.4 6.8 75.8 6.8s55.4-2.4 75.8-6.8c26.1-5.6 29.4-11.6 29.6-12.1-.2-.5-3.4-6.5-29.6-12.1-20.4-4.4-47.4-6.8-75.8-6.8s-55.4 2.4-75.8 6.8c-27.2 5.8-29.6 12-29.6 12.1z"/>
    <path fill="#fff" d="m423.4 212.2 1.4-114.7c0-1.6-.7-3.1-1.4-3.1h-44c-.8 0-1.5 1.4-1.4 3.1l1.4 114.7c0 .4 0 .7.1 1.1v.6c0 5.6 9.9 10.1 22.1 10.1s22.1-4.5 22.1-10.1c0-.3 0-.6-.1-.8-.2-.3-.2-.6-.2-.9z"/>
    <path fill="#938c34" d="M401.3 229.8c-16.2 0-27.9-6.7-27.9-15.9v-1.6L372 97.6c-.1-2.6.8-5.1 2.5-7 1.3-1.3 3-2 4.8-2h44c1.8 0 3.5.7 4.8 2 1.7 1.9 2.6 4.4 2.5 7l-1.4 114.7v1.6c.1 9.2-11.7 15.9-27.9 15.9zm-16.1-16.1c1 1.4 6.7 4.4 16.2 4.4s15.1-3 16.2-4.4l-.1-.4.1-.8v-.4l1.3-111.8h-35l1.3 111.8v.5l.1.7-.1.4z"/>
    <path fill="#fff" d="M487.8 69.4c-15.9-7-46.9-11.7-82.5-11.7-51.8 0-93.8 10-93.8 22.3s42 22.3 93.8 22.3c33.9 0 63.6-4.3 80.1-10.7h43.1v13h32.8V77.2c0-4.3-3.5-7.8-7.8-7.8h-65.7z"/>
    <path fill="#938c34" d="M561.3 110.4h-32.8c-3.2 0-5.9-2.6-5.9-5.9v-7.2h-36.2c-18 6.7-48.2 10.7-81.2 10.7-37 0-99.6-5.9-99.6-28.2 0-9.3 10.5-16.4 32-21.5 18.1-4.3 42.2-6.7 67.7-6.7 34.5 0 66.3 4.5 83.7 11.7h64.5c7.6 0 13.7 6.1 13.7 13.7v27.4c0 3.4-2.6 6-5.9 6zm-27-11.7h21.1V77.2c0-1.1-.9-2-2-2h-65.7c-.8 0-1.6-.2-2.3-.5-15.7-6.9-46.4-11.2-80.2-11.2-23.6 0-46 2.1-63.1 6-18.8 4.2-24.3 9-24.8 10.5.5 1.5 6 6.2 24.8 10.5 17.1 3.8 39.5 6 63.1 6 31.8 0 61.7-4 78-10.3.7-.3 1.4-.4 2.1-.4h43.1c3.2 0 5.9 2.6 5.9 5.9v7zm96.2 186.9c-1.1 0-2-.9-2-1.9 0-.5.2-1 .5-1.3 2.8-3 4.2-6.1 4.2-9.1 0-1.1.9-2 2-2s2 .9 2 2c0 4-1.8 8-5.3 11.7-.3.3-.8.6-1.4.6zm-216.4 41.1c-1.1 0-2-.9-2-2s.9-2 2-2c7.4-.1 14.9-.2 22.3-.5h.1c1.1 0 2 .8 2 1.9 0 1.1-.8 2-1.9 2-7.5.4-15 .5-22.5.6zm-22.4 0c-7.5-.1-15-.2-22.4-.5-1.1 0-1.9-.9-1.9-2s.9-1.9 2-1.9c7.4.2 14.8.4 22.3.5 1.1 0 2 .9 2 2s-.8 1.9-2 1.9zm67-1.5c-1.1 0-2-.8-2-1.9s.8-2 1.9-2c7.5-.4 15-.9 22.2-1.5 1.1-.1 2 .7 2.1 1.8s-.7 2-1.8 2.1c-7.3.6-14.8 1.1-22.3 1.5h-.1zm-111.6 0h-.1c-7.5-.4-15-.9-22.3-1.5-1.1-.1-1.9-1-1.8-2.1s1-1.9 2.1-1.8c7.3.6 14.8 1.1 22.2 1.5 1.1 0 1.9.9 1.9 2s-1 2-2 1.9zm156.2-3.5c-1.1.1-2-.8-2.1-1.9-.1-1.1.8-2 1.9-2.1 7.5-.8 15-1.7 22.1-2.7 1.1-.1 2.1.6 2.2 1.7.1 1.1-.6 2.1-1.7 2.2-7.4 1-14.8 1.9-22.2 2.7l-.2.1zm-200.8 0h-.2c-7.6-.8-15.1-1.7-22.2-2.7-1.1-.1-1.8-1.1-1.7-2.2s1.1-1.8 2.2-1.7c7.1 1 14.6 1.9 22.1 2.7 1.1.1 1.9 1 1.9 2.1s-1 1.8-2.1 1.8zm245-6.1c-1.1.1-2-.7-2.1-1.8-.1-1.1.7-2 1.8-2.1 7.7-1.4 15-2.8 21.8-4.4 1.1-.2 2.1.4 2.3 1.5.2 1.1-.4 2.1-1.5 2.3-6.9 1.6-14.3 3.1-22 4.4-.1 0-.2 0-.3.1zm-289.2 0h-.3c-7.7-1.4-15.1-2.9-22-4.4-1.1-.2-1.8-1.2-1.6-2.3s1.2-1.8 2.3-1.6h.2c6.8 1.6 14.2 3 21.8 4.4 1.1.1 1.9 1 1.8 2.1-.2 1.1-1.1 1.9-2.2 1.8zM591 305.5c-1.1 0-2-.9-2-2 0-.9.6-1.6 1.4-1.9 7.1-2.1 14-4.7 20.7-7.6 1-.5 2.1-.1 2.6.9s.1 2.1-.9 2.6h-.1c-6.9 3.1-14 5.7-21.2 7.8-.1.1-.3.2-.5.2zm-376.2 0c-.2 0-.4 0-.6-.1-7.2-2.1-14.3-4.8-21.2-7.8-1-.4-1.4-1.6-1-2.6.4-1 1.6-1.4 2.6-1 6.7 3 13.6 5.6 20.7 7.7 1 .3 1.6 1.4 1.3 2.4-.2.8-1 1.4-1.8 1.4zm-39.5-19.9c-.5 0-1.1-.2-1.4-.6-3.5-3.8-5.3-7.7-5.3-11.7 0-1.1.9-2 2-2s2 .9 2 2c0 3 1.4 6.1 4.2 9.1.7.8.7 2-.1 2.8-.4.2-.9.4-1.4.4z"/>
    <path fill="#fff" d="M565.1 164.5c0 10.9-8.8 19.6-19.7 19.6-10.8 0-19.6-8.8-19.6-19.6 0-10.9 19.6-32.9 19.6-32.9s19.7 22 19.7 32.9z"/>
    <path fill="#938c34" d="M545.5 190c-14.1 0-25.5-11.4-25.5-25.5 0-12.5 17.6-32.9 21.1-36.8 2.2-2.4 5.9-2.6 8.3-.5l.5.5c3.5 4 21.1 24.4 21.1 36.8-.1 14-11.5 25.4-25.5 25.5zm0-49.4c-6.6 8.3-13.8 19.1-13.8 23.8.2 7.6 6.5 13.6 14.1 13.5 7.4-.2 13.3-6.1 13.5-13.5 0-4.4-6.6-14.8-13.8-23.8z"/>
</svg>
