<?xml version="1.0" encoding="utf-8"?>
<!-- Generator: Adobe Illustrator 22.0.0, SVG Export Plug-In . SVG Version: 6.00 Build 0)  -->
<svg version="1.1" id="Layer_1" xmlns="http://www.w3.org/2000/svg" xmlns:xlink="http://www.w3.org/1999/xlink" x="0px" y="0px"
	 viewBox="0 0 800 800" style="enable-background:new 0 0 800 800;" xml:space="preserve">
<path fill="#938c34" d="M725,25H75c-27.6,0-50,22.4-50,50v650c0,27.6,22.4,50,50,50h650c27.6,0,50-22.4,50-50V75
	C775,47.4,752.6,25,725,25z"/>
<path fill="#C9BC2D" d="M685.6,25H71.9C46.1,25.2,25.2,46.1,25,71.9v611.9c-0.1,25.9,20.9,46.8,46.8,46.9H685
	c25.9,0.1,46.8-20.9,46.9-46.8v-612c0.6-25.3-19.6-46.3-44.9-46.9H685.6z"/>
<path fill="none" d="M270.6,159.4h1.2v-1.2L270.6,159.4z"/>
<path fill="none" d="M324.4,158.1v1.2h1.2L324.4,158.1z"/>
<path fill="#FAFAFA" d="M322.5,235.6V160H360c8.4,0.1,15.3-6.7,15.4-15.1c0.1-3.6-1.2-7.1-3.5-9.9l-48.1-57.5l-2.5-2.5
	c-2.5-2.8-5.8-4.8-9.4-5.6c-9.6-3.7-20.4-0.3-26.2,8.1c0,0.6-0.6,0.6-1.3,0.6l-47.5,57.5c-5.4,6.5-4.5,16.1,2,21.5
	c2.8,2.3,6.3,3.6,9.9,3.5h36.9v75.6c0,10.4,8.4,18.8,18.8,18.8C314.5,254.2,322.4,245.8,322.5,235.6L322.5,235.6z"/>
<path fill="#FAFAFA" d="M523.8,86.2l0.6,75.6h37.5c8.4-0.1,15.3,6.7,15.4,15.1c0,0,0,0,0,0c0.1,3.6-1.2,7.1-3.5,9.9l-48.1,57.5
	c-0.6,1.2-1.9,1.9-2.5,2.5c-2.5,2.6-5.4,4.7-8.8,6.2c-9.6,3.4-20.2,0.1-26.2-8.1c-0.6,0-0.6-0.6-1.2-1.2l-47.5-57.5
	c-5.4-6.5-4.5-16.1,2-21.5c2.8-2.3,6.3-3.6,9.9-3.5h36.9l-0.6-75.6c0-10.4,8.4-18.8,18.8-18.8C516.1,68,523.6,76.3,523.8,86.2z"/>
<path fill="#FAFAFA" d="M646.2,287.5H165c-27.1-0.2-49.2,21.6-49.4,48.7c0,0,0,0.1,0,0.1v323.1c-0.2,27.1,21.6,49.2,48.7,49.4
	c0,0,0.1,0,0.1,0h481.9c27.1,0.2,49.2-21.6,49.4-48.8V336.9C695.3,309.7,673.4,287.8,646.2,287.5z M640,653.8H172.5V344.4H640V653.8
	z"/>
<path fill="#FAFAFA" d="M279.4,407.5c10.8-6.7,14.4-20.8,8.1-31.9c-5.4-10.5-18.4-14.6-28.9-9.1c-0.6,0.3-1.2,0.6-1.7,1l11.2,20
	l-11.2-20c-10.8,6.7-14.4,20.8-8.1,31.9C255,410.1,268.7,413.7,279.4,407.5z"/>
<path fill="#FAFAFA" d="M230.6,530h5.6v94.4c-0.1,7.8,6.1,14.2,13.9,14.4h0.5c7.9-0.1,14.2-6.5,14.4-14.4V530h5v94.4
	c-0.1,7.8,6.1,14.2,13.9,14.4h0.5c7.9-0.1,14.2-6.5,14.4-14.4V530h5c7.6-0.1,13.7-6.2,13.8-13.7V430c-0.1-7.6-6.2-13.7-13.8-13.8
	h-73.1c-7.6,0.1-13.7,6.2-13.8,13.8v86.3C216.9,523.8,223.1,529.9,230.6,530z"/>
<path fill="#FAFAFA" d="M416.2,406.9c10.8-6.7,14.4-20.8,8.1-31.9c-5.4-10.5-18.4-14.6-28.9-9.1c-0.6,0.3-1.2,0.6-1.7,1l11.3,20
	l-11.2-20c-10.8,6.7-14.4,20.8-8.1,31.9c5.4,10.5,18.4,14.6,28.9,9.1C415.1,407.6,415.7,407.3,416.2,406.9z"/>
<path fill="#FAFAFA" d="M368.1,529.4h5v94.4c-0.1,7.8,6.1,14.2,13.9,14.4h0.5c7.9-0.1,14.2-6.5,14.4-14.4v-94.4h5v94.4
	c0.1,7.9,6.5,14.2,14.4,14.4c7.8-0.3,14.1-6.6,14.4-14.4v-94.4h6.2c7.6-0.1,13.7-6.2,13.8-13.8V430c-0.1-7.6-6.2-13.7-13.8-13.8
	h-73.8c-7.6,0.1-13.7,6.2-13.8,13.8v86.3C354.5,523.6,360.6,529.5,368.1,529.4C368.1,529.4,368.1,529.4,368.1,529.4L368.1,529.4z"/>
<path fill="#FAFAFA" d="M553.8,406.9c10.8-6.7,14.4-20.8,8.1-31.9c-5.4-10.5-18.4-14.6-28.9-9.1c-0.6,0.3-1.2,0.6-1.7,1l11.2,20
	l-11.2-20c-10.8,6.7-14.4,20.8-8.1,31.9c5.3,10.4,18,14.6,28.4,9.4C552.3,407.8,553.1,407.3,553.8,406.9L553.8,406.9z"/>
<path fill="#FAFAFA" d="M504.4,529.4h5.6v93.8c0,7.9,6.4,14.4,14.4,14.4c7.9,0,14.4-6.4,14.4-14.4v-93.8h5v94.4
	c0,7.9,6.4,14.4,14.4,14.4c7.9,0,14.4-6.4,14.4-14.4v-94.4h5.6c7.6-0.1,13.7-6.2,13.8-13.8V430c-0.1-7.6-6.2-13.7-13.8-13.8h-73.8
	c-7.6,0.1-13.7,6.2-13.7,13.8v86.3C490.8,523.6,496.9,529.5,504.4,529.4C504.3,529.4,504.3,529.4,504.4,529.4L504.4,529.4z"/>
</svg>
