<svg version="1.1" id="_x32_" xmlns="http://www.w3.org/2000/svg" x="0" y="0" viewBox="0 0 800 800" style="enable-background:new 0 0 800 800" xml:space="preserve">
    <path d="M254.6 751c-1.1-1.1-2.2-2.1-3.3-2.9-1.1-.8-2.7-1.8-4.8-2.8 8.8-4.9 13.2-12.5 13.2-22.7 0-4.5-.8-8.5-2.3-12.2-1.6-3.6-3.8-6.7-6.6-9.2-2.9-2.5-6.3-4.5-10.5-5.9-4.1-1.4-8.6-2.1-13.6-2.1h-42.9V800h44.7c5 0 9.5-.7 13.6-2.2 4.1-1.4 7.5-3.5 10.4-6.2 2.8-2.7 5-5.8 6.5-9.6s2.3-8 2.3-12.7c0-3.8-.5-7.2-1.6-10.2-1.1-2.9-2.8-5.6-5.1-8.1zm-49.9-39.2h20.4c4.3 0 7.7 1.1 10.1 3.3 2.4 2.2 3.7 5.2 3.7 9s-1.2 6.8-3.7 9-5.8 3.3-10.1 3.3h-20.4v-24.6zm31.9 66.1c-2.5 2.3-5.9 3.5-10.2 3.5h-21.8v-26.2h21.8c4.3 0 7.7 1.1 10.2 3.4s3.7 5.5 3.7 9.6-1.1 7.3-3.7 9.7zM324.7 693.2 285.8 800h21.8l6.5-18.9H352l6.3 18.9H380l-39-106.8h-16.3zm-4.8 70.3 13.5-38.8 13 38.8h-26.5zM469.1 758.6l-42.2-65.4h-18.6V800h20.8v-65.6l42.3 65.6H490V693.2h-20.9zM613.6 693.2h-25.4l-37.6 46.5v-46.5h-20.9V800h20.9v-32.1l13.8-16.5 27.4 48.6h24.4l-38-64.4z" fill="#938c34"/>
    <path d="M400 0 100 108.4v62.5h25v18.7h550v-18.7h25v-62.5zM675 558.3H125v50h-25v50h600v-50h-25z" fill="#c9bc2d"/>
    <path d="M537.5 508.3v25h100v-25H625V239.6h12.5v-25h-100v25H550v268.7zM350 508.3v25h100v-25h-12.5V239.6H450v-25H350v25h12.5v268.7zM162.5 508.3v25h100v-25H250V239.6h12.5v-25h-100v25H175v268.7z" fill="#938c34"/>
</svg>
