<svg version="1.1" id="svg2" xmlns="http://www.w3.org/2000/svg" x="0" y="0" viewBox="0 0 831.5 831.5" style="enable-background:new 0 0 831.5 831.5" xml:space="preserve">
    <path id="path30" fill="#fff" d="M542.3 667.6c-7.6 0-13.9-6.2-13.9-13.9 0-7.6 6.2-13.9 13.9-13.9.4 0 41.8-.2 67.7-14.8 21.5-12.1 20.6-42.7 20.6-43-.3-7.6 5.6-14.1 13.3-14.4h.6c7.4 0 13.5 5.7 13.8 13.2.1 1.9 1.8 47.8-34.7 68.4-32.3 18.2-79.4 18.4-81.3 18.4"/>
    <path id="path32" fill="#c9bc2d" d="M644.4 575.2c-3.7.2-6.4 3.1-6.3 6.5 0 .2 1.4 35.3-24.5 49.9-27.7 15.6-71 15.8-71.4 15.8-3.5 0-6.3 2.8-6.3 6.3s2.8 6.3 6.3 6.3c1.9 0 47-.2 77.6-17.4 32.6-18.4 30.8-60.9 30.8-61.3-.1-3.5-2.8-6.1-6.2-6.1zm-102.1 100c-11.8 0-21.5-9.6-21.5-21.5 0-11.8 9.6-21.5 21.5-21.5.4 0 39.9-.3 64-13.9 17.3-9.8 16.8-35.8 16.7-36.1-.4-11.8 8.8-21.8 20.6-22.2h.1c12.4 0 21.7 9 22.2 20.4.1 2.1 2.2 52.3-38.5 75.3-34.1 19.3-83.1 19.5-85.1 19.5"/>
    <path id="path34" fill="#fff" d="M698.1 567.5c0 12.8-10.4 23.2-23.2 23.2h-61c-12.8 0-23.2-10.4-23.2-23.2 0-12.8 10.4-23.2 23.2-23.2h61c12.8 0 23.2 10.4 23.2 23.2"/>
    <path id="path36" fill="#c9bc2d" d="M613.9 551.9c-8.6 0-15.6 7-15.6 15.6s7 15.6 15.6 15.6h61c8.6 0 15.6-7 15.6-15.6s-7-15.6-15.6-15.6h-61zm61 46.4h-61c-17 0-30.8-13.8-30.8-30.8s13.8-30.8 30.8-30.8h61c17 0 30.8 13.8 30.8 30.8s-13.8 30.8-30.8 30.8"/>
    <path id="path38" fill="#fff" d="m695.4 370.2 21.6 199-111-.9c-82.5 0-89.4-56.4-89.4-56.4V347.3l178.8 22.9"/>
    <path id="path40" fill="#c9bc2d" d="M524.2 355.9v155.9c.2 1.1 7.5 48.8 81.8 48.8l102.5.8-20-184.5-164.3-21zm193 220.8h-.3l-111-.9c-88.1 0-96.8-62.4-96.9-63.1V347.3c0-2.2.9-4.3 2.6-5.7 1.6-1.5 3.8-2.1 6-1.8l178.8 22.9c3.5.4 6.2 3.2 6.6 6.7l21.4 197.1c.3.8.5 1.8.5 2.7-.1 4.1-3.5 7.5-7.7 7.5"/>
    <path id="path42" fill="#fff" d="M763.6 367.2v161.9s2.3 40-54.5 40c0 0-11.8-1-10.4-41.3 1.5-40.4 0-174.6 0-174.6l64.9 14"/>
    <path id="path44" fill="#c9bc2d" d="M706.4 362.6c.3 31.4 1.1 131.7-.1 165.4-.9 24.3 3.3 31.6 4.7 33.4 17.1-.3 29.5-4.5 37.1-12.5 8.2-8.7 7.9-19.3 7.9-19.4V373.2l-49.6-10.6zm2.7 214.1h-.6c-5.7-.5-18.9-6.2-17.4-49.2 1.4-39.7 0-172.9 0-174.3 0-2.3 1-4.5 2.8-6 1.8-1.5 4.2-2 6.4-1.5l64.9 14c3.5.8 6 3.9 6 7.4V529c0 .2.8 16.7-12 30.3-10.8 11.6-27.7 17.4-50.1 17.4"/>
    <path id="path46" fill="#fff" d="M677.3 378.4h89.2v-49.1h-89.2v49.1"/>
    <path id="path48" fill="#c9bc2d" d="M684.9 370.8h74v-33.9h-74v33.9zm81.5 15.2h-89.2c-4.2 0-7.6-3.4-7.6-7.6v-49.1c0-4.2 3.4-7.6 7.6-7.6h89.2c4.2 0 7.6 3.4 7.6 7.6v49.1c0 4.2-3.3 7.6-7.6 7.6"/>
    <path id="path50" fill="#fff" d="M504.1 365.3 685 378.4v-49.1l-180.9-13.1v49.1"/>
    <path id="path52" fill="#c9bc2d" d="m511.7 358.2 165.6 12v-33.9l-165.6-12v33.9zM685 386h-.6l-180.8-13.1c-4-.3-7.1-3.6-7.1-7.6v-49.1c0-2.1.9-4.1 2.4-5.6 1.5-1.4 3.5-2.2 5.7-2l180.9 13.1c4 .3 7 3.6 7 7.6v49.1c0 2.1-.9 4.1-2.4 5.6-1.4 1.3-3.2 2-5.1 2"/>
    <path id="path54" fill="#fff" d="M739 439.1c0 4-3.2 7.2-7.2 7.2s-7.2-3.2-7.2-7.2v-24.6c0-4 3.2-7.2 7.2-7.2s7.2 3.2 7.2 7.2v24.6"/>
    <path id="path58" fill="#fff" d="M746.3 407.4c0 8.1-6.6 14.7-14.7 14.7s-14.7-6.6-14.7-14.7 6.6-14.7 14.7-14.7c8.2 0 14.7 6.5 14.7 14.7"/>
    <path id="path62" fill="#fff" d="M641.2 426.1c-13.3 70.3-59.8 121.2-103.8 113.6-44-7.6-69-70.7-55.7-141 13.3-70.3 59.8-121.2 103.8-113.6 44.1 7.5 69 70.7 55.7 141"/>
    <path id="path64" fill="#c9bc2d" d="M576.8 291.9c-37.6 0-76.1 47.5-87.6 108.2-7.9 41.6-1.8 83.3 15.9 108.8 9.1 13.1 20.7 21.1 33.6 23.3 40.1 6.9 82.9-42.8 95.1-107.5 7.9-41.6 1.8-83.3-15.9-108.8-9.1-13.1-20.7-21.1-33.6-23.4-2.5-.4-5-.6-7.5-.6zm-30.6 256.2c-3.4 0-6.8-.3-10.1-.9-17-2.9-32.1-13.2-43.5-29.7-20.2-29.1-27.1-74.1-18.4-120.3 13-68.7 57.1-120.5 102.5-120.5 3.4 0 6.8.3 10.1.9 17 2.9 32.1 13.2 43.5 29.7 20.2 29.1 27.1 74.1 18.3 120.3-12.9 68.6-57 120.5-102.4 120.5"/>
    <path id="path140" fill="#f6f3d7" d="M465.4 726.9c-14.4-2.2-30.7-3.5-47.9-3.5-17.3 0-33.5 1.3-47.9 3.5l-59 12.7v16.2S358.5 777 417.5 777s106.9-21.2 106.9-21.2v-16.2l-59-12.7"/>
    <path id="path142" fill="#c9bc2d" d="M318.2 750.6c13.1 5 52.9 18.7 99.3 18.7 46.6 0 86.3-13.7 99.3-18.7v-4.9l-53-11.4c-28.6-4.3-63.7-4.4-93.1.1l-52.5 11.3v4.9zm99.3 33.9c-60 0-108-21-110-21.9-2.7-1.2-4.5-3.9-4.5-6.9v-16.2c0-3.6 2.5-6.7 6-7.4l59-12.7c31.9-4.9 67.7-4.8 98.6-.1L526 732c3.5.8 6 3.8 6 7.4v16.2c0 3-1.8 5.7-4.5 6.9-2 1.1-50 22-110 22"/>
    <path id="path144" fill="#fff" d="M553.8 543.9s5.6 85.2-14.8 117.1c-20.3 31.9-33.4 54.2-33.4 54.2v24.3s-21.2 16.2-88.1 16.2c-66.9 0-88.1-16.2-88.1-16.2v-24.3s-13.1-22.3-33.5-54.2c-20.3-31.9-14.8-117.1-14.8-117.1h272.7"/>
    <path id="path146" fill="#c9bc2d" d="M337 735.2c7.7 3.9 31 13 80.5 13 49.4 0 72.7-9.1 80.5-13v-19.9c0-1.4.4-2.7 1-3.9.1-.2 13.4-22.8 33.6-54.5 14.2-22.3 15.1-78.3 14-105.5H288.4c-1.1 27.2-.2 83.2 14 105.5 20.2 31.7 33.5 54.2 33.6 54.5.7 1.2 1 2.5 1 3.9v19.9zm80.5 28.1c-68.7 0-91.8-17.1-92.7-17.8-1.9-1.4-3-3.7-3-6v-22.2c-3.5-5.9-15.5-25.9-32.3-52.2-21.4-33.6-16.2-118.1-16-121.7.3-4 3.6-7.1 7.6-7.1h272.6c4 0 7.3 3.1 7.6 7.1.2 3.6 5.5 88.1-15.9 121.7-16.8 26.4-28.8 46.4-32.3 52.2v22.2c0 2.4-1.1 4.6-3 6-.9.8-23.9 17.8-92.6 17.8"/>
    <path id="path148" fill="#fff" d="M573.1 543.9c0 13.1-10.6 23.8-23.8 23.8H285.7c-13.1 0-23.8-10.7-23.8-23.8 0-13.2 10.6-23.8 23.8-23.8h263.6c13.1 0 23.8 10.6 23.8 23.8"/>
    <path id="path150" fill="#c9bc2d" d="M285.7 527.7c-8.9 0-16.2 7.3-16.2 16.2 0 8.9 7.3 16.2 16.2 16.2h263.6c8.9 0 16.2-7.3 16.2-16.2 0-8.9-7.3-16.2-16.2-16.2H285.7zm263.6 47.6H285.7c-17.3 0-31.4-14.1-31.4-31.4 0-17.3 14.1-31.4 31.4-31.4h263.6c17.3 0 31.4 14.1 31.4 31.4 0 17.3-14.1 31.4-31.4 31.4"/>
    <path id="path30_1_" fill="#c9bc2d" d="M248.2 293.5c-5.2 0-9.4-4.2-9.4-9.4s4.2-9.4 9.4-9.4c.3 0 28.4-.2 45.9-10.1 14.6-8.2 14-29 14-29.2-.2-5.2 3.8-9.5 9-9.7h.4c5 0 9.2 3.9 9.4 9 .1 1.3 1.2 32.4-23.5 46.4-21.9 12.3-53.9 12.4-55.2 12.4"/>
    <path id="path32_1_" fill="#c9bc2d" d="M317.5 230.9c-2.5.1-4.3 2.1-4.3 4.4 0 .1.9 24-16.6 33.9-18.8 10.6-48.2 10.7-48.5 10.7-2.3 0-4.2 1.9-4.2 4.2 0 2.3 1.9 4.2 4.2 4.2 1.3 0 31.9-.1 52.6-11.8 22.1-12.5 20.9-41.3 20.9-41.6 0-2.3-1.8-4-4.1-4zm-69.3 67.8c-8 0-14.6-6.5-14.6-14.6 0-8 6.5-14.6 14.6-14.6.3 0 27.1-.2 43.4-9.4 11.7-6.6 11.4-24.3 11.4-24.5-.3-8 6-14.8 14-15.1h.1c8.4 0 14.7 6.1 15.1 13.9.1 1.4 1.5 35.5-26.2 51.1-23.2 13-56.4 13.2-57.8 13.2"/>
    <path id="path34_1_" fill="#c9bc2d" d="M354 225.6c0 8.7-7.1 15.8-15.8 15.8h-41.4c-8.7 0-15.8-7.1-15.8-15.8 0-8.7 7.1-15.8 15.8-15.8h41.4c8.7 0 15.8 7.1 15.8 15.8"/>
    <path id="path36_1_" fill="#c9bc2d" d="M296.8 215c-5.8 0-10.6 4.8-10.6 10.6s4.8 10.6 10.6 10.6h41.4c5.8 0 10.6-4.8 10.6-10.6S344 215 338.2 215h-41.4zm41.4 31.5h-41.4c-11.5 0-20.9-9.4-20.9-20.9 0-11.5 9.4-20.9 20.9-20.9h41.4c11.5 0 20.9 9.4 20.9 20.9 0 11.5-9.4 20.9-20.9 20.9"/>
    <path id="path38_1_" fill="#c9bc2d" d="m352.1 91.7 14.6 135-75.3-.6c-55.9 0-60.7-38.3-60.7-38.3V76.2l121.4 15.5"/>
    <path id="path40_1_" fill="#fff" d="M235.9 82v105.8c.1.7 5.1 33.1 55.5 33.1l69.5.5-13.5-125.1L235.9 82zm131 149.9h-.2l-75.3-.6c-59.8 0-65.7-42.4-65.7-42.8V76.2c0-1.5.6-2.9 1.8-3.9 1.1-1 2.6-1.4 4.1-1.2l121.3 15.5c2.4.3 4.2 2.2 4.5 4.6l14.5 133.7c.2.6.3 1.2.3 1.8-.2 2.9-2.5 5.2-5.3 5.2"/>
    <path id="path42_1_" fill="#c9bc2d" d="M398.4 89.7v109.9s1.6 27.1-37 27.1c0 0-8-.7-7.1-28 1-27.4 0-118.5 0-118.5l44.1 9.5"/>
    <path id="path44_1_" fill="#fff" d="M359.6 86.6c.2 21.3.8 89.3-.1 112.3-.6 16.5 2.2 21.5 3.2 22.7 11.6-.2 20.1-3.1 25.2-8.5 5.6-5.9 5.3-13.1 5.3-13.1V94l-33.6-7.4zm1.8 145.3h-.4c-3.9-.3-12.8-4.2-11.8-33.4 1-26.9 0-117.3 0-118.2 0-1.6.7-3.1 1.9-4 1.2-1 2.8-1.4 4.4-1l44 9.5c2.4.5 4.1 2.6 4.1 5v109.9c0 .2.6 11.3-8.1 20.5-7.4 7.7-18.9 11.7-34.1 11.7"/>
    <path id="path46_1_" fill="#c9bc2d" d="M339.8 97.3h60.5V64h-60.5v33.3"/>
    <path id="path48_1_" fill="#fff" d="M345 92.1h50.2v-23H345v23zm55.3 10.4h-60.5c-2.8 0-5.2-2.3-5.2-5.2V64c0-2.9 2.3-5.2 5.2-5.2h60.5c2.9 0 5.2 2.3 5.2 5.2v33.3c0 2.8-2.3 5.2-5.2 5.2"/>
    <path id="path50_1_" fill="#c9bc2d" d="M222.3 88.4 345 97.3V64l-122.7-8.9v33.3"/>
    <path id="path52_1_" fill="#fff" d="m227.5 83.6 112.4 8.1v-23l-112.4-8.1v23zM345 102.5h-.4l-122.7-8.9c-2.7-.2-4.8-2.4-4.8-5.1V55.1c0-1.4.6-2.8 1.6-3.8s2.4-1.5 3.9-1.4l122.7 8.9c2.7.2 4.8 2.4 4.8 5.2v33.3c0 1.4-.6 2.8-1.6 3.8-.9.9-2.2 1.4-3.5 1.4"/>
    <path id="path54_1_" fill="#fff" d="M381.7 138.5c0 2.7-2.2 4.9-4.9 4.9s-4.9-2.2-4.9-4.9v-16.7c0-2.7 2.2-4.9 4.9-4.9s4.9 2.2 4.9 4.9v16.7"/>
    <path id="path58_1_" fill="#fff" d="M386.7 116.9c0 5.5-4.5 10-10 10s-10-4.5-10-10 4.5-10 10-10c5.5.1 10 4.5 10 10"/>
    <path id="path62_1_" fill="#c9bc2d" d="M315.3 129.7c-9 47.7-40.6 82.2-70.5 77.1-29.9-5.1-46.8-48-37.8-95.7s40.6-82.2 70.5-77.1c30 5.1 46.9 47.9 37.8 95.7"/>
    <path id="path64_1_" fill="#fff" d="M271.6 38.6c-25.5 0-51.6 32.2-59.4 73.4-5.3 28.3-1.2 56.5 10.8 73.8 6.1 8.9 14 14.3 22.8 15.8 27.2 4.7 56.2-29.1 64.5-73 5.3-28.3 1.2-56.5-10.8-73.8-6.2-8.9-14-14.3-22.8-15.8-1.7-.3-3.4-.4-5.1-.4zm-20.7 173.8c-2.3 0-4.6-.2-6.8-.6-11.5-2-21.7-8.9-29.5-20.1-13.7-19.8-18.4-50.3-12.5-81.6 8.8-46.6 38.7-81.8 69.6-81.8 2.3 0 4.6.2 6.8.6 11.5 2 21.8 9 29.5 20.1 13.7 19.8 18.4 50.3 12.4 81.6-8.8 46.6-38.7 81.8-69.5 81.8"/>
    <path id="path140_1_" fill="#f6f3d7" d="M196.1 333.7c-9.8-1.5-20.8-2.4-32.5-2.4s-22.7.9-32.5 2.4l-40 8.6v11s32.5 14.4 72.6 14.4 72.5-14.4 72.5-14.4v-11l-40.1-8.6"/>
    <path id="path142_1_" fill="#c9bc2d" d="M96.1 349.8c8.9 3.4 35.9 12.7 67.4 12.7 31.6 0 58.5-9.3 67.4-12.7v-3.4l-36-7.7c-19.4-2.9-43.2-3-63.2.1l-35.6 7.7v3.3zm67.4 23.1c-40.7 0-73.3-14.2-74.6-14.8-1.9-.8-3.1-2.7-3.1-4.7v-11c0-2.4 1.7-4.5 4.1-5l40-8.6c21.6-3.3 45.9-3.2 66.9-.1l40.3 8.6c2.4.5 4.1 2.6 4.1 5v11c0 2-1.2 3.9-3.1 4.7-1.3.6-33.9 14.9-74.6 14.9"/>
    <path id="path144_1_" fill="#c9bc2d" d="M256 209.6s3.8 57.8-10 79.5c-13.8 21.7-22.7 36.8-22.7 36.8v16.5s-14.4 11-59.8 11-59.8-11-59.8-11v-16.5s-8.9-15.1-22.7-36.8c-13.8-21.7-10-79.5-10-79.5h185"/>
    <path id="path146_1_" fill="#fff" d="M108.9 339.4c5.2 2.6 21.1 8.8 54.6 8.8s49.4-6.2 54.6-8.8v-13.5c0-.9.2-1.8.7-2.6.1-.1 9.1-15.5 22.8-37 9.6-15.1 10.2-53.1 9.5-71.6H75.9c-.7 18.5-.1 56.5 9.5 71.6 13.7 21.5 22.7 36.8 22.8 37 .5.8.7 1.7.7 2.6v13.5zm54.6 19.1c-46.6 0-62.3-11.6-62.9-12.1-1.3-1-2-2.5-2-4.1v-15c-2.4-4-10.5-17.6-21.9-35.4-14.5-22.8-11-80.2-10.8-82.6.2-2.7 2.4-4.8 5.1-4.8h185c2.7 0 5 2.1 5.2 4.8.2 2.4 3.7 59.8-10.8 82.6-11.4 17.9-19.5 31.5-21.9 35.4v15c0 1.6-.7 3.1-2 4.1-.7.5-16.4 12.1-63 12.1"/>
    <path id="path148_1_" fill="#c9bc2d" d="M269.1 209.6c0 8.9-7.2 16.1-16.1 16.1H74.1c-8.9 0-16.1-7.2-16.1-16.1 0-8.9 7.2-16.1 16.1-16.1H253c8.9-.1 16.1 7.2 16.1 16.1"/>
    <path id="path150_1_" fill="#fff" d="M74.1 198.6c-6.1 0-11 4.9-11 11s4.9 11 11 11H253c6.1 0 11-4.9 11-11s-4.9-11-11-11H74.1zM253 230.9H74.1c-11.7 0-21.3-9.6-21.3-21.3 0-11.8 9.6-21.3 21.3-21.3H253c11.7 0 21.3 9.6 21.3 21.3 0 11.7-9.6 21.3-21.3 21.3"/>
</svg>
