<?xml version="1.0" encoding="utf-8"?>
<!-- Generator: Adobe Illustrator 22.0.0, SVG Export Plug-In . SVG Version: 6.00 Build 0)  -->
<svg version="1.1" xmlns="http://www.w3.org/2000/svg" xmlns:xlink="http://www.w3.org/1999/xlink" x="0px" y="0px"
	 viewBox="0 0 500 500" style="enable-background:new 0 0 500 500;" xml:space="preserve">
<style type="text/css">
	.st0{fill:#C3BA3F;}
	.st1{fill:#8F8A3D;}
	.st2{fill:#FFFFFF;}
</style>
<g id="BACKGROUND">
</g>
<g id="OBJECTS">
	<g>
		<g>
			<path class="st0" d="M395.7,68c-37.6,0-68,53.4-68,119.3c0,65.9,30.4,119.3,68,119.3c37.6,0,68-53.4,68-119.3
				C463.7,121.4,433.2,68,395.7,68z M403.8,259.9c-4.1,5.2-12.2,5.2-16.3,0c-8.7-11-19.9-35.3-19.9-72.6c0-37.3,11.3-61.6,20-72.6
				c4.1-5.2,12.2-5.2,16.3,0c8.7,11,19.9,35.3,19.9,72.6C423.8,224.6,412.5,248.9,403.8,259.9z"/>
			<path class="st0" d="M385,56.4H157.6c-40.8,0-73.9,58.6-73.9,130.9v43.8h19.6v9.7H83.7v178.2H311V318.3h0.3v-77.5h-19.1v-9.7
				h19.1v-32.8c-0.2-3.6-0.3-7.2-0.3-10.9C311,115,344.1,56.4,385,56.4z M138,240.8h-19.6v-9.7H138V240.8z M172.8,240.8h-19.6v-9.7
				h19.6V240.8z M207.6,240.8h-19.6v-9.7h19.6V240.8z M242.3,240.8h-19.6v-9.7h19.6V240.8z M277.1,240.8h-19.6v-9.7h19.6V240.8z"/>
			<path class="st0" d="M327.7,270.1v48.2H385C361.8,318.3,341.2,299.5,327.7,270.1z"/>
		</g>
	</g>
	<g>
		<g>
			<path class="st1" d="M-109-43.5h-83.6c-29.1,0-52.7,23.6-52.7,52.7v83.6c0,29.1,23.6,52.7,52.7,52.7h83.6
				c29.1,0,52.7-23.6,52.7-52.7V9.2C-56.2-19.9-79.8-43.5-109-43.5z"/>
			<path class="st1" d="M-192.5,145.5h83.6c14.6,0,27.7-5.9,37.3-15.4L-229.8-28.1c-9.5,9.5-15.4,22.7-15.4,37.3v83.6
				C-245.2,121.9-221.6,145.5-192.5,145.5z"/>
			<path class="st0" d="M-192.5,130.5c-20.8,0-37.7-16.9-37.7-37.7V9.2c0-20.8,16.9-37.7,37.7-37.7h83.6c20.8,0,37.7,16.9,37.7,37.7
				v83.6c0,20.8-16.9,37.7-37.7,37.7H-192.5z"/>
		</g>
		<g>
			<polygon class="st2" points="-200,63.9 -193.9,63.9 -193.9,99.3 -181.2,99.3 -181.2,63.9 -175.1,63.9 -168.2,27 -206.9,27 			"/>
			
				<ellipse transform="matrix(0.9983 -5.816472e-02 5.816472e-02 0.9983 -0.8936 -10.8929)" class="st2" cx="-187.6" cy="9.9" rx="12" ry="11.9"/>
			<polygon class="st2" points="-101.5,27 -126.4,27 -133.3,63.9 -120.3,63.9 -120.3,99.3 -107.5,99.3 -107.5,63.9 -94.6,63.9 			
				"/>
			
				<ellipse transform="matrix(0.9872 -0.1596 0.1596 0.9872 -3.0406 -18.0526)" class="st2" cx="-113.9" cy="9.9" rx="12" ry="11.9"/>
			<rect x="-153.6" y="-15.1" class="st2" width="5.8" height="132.2"/>
		</g>
	</g>
	<g>
		<g>
			<path class="st0" d="M-109,208.5c1.7,0,3.1-1.4,3.1-3.1c0-1.7-1.4-3.1-3.1-3.1h-49.8l1.2,6.3H-109z"/>
			<path class="st0" d="M-169.5,171.9c-0.4-2.1-2.3-3.7-4.5-3.7h-15.2c-2.5,0-4.5,2-4.5,4.5v35.7h31.3L-169.5,171.9z"/>
			<path class="st0" d="M-193.7,228.7c0,7.3,5.9,13.2,13.2,13.2c4.8,0,8,4.9,6.1,9.2l-6.3,14.5h49.1v-24c14.5-2,25.7-14.4,25.7-29.5
				h-87.8V228.7z"/>
		</g>
	</g>
</g>
</svg>
