<svg xmlns="http://www.w3.org/2000/svg" width="30" height="30">
    <g data-name="Group 6" transform="translate(-285 -726)">
        <rect data-name="Rectangle 387" width="30" height="30" rx="5" transform="translate(285 726)" fill="#ffb443"/>
        <path d="M308 736.885a2.885 2.885 0 0 0-2.885-2.885h-9.23a2.885 2.885 0 0 0-2.885 2.885v9.231a2.885 2.885 0 0 0 2.885 2.884h9.231a2.885 2.885 0 0 0 2.884-2.885Zm-4.322 3.615-5.2-3.034a1.154 1.154 0 0 0-1.735 1v6.068a1.154 1.154 0 0 0 1.735 1l5.2-3.034a1.154 1.154 0 0 0 0-1.993Z" fill="#fff"/>
    </g>
</svg>
