<?xml version="1.0" standalone="no"?>
<!DOCTYPE svg PUBLIC "-//W3C//DTD SVG 20010904//EN"
 "http://www.w3.org/TR/2001/REC-SVG-20010904/DTD/svg10.dtd">
<svg version="1.0" xmlns="http://www.w3.org/2000/svg"
 width="800.000000pt" height="800.000000pt" viewBox="0 0 800.000000 800.000000"
 preserveAspectRatio="xMidYMid meet">

<g transform="translate(0.000000,800.000000) scale(0.100000,-0.100000)"
fill="#DDD113" stroke="none">
<path d="M3955 7594 c-227 -24 -423 -69 -603 -140 -731 -285 -1246 -950 -1336
-1725 -41 -352 7 -637 178 -1050 6 -13 -12 -18 -110 -33 -245 -36 -520 -148
-724 -293 -302 -217 -536 -554 -635 -916 -52 -191 -55 -243 -55 -908 0 -693 0
-694 77 -842 53 -103 182 -230 283 -279 150 -72 154 -73 635 -73 382 0 437 2
495 18 196 54 349 177 435 352 66 133 68 149 73 577 l4 388 157 0 157 0 27
-97 c33 -116 100 -260 162 -349 25 -36 45 -69 45 -73 0 -4 -45 -47 -100 -95
-123 -107 -153 -157 -154 -257 -1 -54 4 -76 29 -125 26 -51 44 -68 122 -124
51 -36 92 -67 92 -70 0 -3 -35 -31 -79 -62 -122 -88 -168 -190 -140 -308 23
-97 39 -110 508 -422 240 -160 460 -301 487 -314 113 -52 247 -52 360 0 66 30
877 565 923 609 58 55 77 101 77 192 0 118 -35 172 -168 264 -26 17 -47 35
-47 40 0 4 36 33 80 65 90 65 123 103 146 171 21 59 14 146 -14 201 -19 37
-78 98 -185 191 l-48 41 56 86 c70 107 119 213 154 336 l27 95 660 0 659 0 5
-215 c5 -201 7 -218 28 -258 36 -67 98 -129 161 -159 48 -24 68 -28 141 -28
73 0 93 4 141 28 63 30 125 92 161 159 l23 43 0 1430 0 1430 -27 52 c-35 66
-85 116 -151 150 -46 25 -63 28 -147 28 -84 0 -101 -3 -147 -28 -66 -34 -116
-84 -151 -150 -27 -51 -27 -55 -30 -264 l-3 -213 -270 0 -270 0 15 28 c21 41
85 217 112 307 87 289 97 607 28 925 -151 701 -654 1283 -1327 1534 -246 92
-440 126 -742 131 -121 2 -238 1 -260 -1z m367 -334 c246 -16 454 -69 666
-170 528 -252 904 -760 992 -1340 48 -323 7 -575 -157 -952 l-56 -128 -116 0
-116 0 -87 178 c-49 100 -106 202 -132 234 -88 111 -230 200 -366 232 -37 9
-112 16 -172 16 l-108 0 0 335 0 335 353 0 c388 0 413 3 499 60 98 65 160 206
140 320 -21 118 -89 206 -197 257 l-60 28 -1044 3 c-1158 3 -1115 5 -1217 -62
-95 -63 -152 -185 -141 -302 11 -119 76 -213 185 -266 l67 -33 372 -3 373 -3
0 -334 0 -335 -108 0 c-191 0 -345 -57 -470 -174 -84 -79 -106 -113 -207 -316
l-85 -170 -281 0 -280 0 -44 93 c-146 311 -207 590 -185 852 48 592 362 1099
872 1404 220 132 516 224 773 240 174 11 176 11 337 1z m237 -3027 c-77 -236
-149 -458 -160 -495 l-21 -68 -211 0 -212 0 -112 349 -113 349 71 146 71 146
413 0 412 0 -138 -427z m512 -44 c63 -62 164 -126 244 -155 28 -9 51 -19 53
-20 2 -1 -20 -35 -48 -74 -116 -162 -243 -433 -256 -544 l-7 -56 -193 0 -194
0 0 68 c0 59 16 118 135 487 75 231 138 426 141 434 3 9 16 -4 35 -35 17 -26
58 -74 90 -105z m-1506 -409 c84 -261 95 -303 95 -367 l0 -73 -190 0 c-214 0
-190 -9 -204 80 -18 110 -168 414 -268 543 l-30 37 125 0 c137 0 238 20 324
63 26 14 49 22 50 19 2 -4 46 -140 98 -302z m-884 48 c115 -175 236 -394 249
-453 l7 -32 -191 -6 c-218 -6 -268 -16 -391 -80 -106 -55 -225 -172 -278 -274
-72 -138 -77 -177 -77 -605 l0 -378 -331 0 -330 0 3 588 c4 576 4 588 27 667
79 276 260 501 507 627 177 90 285 113 555 116 l136 2 114 -172z m3979 -158
l0 -330 -630 0 -630 0 0 23 c0 40 122 266 245 454 l120 183 448 0 447 0 0
-330z m-2995 -1170 l0 -165 -76 -3 -75 -3 -43 58 c-42 56 -123 213 -134 261
l-5 22 166 -2 167 -3 0 -165z m665 0 l0 -170 -165 0 -165 0 0 170 0 170 165 0
165 0 0 -170z m670 167 c0 -2 -9 -30 -20 -62 -24 -71 -68 -152 -121 -222 l-40
-53 -74 0 -75 0 0 170 0 170 165 0 c91 0 165 -2 165 -3z m-119 -763 c60 -53
109 -99 109 -102 0 -4 -99 -76 -220 -161 -121 -85 -220 -156 -220 -157 0 -1
92 -69 205 -150 112 -82 205 -152 205 -156 0 -4 -168 -118 -372 -254 -385
-254 -417 -271 -469 -244 -28 15 -730 478 -742 490 -8 7 90 84 305 238 48 35
90 67 93 72 3 5 -91 77 -210 160 -118 83 -217 155 -220 159 -2 5 46 52 107
105 l112 96 604 0 604 0 109 -96z"/>
</g>
</svg>
