<svg version="1.1" id="Layer_1" xmlns="http://www.w3.org/2000/svg" x="0" y="0" viewBox="0 0 546 459.6" style="enable-background:new 0 0 546 459.6" xml:space="preserve">
    <path  d="M87.2 178.2H57.5c-15.4 0-27.9 13.1-27.9 29.2v140.4c0 16.1 12.5 29.2 27.9 29.2h29.7V178.2zM87.2 377.1v29.7c0 15.4 13.1 27.9 29.2 27.9h140.4c16.1 0 29.2-12.5 29.2-27.9v-29.7H87.2z" fill="#938c34"/>
    <path  d="M438.4 76h-96.1l-25.5 25.1h25.5v5.6c0 29.2 23.7 53 53 53s53-23.7 53-53V76h-9.9z" fill="#c9bc2d"/>
    <path  d="M448.2 59.3H340l-23.3-34.4h131.5z" fill="#938c34"/>
    <path  d="M488.5 178.2H483.4L350.2 347.4h108.6v29.7H322.3v57.6h194.1V207.5c0-16.2-12.5-29.3-27.9-29.3zM442.6 178.2H303.8v.1c-5.7-.1-11.6 2.4-16.6 8.7-37 46.7-73.9 93.4-110.8 140.1-19.8 25.1 15.4 60.8 35.5 35.5 34.9-44.2 69.9-88.4 104.8-132.5v108l125.9-159.9z" fill="#c9bc2d"/>
</svg>