<svg version="1.1" id="Layer_1" xmlns="http://www.w3.org/2000/svg" x="0" y="0" viewBox="0 0 356.5 362" style="enable-background:new 0 0 356.5 362" xml:space="preserve">
    <g id="Group" transform="translate(-918 -214)">
        <path id="Vector" fill="#c9bc2d" d="M1064.5 458.9c-1.1 0-2.2-.3-3.2-.9l-66.2-39.8V489l88.1 53V435.7l-13.4 20.4c-1.2 1.8-3.2 2.8-5.3 2.8z"/>
        <path id="Vector-2" fill="#c9bc2d" d="m1077.4 293.7-31.7-19.7-88.6 53.2 31.8 19.8 88.5-53.3z"/>
        <path id="Vector-3" fill="#c9bc2d" d="m1080.6 416.8-89.8-54-18.1 27.4 89.8 54 18.1-27.4z"/>
        <path id="Vector-4" fill="#938c34" d="m1089.4 301.2-88.4 53.2 88.4 53.2 88.4-53.2-88.4-53.2z"/>
        <path id="Vector-5" fill="#938c34" d="m1154.6 383-56.3 33.9 18.2 27.4 89.8-54-18.2-27.4-33.5 20.1z"/>
        <path id="Vector-6" fill="#c9bc2d" d="m1101.3 293.6 88.6 53.3 32.2-20.7-88.6-53.3-32.2 20.7z"/>
        <path id="Vector-7" fill="#938c34" d="M1114.6 458.9c-2.1 0-4.1-1.1-5.2-2.8l-13.7-20.5V542l88.1-52.9v-70.7l-66 39.6c-.9.6-2.1.9-3.2.9z"/>
    </g>
</svg>
