<svg version="1.1" id="Layer_1" xmlns="http://www.w3.org/2000/svg" x="0" y="0" viewBox="0 0 511.9 511.9" style="enable-background:new 0 0 511.9 511.9" xml:space="preserve">
    
    <path style="fill:#c9bc2d;" d="M255.9 322.6c-88.9 0-161.3-72.4-161.3-161.3S167 0 255.9 0s161.3 72.4 161.3 161.3-72.3 161.3-161.3 161.3zm0-306.6c-80.1 0-145.3 65.2-145.3 145.3 0 80.1 65.2 145.3 145.3 145.3 80.1 0 145.3-65.2 145.3-145.3C401.2 81.2 336 16 255.9 16z"/>
    <path style="fill:#c9bc2d;" d="M247.9 3.4h16v307.8h-16z"/>
    <path style="fill:#c9bc2d;" d="M102.4 153.3h310.1v16H102.4zM255.7 124.5c-80.9 0-113.2-67.3-114.5-70.1l14.5-6.8c1.3 2.7 29.6 60.9 100 60.9 70.8 0 99-59.6 99.2-60.2l14.5 6.7c-1.2 2.8-32.7 69.5-113.7 69.5zM155.7 275l-14.5-6.8c1.3-2.9 33.6-70.1 114.5-70.1 81 0 112.5 66.7 113.8 69.5l-14.5 6.7c-1.1-2.4-28.8-60.2-99.2-60.2-70.9 0-99.8 60.3-100.1 60.9z"/>
    <path style="fill:#c9bc2d;" d="M247.2 321.6c-3.1-2.8-74.8-69.5-74.8-160.3 0-91 73.4-155.2 76.5-157.9l10.4 12.1c-.7.6-70.9 62.2-70.9 145.8 0 83.9 68.9 147.9 69.6 148.5l-10.8 11.8z"/>
    <path style="fill:#c9bc2d;"  d="m264.6 321.6-10.8-11.8c.7-.6 69.6-64.8 69.6-148.5S253.2 16.1 252.5 15.5l10.4-12.1c3.1 2.7 76.5 66.9 76.5 157.9 0 90.9-71.7 157.5-74.8 160.3z"/>
    <path style="fill:#938c34;" d="m29 401.4 11.6 50.2c2.5 11.8 5 23.8 7 35.8h.5c2.3-12 5.9-24.3 9.1-35.6l14.3-50.4h22.7l13.8 49c3.4 12.9 6.4 25 8.8 37h.5c1.8-12 4.3-24.1 7.3-37l12.3-49h27.5l-34.7 110.5h-25.9L90.5 467c-3.4-11.6-5.9-22-8.4-35.4h-.5c-2.3 13.6-5.2 24.5-8.4 35.4l-14.1 44.9h-26L.4 401.4H29zM202.6 401.4l11.6 50.2c2.5 11.8 5 23.8 7 35.8h.5c2.3-12 5.9-24.3 9.1-35.6l14.3-50.4h22.7l13.8 49c3.4 12.9 6.4 25 8.8 37h.5c1.8-12 4.3-24.1 7.3-37l12.3-49H338l-34.7 110.5h-25.9L264.1 467c-3.4-11.6-5.9-22-8.4-35.4h-.5c-2.3 13.6-5.2 24.5-8.4 35.4l-14.1 44.9h-26.1L174 401.4h28.6zM376.2 401.4l11.6 50.2c2.5 11.8 5 23.8 7 35.8h.5c2.3-12 5.9-24.3 9.1-35.6l14.3-50.4h22.7l13.8 49c3.4 12.9 6.4 25 8.8 37h.5c1.8-12 4.3-24.1 7.3-37l12.3-49h27.5l-34.7 110.5H451L437.7 467c-3.4-11.6-5.9-22-8.4-35.4h-.5c-2.3 13.6-5.2 24.5-8.4 35.4l-14.1 44.9h-26.1l-32.7-110.5h28.7z"/>
</svg>