<svg version="1.1" id="Layer_1" xmlns="http://www.w3.org/2000/svg" x="0" y="0" viewBox="0 0 862 516" style="enable-background:new 0 0 862 516" xml:space="preserve">
    <style>
        .st0{fill:#c9bc2d}.st1{fill:#938c34}.st2{fill:#625e28}
    </style>
    <g id="Layer_x0020_1">
        <g id="_1202569808">
            <path d="M753.5 302c-15.8 1.1-30 8.2-41.3 17.1-5.5 4.3-5.9 4.8-10.4 9.3-.8.8-1.7 1.5-2.4 2.3l-4.5 5.1c-.8.9-1.4 1.7-2.3 2.7-22.2 27.1-36.1 69.3-27.6 104.6 2.5 10.4 7.2 20 12.6 26.5 2.8 3.4 6.3 6.8 10.1 9.4 3.4 2.3 2.7 1.9 8.1 1.9 3.2 0 6.3-.1 9.5-.5 19.9-2.1 35.3-10.4 50-22.9l2.7-2.4c1.5-1.7 3.2-3 4.9-4.8 11.7-12.5 20.2-25.1 26.4-42.3 11.2-30.7 9.4-66.9-7.8-95.3-1.3-2.1-2.4-3.9-3.7-5.8-.9-1.4-.7-1.4-2.7-2.1-6.8-2.5-13.7-3.5-21.2-3l-.4.2z" fill="#c9bc2d"/>
            <path d="M569 431.1c-1-1.2-6.6-3.6-8.3-4.8-1.5-1.1-5.1-5.3-6.4-6.8-14-16.7-18.9-39-16.8-61.9 1.4-14.8 4.7-29.1 10.6-42.5 2.7-6 5.5-12.3 8.6-17.9 6.2-11 10.6-18.1 18.5-27.8l3.1-3.6c3.7-4.2 9.1-9.4 13.7-13 9.6-7.6 20.6-13.8 35.5-17.6 7.4-1.9 15.9-2.7 24-2.6 5.6.1 6.7 0 11.3 2 3.1 1.4 6.2 2.7 9.3 4.1l32.1 14.2c.7.3 1.7.7 2.3 1.1 1.1.6 1.5 1.5 1.9 1.6 3-.2 7.3-.9 10.2-.5 3.1.4 6.3.9 9.3 1.6 11.9 2.4 22 5.5 32.8 10.7 1.9.9 9 4.6 10.5 5.8.7.6 1.2 1.7 1.4 2.6l.4 1.2c2.4 1.3 5.2 2.4 7.3 3.9 1.9 1.3 1.5 2.7 2.2 3.5.2.2 3.5 1.5 4 1.7 8.5 3.8 10.8 7.1 14 8.9l8.6-52.2c.3-1.5.6-3.3.8-4.8.6-7.3-3-12.3-8.8-13.5-2.5-.5-7.5-.2-10.2.1-3.3.4-7.4-.1-10.7.4-3 .4-7.3.3-10.7.4l-5.3.2c-1.5 0-2.6.3-5.5.2-5.3 0-15.8 1-21.1.9l-21.5.9c-3.2.4-7.3 0-10.7.4-3.3.4-7 .4-10.6.4l-5.3.2c-1.7 0-3.2.3-5.3.2-1.9 0-3.2.3-5.3.2-2.1 0-3.2.2-5.3.2l-31.8 1.3c-3.2.5-7.4.1-10.9.4l-39.9 1.7c-1.2.1-1.3.2-2.6.3-3.5.1-7.5.1-10.6.4-3.3.4-7.4-.1-10.7.4-3 .4-7.3.3-10.7.4-1.2 0-1.2.2-2.4.3h-2.9c-1.5 0-2.6.3-5.5.2l-10.4.6c-7.9 1.4-15.4 7.9-17.4 15.7-.8 2.9-1.4 5.9-2.1 9l-14.1 63.6c-1.4 6.1-2.6 12-4 18.1l-6 27.3c-.6 3.1-1.3 6.1-2 9l-8.1 36.4c-1.2 5.5-2.8 12.2 3.3 16.8 4 3 8.9 2 14 2 2.1 0 3.2-.3 5.3-.2 3.9 0 6.9-.3 10.8-.2l10.8-.5c1.7-.1 3.8 0 5.5 0l5.3-.2h2.7c1.3 0 1.4-.2 2.6-.3 1.8-.1 3.7.1 5.5 0l5.3-.2c.9 0 1.8.1 2.7 0 1.1-.1 1.3-.2 2.7-.2 3.9 0 7-.2 11-.2z" fill="#938c34"/>
            <path d="M603.8 444.9c-.5-2-1.9-4.8-2.6-6.8-10.4-28.4-6.3-59.3 5-86.6 1.9-4.5 4.2-8.3 6.3-12.5 5.1-10.1 15.7-26.4 22-34.6 1.5-1.9 2.7-3.4 4.1-5.2 1.4-1.8 2.9-3.4 4.2-5.1 4.4-5.5 13.8-14 19.3-18.4 3.4-2.7 7.1-5.4 11.2-7.8 4.1-2.4 7.8-4.4 12.6-6.3 4.9-2.1 9.1-3.1 14.4-4.5-2.4-1.3-15.6-7-19.2-8.5-2.2-1-23-10.4-24.2-10.5-5.2-.6-14.8-.1-19.7.6-8.1 1.1-15.2 3.2-22 6-9.9 4.2-17.7 9.7-25.3 16.5-2.7 2.4-4.8 4.2-7.1 7.1-1.1 1.3-2.2 2.3-3.3 3.7-1 1.3-1.9 2.4-3.1 3.8-10 12.2-19 29.8-25.3 44.6-2.8 6.6-4.8 14.2-6.3 21.7-5.2 25.1-4.5 47.5 9.1 68.8 2.1 3.2 3.7 5 6 7.8 3.7 4.3 3 3.4 8 6.2l35.9 20.2v-.2z" fill="#c9bc2d"/>
            <path d="M652.2 485.8c-.6-1-1.9-2.2-2.8-3-3.1-3.2-5.3-5.8-7.9-9.8-6.8-10.6-11.1-20.2-14.3-33-2.5-10.2-2.5-10.5-2.2-21.3.6-25.6 6.3-54.1 18.6-75.9 4.9-8.6 12.4-20.7 19.3-27.9.5-.6.8-1 1.3-1.6 3.5-3.7 6-6.8 10.2-10.5l12.8-10.9c8.5-6.4 18.1-12.8 30.2-17.1 6-2.2 12.2-3.7 19.2-4.4 3.7-.3 7.5-.3 11.2.1 3.5.4 7.1 1.4 10.4 1.7-1.9-1.9-16.3-6.6-20.2-7.7-6.3-1.8-16.8-4.4-23.8-4-19.6 1-36.4 9.4-49.6 20.2-4.8 3.9-7 6-10.9 9.9-4.8 4.8-5.8 6.1-10.1 11.1-7.7 8.8-16.9 23.2-22.7 33.3-7.6 13.2-12.9 23.6-16.6 39-6.3 26.5-5.2 51.5 7.5 75.6.9 1.7 7.5 10.2 9.2 11.9 2.7 2.6 3.3 3.9 6.8 7.1 2.4 2.2 4.8 4.3 7.5 6.4 3.6 2.8 8.2 6.2 12.3 8.6 1.2.6 3 1.8 4.6 2.2z" fill="#938c34"/>
            <path d="M754.6 296.8c6.6-.3 13.2.6 19 2.4 3.4 1.1 5.5 1.6 7.1 3.9 1.2 1.6 1 1.7 2.7 2.7 5.4 3.2 10.5 7.9 14.3 12.8 18.4 24.5 17.7 59.3 8.6 87.8-3.5 11-8.3 21.3-13.5 30.1-6.8 11.2-9.1 13.2-16.3 22.1-.7.9-1.8 1.8-2.6 2.7-16.8 17.8-45.8 36-77 25.9-1.3-.4-3-1.2-4-1.4-1.7-.4-3.2.1-4.8-.7-1.7-.8-5.2-3.4-6.4-4.4-7.3-6.1-13.5-13.9-18.1-25.6-13.2-33.3-3.6-74.6 14.3-104.4 2.9-4.8 5.8-8.9 8.9-13 2.8-3.8 7-8.4 10.2-11.7 14.2-15.1 35.3-28.2 57.6-29.2zM756 286c-21.6 1.6-39 12.2-54.1 25-.6.5-1 1-1.6 1.5-2 1.7-5.8 5.8-7.7 7.6l-5.7 6.3c-1.9 2.2-3.7 4.5-5.4 6.8-26.5 35.1-41.8 89.9-24.5 131.6 17 40.9 58.2 48.2 95.5 26.1 5.3-3.2 9.9-6.4 14.3-10 2.3-1.9 4.4-3.8 6.6-5.7 4.5-3.9 14.3-15.5 17.1-19.3 26.6-35.3 41.8-89.5 24.6-131.6-8.7-21.1-28.2-40.6-59.1-38.3zM806.7 301.3l6.2 8.4c9.2 13.4 11.7 30.1 12.5 31.5l24.9-64.6c.9-2.2 1.6-4.2 2.5-6.4.5-1.2.7-2.2 1.2-3.4 4.8-11.3 10.4-30.2-.3-39.5-.6-.5-.7-.5-1.3-.9-5-3.4-10.9-4.5-17.1-4.6H828c-.8 0-1.5.1-2.2.1-1.3.1-3.6-.1-5.5-.1h-.4c-1.1 0-1.9.1-2.4.6-.6.5-.3.9-.4 1.8l-1.9 14c-.4 2.7-.6 5-1 7.9-.5 4.4-1.7 10.9-2.2 15.6l-1.2 8c-.2 2.7-.6 5.4-1 7.9-.9 5-1.4 11.1-2.1 15.9-.2 1.4-.4 2.5-.6 3.9-.1 1.2 0 3-.4 3.9z" fill="#625e28"/>
            <path d="m669.9 492.5-5.5-5.8c-1.7-2.1-3.2-4-4.9-6.4-24.5-36.4-15.5-90.1 3-126.1 17.2-33.5 48.5-66.3 86.5-72.4 10.7-1.7 12-.6 21.1-.3-2.7-.9-4.5-2.1-8.9-3.4-3.3-.9-6.9-1.7-10.4-2.3-24.7-4.2-50.5 10.3-67.5 25.6-.6.6-.9.7-1.7 1.4-.6.6-1.2 1-1.8 1.6l-12.4 12.8c-8 8.9-15 19.4-20.6 30-5.7 10.9-10.2 24-13 37.4-1.5 7.1-2.6 14.5-3.2 22-.5 6.3-1.4 18.5-.3 24.3 2.7 13.9 7.3 26.6 13.8 36.9 3.4 5.3 4.6 6.5 8.1 10.7.4.6.9 1.2 1.4 1.7 4.3 4.1 10.8 10.2 16.3 12.3zM708.7 485c20.4 3.2 41.9-9.6 52.3-18.5 13.2-11.2 23.8-24.3 31.7-40.1 8.2-16.6 14.5-35.2 14.8-57 .2-15-3-30.8-10.7-43.1-1.4-2.1-4-5.8-5.8-7.7-.7-.8-1.6-1.4-2.2-2.2l5.1 11.7c1.6 4.1 3 8.6 4 13.1 6.8 29 1.7 60-11.7 84.9-8.6 15.9-19.1 27.6-30.8 37.4-11 9.2-27.6 19.1-46.7 21.5z" fill="#625e28"/>
        </g>
        <path d="m381.7 1.8-1.6.2c-3 .4-6.6.3-9.3.6-1.5.2-3 0-4.5.2-1.6.2-3.2.1-5 .1l-1.7.2c-3.7.4-7.9.1-11.3.6-1.9.3-3.7 0-5.7.3s-4.2.1-6.2.1l-1.4.3-4.5.1-2.9.1-10.9.4c-2.2 0-3.2.3-5.3.3h-5.9l-.9.2-6.3.1-3.5.1c-5 .8-12.2-.2-17.3.6-2.8.4-5.8-.1-8.7.1-2.7.3-5.9.3-9.1.3l-3.8.3c-5.2.7-12.1-.1-17.4.4-2.6.3-5.9 0-8.6.3-2.8.3-5.9.3-9 .3-.6.4-1.3.2-2.3.2l-12.7.4c-4.2 0-10.4.9-12.3.9l-.7.1c-1.8.3-3.5 1-5.1 1l-.2.2-3.3 1-.2.2c-.8.3-.9.4-1.7.8-.7.3-1 .4-1.7.7-1.2.6-2 1.4-3.3 1.9l-.1.1c-2.9 2.7-1.9 1-5.5 5.3-.6.7-1 1.3-1.7 2l-.1.1c-.8 1.5-1.9 3-2.7 4.6-.7 1.8-1.7 3.3-2.2 5.3l-.1.1c-.3 1.6-.9 2.8-1.3 4.6l-.2.2c0 1.7-.7 3-1 4.8l-.2.5c0 2.1-.7 4.4-1.1 6.5-.4 2.4-.7 4.3-1.2 6.7l-.1.5-.1 1.3-.2.2c0 2.3-.6 4.2-1 6.6l-.2.4c-.1 2-.7 4-1 6.1l-.2.5c0 2-.6 4.2-1 6.3l-.1.7-.1 1.1-.2.4c0 1.7-.4 3-.7 4.6l-.1.5-.1 1.3-.2.3c0 2.3-.6 4-1 6.3l-.7.7c0 2.1-.6 4.2-1 6.3l-.1.4c0 1.9-.6 4.1-1 6.1l-.1.5-.1 1.2-.2.3c0 1.9-.7 4-1 6.3l-.2.2c0 2.1-.7 4.2-1 6.3l-.2.4-.2 1.9c.8 1.1 16.5 12.4 20.2 15.8l9.6 8.4c.9.6 1.7 1.3 2.4 2l2.4 1.9c5.6 4.2 9.4 8.8 10.7 16.5l3 19.6c.4 3.2.8 2.3 6.8 6.8 3.4 2.6 6.8 5 10.4 7.6 7.1 5 13.8 10.2 20.9 15.3 13.8 9.9 27.9 20.5 41.7 30.5 6.9 5 14 10.1 20.9 15.3 3.5 2.6 6.9 4.9 10.4 7.6l10.4 7.6c26 18.6 52.1 38.4 78.2 57.2 1.9 1.4 3.5 2.4 5.3 3.9 10.9 8.5 25.5 18.1 36.4 26.6 1.8 1.4 3.6 2.5 5.3 3.9l19.7 14.4c.8.6.6.6 1.7.9l6.7-19.4c.6-1.2.1-.6.9-.9l.1-.3.1-.1c.2-1.3.8-2.8 1.3-4l.1-.1c.1-1.7.6-1.9 1-3.4l.2-.2c.3-1.7 1.5-5.1 2.2-6.6l.1-.2.1-.6.2-.2c.1-1.1 1.7-5.4 2.2-6.6l.2-.3c.1-1.2.9-2.9 1.4-4.5.4-1.5 1-3 1.5-4.4l3.2-9.1.1-.1c.4-1.7.9-2.4 1.3-4l.1-.1c.1-1.4.6-1.9 1-3.4l.1-.1c.3-1.7 1.5-5.1 2.2-6.6l.1-.2.1-.6.2-.2c.1-1.7.6-1.9 1-3.4l.2-.2c.1-1.1 1.4-4.3 1.7-5.5l.9-2.7c.4-1.1.8-1.9 1-3l.2-.2c.1-1 2.8-8.9 3.4-10.2l.1-.1c.2-1.3.8-2.6 1.2-3.7.4-1.3 1-2.5 1.4-3.8l.1-.1c.2-1.2.6-2 1-3.1l.1-.2.1-.6.1-.1c.4-2.2 1.4-4.3 2.2-6.6s1.4-4.2 2.4-6.3l.1-.2.1-.6.1-.1c.4-1.9 4.5-10.3 5.5-11.9 1.5-2.6 3-5.4 4.9-7.8.6-.9 1.2-1.8 1.9-2.6l.1-.1c.6-1.2 4-4.5 5.2-5.2l.1-.1c.9-.9 2.3-1.7 3.4-2.2l.1-.1c1.6-1.3 8.1-3.8 10.8-4l.5-.1c3.7-.6 6.1-1 10.5-1l3.7-.1c5.1-.8 12.5.2 17.6-.5 2.7-.4 5.9.1 8.6-.2 2.7-.3 5.9-.3 9.1-.3l3.1-.2c5.3-.7 12.4.2 17.7-.5 2.6-.4 6.1.1 8.9-.3 2.5-.4 6.1-.2 9.1-.2l2.5-.2 5.3-.1 4.5-.1 19.2-.7h6.9l1.4-.2 6.3-.1 4-.1c4.8-.8 11.9.2 16.8-.6 2.7-.4 5.7.1 8.4-.2 2.7-.2 5.4-.3 8.4-.3l3.4-.2c4.9-.7 11.6.2 16.5-.5 2.6-.4 5.5.1 8.1-.2s5.5-.3 8.5-.3l2.8-.2c5-.6 11.5.2 16.5-.5 2.4-.4 5.8.1 8.3-.4 2.6-.4 5.7-.1 8.5-.1.7-.4 1-.2 2-.2l5.5-.1 4-.1 12.2-.4c2.4 0 3.9-.3 5.9-.3h6.6l.8-.2 6.6-.1 3.5-.1 12.2-.4-1.6-1.1c-.7-.4-1.3-.6-1.9-1l-90.6-45.3c-5.3-2.7-10.4-5.2-15.8-7.9l-15.9-7.9-.2-.2c-.9-.2-1.4-.4-2.2-1l-.2-.1c-1.4-.3-4.4-2-5.7-2.7-1.9-.9-3.6-1.8-5.5-2.7-3.9-1.9-7.4-3.8-11.4-5.7l-.2-.1-.4-.1-.2-.2c-.4-.1-.6-.2-1.2-.4-.6-.3-.2-.2-1-.6l-.2-.2-.4-.1-.1-.1c-1.2-.3-.5-.2-1.6-.7l-.2-.1-.4-.1-.1-.1c-1.7-.3-7-3.2-8.7-4.2-2.9-1.4-5.6-2.9-8.6-4.3l-.1-.1c-.4-.1-.6-.2-1.2-.4-.6-.3-.4-.2-1-.6l-.1-.1-7.6-3.7-.1-.1c-1.5-.3-4.6-2.1-6.2-2.9l-14.8-7.3c-4.3-1.8-16.3-8.1-21.2-10.5l-4.5-2.2c-.9-.4-.9-.2-1.7-.9l-.2-.1c-1.7-.4-8-3.8-10.1-4.8-3.5-1.7-6.6-3.5-10.2-5.1l-.2-.1-.4-.1-.1-.1c-.4-.1-.6-.2-1.2-.4-.6-.3-.2-.2-1-.6l-.2-.2c-.4-.1-.6-.2-1.2-.4-.6-.3-.3-.2-1-.6l-.2-.1-.4-.1-.1-.1c-1-.2-.9-.1-1.6-.7l-.2-.1-.4-.1-.1-.1c-1.7-.3-7-3.2-8.7-4.2-2.9-1.4-5.6-2.9-8.6-4.3l-.1-.1-2.2-1-.1-.1c-.9-.4-1.7-.8-2.5-1.2l-1.2-.6c-.9-.4-.6-.4-1.4-.8l-.1-.1c-.5-.1-.6-.2-1.2-.4-.5-.3-.4-.2-1-.6l-.1-.1-5.5-2.6c-.9-.4-1.2-.4-2-1.1l-.1-.1c-1.8-.4-32.6-16.1-39-19.2l-38.9-19.4c-8.4-4.2-17.8-9.1-26.3-13l-.2-.1c-1-.2-1.4-.5-2.2-.9-.9-.4-1.5-.6-2.3-.9-1.5-.7-3.1-1.2-4.8-1.9l-.1-.1c-1.1-.2-1.9-.5-2.8-.9-1-.4-1.9-.6-3-.9-1.8-.6-4-1.4-6-1.9l-.3-.1c-1.5 0-3.1-.6-4.5-1l-.5-.1L417 5l-.1-.1c-1.4 0-1.7-.2-3-.4-1.2-.3-1.8-.4-3.2-.5l-.4-.2c-1.5 0-3.1-.4-4.4-.5-1.5-.2-2.8-.2-4.4-.4l-1.4-.2c-3.5 0-5.8-.3-9.2-.3-3.5 0-5.8.3-9.3.3l.1-.9z" fill="#c9bc2d"/>
        <path d="M26 459.9c-1.4-6.4 2.4-12 7.1-13.1 12.5-3.2 16.6 18.9 4 21.7-3.2.7-5.8-.4-7.4-2.1-1.8-1.7-3.2-3.5-3.7-6.5zm97.7-10.3c-1.2 4.7-5.7 10.2-11.9 7.8-4.5-1.7-8.1-7.6-6.4-13.9 1.2-4.7 5.5-9.9 11.7-7.6 4 1.5 8.2 7.4 6.6 13.7zm-46-87.5c-.3-1.5.6-4 .9-5.6 1.5-.2 53.2 8.3 59.4 9.3l163.4 26.1c4.5.7 10.5 1.4 14.8 2.4L315 399c-.2.7-.2.7-.6 1.3L77.7 362.1zm-42.9-42.3c6.1-1.9 10.4 3.5 11.3 8.5 1.1 6.3-2.2 12-6.8 13.3-5.8 1.7-10.4-4-11.5-8.5-1.5-6.5 2.3-11.9 7-13.3zm76.5-9.6c6.1-2.1 10.6 3.2 11.5 8.1 1.3 6.4-1.9 12.1-6.8 13.4-8.4 2.3-14.6-8.6-10.4-16.8 1.4-2.5 2.8-3.7 5.7-4.7zm17.2 109.2 2.4-1c1 1.8 2.7 2.2 2.7 5.2 0 8.8.6 30.2-3.3 36.7-4.5 7.4-14.8 6.9-23.9 8.1L64.1 474c-9.2 1.3-18.6 3-27.9 3.8-12.5 1.2-15.8-3.2-16.6-14.9-.7-10.2-.2-21.7-.2-32 0-31.5-.4-64.4.1-95.7.1-7.9 1.2-19.7 8.5-23.5 4-2.1 8.4-2.2 13.2-2.8 4.8-.6 9.5-1.2 14.3-1.7 18.9-2.2 37.7-5 56.5-7.5 11.3-1.5 18.6-3.3 20.7 9 .9 5 2.2 25.3 1.7 30l-2.8.9c-4.9-6.5-2.3-15.3-4.2-25.6-2.3-11.8-7.4-10.6-18.6-9.1-17.5 2.4-34.9 4.9-52.4 7.1-6.6.9-20.6 1.8-25.8 3.8-7.2 2.8-9 13.4-9.3 20.6-.4 9.6 0 19.9 0 29.6v59.5c0 10-1.2 33.4 2.5 42.1 1.6 3.7 4.4 5.9 9.6 5.3 8.7-.9 17.6-2.4 26.4-3.6 17.4-2.3 34.9-4.7 52.2-7.3 5.7-.9 7.3-.8 10.8-4 7.8-7.2 5.6-28.3 5.7-38.6zM190.2 224c5.8 4.2 9.2 7.1 14.5 11.2 6.5 5 15.5 12.4 21.8 17l14.8 11.3c14.6 11.5 29.2 22 43.7 33.9 9 7.4 20 14.8 29.4 22.5 4.8 3.9 9.7 7.5 14.6 11.4l14.7 11v45.8c-3.5-.5-7.6-1.7-11.2-2.5-54.3-12.2-108.3-25.3-162.7-37.5-4.1-.9-19-4-21.9-5-9.2-3.1-6.8-9.4-6.7-19.2.1-7.6.1-18.4-.9-25.8-.5-4-1.9-7.5-4-9.4-1.6-1.5-5.5-4.3-8.9-4.5-2.4-.1-20 2.3-23.8 2.8-10.1 1.3-22.7 2.7-32.7 4.2-11.4 1.8-26.4 3.5-38.2 5-9 1.2-15.3 1.6-19.6 7.3-4.2 5.5-4 14.4-4.3 22.4-.6 17.6-.2 35.4-.3 53 0 17.9 0 35.7.1 53.6.1 16.4-.9 35.4 2.6 50.7 2.2 9.4 6.6 10.6 16.7 9.2l70.5-9.4c7.9-1.1 15.7-2.1 23.6-3.2 7.2-1 13.4-1.7 16-10.6 1.8-6 2.7-28.7 2.9-36.9.1-4.3-.3-9.1 0-13.4 31.8 2.6 73.4 9.8 103.8 18.4 32.3 9.1 61 19.6 88.2 33.8 3.5 1.8 7.2 4.1 9.1 6.3 3.7 4.5 3.2 6.2 5 10.2 2.8 6.6 9 11.4 16.3 14.1 17.1 6.2 34.1 7.1 51.8 1.2 18.9-6.4 25.6-16.1 25.3-35.6-.2-20.2-.3-40.8 0-61.1 1.2.4 3.5 2.2 4.5 3l21.2 15.3c1.5 1.1 2.9 2 4.3 3.1 1.3.9 2.9 2.3 4.2 2.9-.8-5.8-2.1-6.3-2.2-15.3-.1-5.5.5-10.9 1.2-16.2l.6-3.7.6-3.6c1-6.5 2.9-17.2 2.5-23.3-.9 1.4-7.6 21-9.3 25.9l-.7 1.4-8.8-6.3c-17.1-12.2-34.6-25.6-51.8-37.9-14.4-10.3-28.7-21.2-43.1-31.5l-51.7-37.8c-28.7-21.2-57.6-42-86.2-63.1l-30.1-22c-.8-.6-1.4-1-2.2-1.6l-1.5-1.2c-1.4-1.1-1.9-9.6-2.3-11.9-.6-4-1.2-7.8-1.7-11.7-1.7-10.8-9.3-13.3-18.1-21.5-3.5-3.3-20.4-16.9-22.3-17.4-.9 7.8-1.8 15.6-2.9 23.3-1.3 9.6-2.7 25.8 2.7 34.3 1.7 2.7 2.4 3.2 4.7 5.1.6.5 1 1.1 1.6 1.7 2.2 2.1 4.6 3.7 7.3 5.7 2.4 1.7 5.3 3.5 7.3 5.3 7.3 6.2 14.3 11.4 22.1 17l-.1-.2z" fill="#625e28"/>
        <path d="M2.6 430c.3-.4.3-.3-.1-.3l.1.3zM178.5 223l-.2-.1.2.1zM198.7 238.2l-.2-.2.2.2zM254.4 281.4l-.1-.1.1.1zM192.1 431.8l-.1-.2.1.2zM350.3 501.4l-.2-.1.2.1zM389.8 513l-.2-.2.2.2zM393.1 512.8l-.2.2.2-.2z"/>
    </g>
</svg>
