<?xml version="1.0" encoding="UTF-8" standalone="no"?>
<svg
   xmlns:dc="http://purl.org/dc/elements/1.1/"
   xmlns:cc="http://creativecommons.org/ns#"
   xmlns:rdf="http://www.w3.org/1999/02/22-rdf-syntax-ns#"
   xmlns:svg="http://www.w3.org/2000/svg"
   xmlns="http://www.w3.org/2000/svg"
   xmlns:xlink="http://www.w3.org/1999/xlink"
   xmlns:sodipodi="http://sodipodi.sourceforge.net/DTD/sodipodi-0.dtd"
   xmlns:inkscape="http://www.inkscape.org/namespaces/inkscape"
   height="929.66479pt"
   width="2021.0454pt"
   version="1.1"
   viewBox="0 0 2021.0327 929.66479"
   id="svg4491"
   sodipodi:docname="FireExtinguisherInUse.svg"
   inkscape:version="0.92.1 r15371">
  <metadata
     id="metadata4497">
    <rdf:RDF>
      <cc:Work
         rdf:about="">
        <dc:format>image/svg+xml</dc:format>
        <dc:type
           rdf:resource="http://purl.org/dc/dcmitype/StillImage" />
        <dc:title></dc:title>
      </cc:Work>
    </rdf:RDF>
  </metadata>
  <defs
     id="defs4495">
    <linearGradient
       inkscape:collect="always"
       id="linearGradient4523">
      <stop
         style="stop-color:#000000;stop-opacity:1;"
         offset="0"
         id="stop4519" />
      <stop
         style="stop-color:#000000;stop-opacity:0;"
         offset="1"
         id="stop4521" />
    </linearGradient>
    <linearGradient
       inkscape:collect="always"
       id="linearGradient4515">
      <stop
         style="stop-color:#6872c6;stop-opacity:1;"
         offset="0"
         id="stop4511" />
      <stop
         style="stop-color:#6872c6;stop-opacity:0;"
         offset="1"
         id="stop4513" />
    </linearGradient>
    <linearGradient
       inkscape:collect="always"
       xlink:href="#linearGradient4515"
       id="linearGradient4517"
       x1="964.02844"
       y1="285.27307"
       x2="1524.9812"
       y2="610.82043"
       gradientUnits="userSpaceOnUse"
       gradientTransform="translate(0.00284016,0.002656)" />
    <linearGradient
       inkscape:collect="always"
       xlink:href="#linearGradient4523"
       id="linearGradient4525"
       x1="964.02844"
       y1="285.27307"
       x2="1524.9812"
       y2="610.82043"
       gradientUnits="userSpaceOnUse"
       gradientTransform="translate(0.00284016,0.002656)" />
    <filter
       inkscape:collect="always"
       style="color-interpolation-filters:sRGB"
       id="filter4535"
       x="-0.039952122"
       width="1.0799042"
       y="-0.06824737"
       height="1.1364948">
      <feGaussianBlur
         inkscape:collect="always"
         stdDeviation="14.891543"
         id="feGaussianBlur4537" />
    </filter>
  </defs>
  <sodipodi:namedview
     pagecolor="#ffffff"
     bordercolor="#666666"
     borderopacity="1"
     objecttolerance="10"
     gridtolerance="10"
     guidetolerance="10"
     inkscape:pageopacity="0"
     inkscape:pageshadow="2"
     inkscape:window-width="1366"
     inkscape:window-height="706"
     id="namedview4493"
     showgrid="false"
     inkscape:snap-global="true"
     inkscape:zoom="0.11695872"
     inkscape:cx="1737.4637"
     inkscape:cy="345.4129"
     inkscape:window-x="-8"
     inkscape:window-y="-8"
     inkscape:window-maximized="1"
     inkscape:current-layer="svg4491"
     fit-margin-top="0"
     fit-margin-left="0"
     fit-margin-right="0"
     fit-margin-bottom="0" />
  <path
     id="path4499"
     d="m 218.48284,0.002656 c -24.1904,2.57 -46.1504,13.1296 -68.3704,22.1096 -37.24,18.78 -77.3696,30.8304 -117.832,40.1704 -7.45,10.6 16.2512,14.34 23.5112,14.9504 49.552,11.1376 90.248,-28.8 138.112,-30.2304 14.5296,2.47 37.54,8.2504 28.0704,28.82 -36.8496,2.47 -76.9608,2.77 -107.84,26.300004 -21.904,20.024 -52.1664,25.224 -76.0864,41.928 -17.7792,12.112 -36.1391998,28.528 -38.04959984,51.456 v 18.8096 c 0.7,3.01 4.28000004,9.2512 7.55000004,5.31096 45.5399998,-46.9104 107.6479998,-82.48 174.6239998,-81.192 13.3104,1.47 28.8104,-4.67904 39.6704,5.76096 7.51,4.82 6.31936,17.4192 16.5592,18.6592 14.62,2.86 29.64,0.35062 44.4,0.54062 8.24,0.89 5.07968,-9.9816 0.67969,-12.3816 -11.44,-0.73 -24.12,2.25032 -34.48,-4.02968 -20.46,-10.2704 -19.66,-44.3104 0.72031,-54.22 13.38,-5.56 28.32,-0.75 42.1296,-3.7 6.22,-2.04 2.27032,-10.9584 7.52032,-13.9184 7.92,-3.59 19.24,2.20968 25.9504,-4.17032 0.94,-10.0496 3.99032,-24.06 -6.37968,-30.4496 -2.37,-6.4 0.97872,-17.1104 -7.48128,-20.0704 C 286.101,12.8 260.925,3.48 234.549,0 h -16.08 z"
     inkscape:connector-curvature="0"
     style="fill:#7f635f;fill-opacity:1;stroke-width:0.80000001"
     sodipodi:nodetypes="cccccccccccccccccccccccccc" />
  <path
     d="m 255.17164,181.81866 c -6.2028,0.0265 -12.3944,0.1925 -18.5488,0.59375 -4.74,10.8096 -12.8808,20.7608 -25.6112,21.5904 -45.3104,9.7696 -83.392,46.5 -94.496,91.504 -4.18,18.86 -5.65872,38.3496 -4.06872,57.6096 -0.41284,259.336 0.75876,308.352 0.58906,540.00001 0.61,3.27 -0.65031,9.2504 4.17968,9.8904 h 60.1504 c 56.944,-0.89112 112.288,-1.12128 165.656,0 h 60.1504 c 4.83,-0.64 3.56968,-6.62064 4.17968,-9.8904 -0.16968,-231.64801 1.00192,-280.66401 0.58907,-540.00001 1.59,-19.26 0.11125,-38.7496 -4.06872,-57.6096 -11.1096,-45 -49.1904,-81.728 -94.496,-91.504 -12.7296,-0.83 -20.8712,-10.7808 -25.6112,-21.5904 -6.15376,-0.40125 -12.3456,-0.56725 -18.5488,-0.59375 -3.4464,0.0219 -6.83072,-0.0124 -10.0344,0 z"
     id="path4485"
     inkscape:connector-curvature="0"
     style="fill:#ddd113;stroke-width:0.80000001"
     sodipodi:nodetypes="cccccccccccccccccc" />
  <path
     d="m 155.04284,303.27266 c -5.6633,0 -10.223,4.5585 -10.223,10.222 v 68.152 c 0,5.6634 4.5601,10.222 10.223,10.222 h 207.86 c 5.6633,0 10.223,-4.5585 10.223,-10.222 v -68.152 c 0,-5.6633 -4.5601,-10.222 -10.223,-10.222 z"
     id="path4489"
     inkscape:connector-curvature="0"
     style="fill:#ddd050;stroke:#ffffff;stroke-width:12.35999966" />
  <path
     style="opacity:0.73200001;fill:url(#linearGradient4517);fill-opacity:1;stroke:url(#linearGradient4525);stroke-width:0.75px;stroke-linecap:butt;stroke-linejoin:miter;stroke-opacity:1;filter:url(#filter4535)"
     d="m 912.75058,273.20539 571.98972,517.22482 322.5049,-401.60986 c 0,0 -903.62212,-155.16744 -894.49462,-115.61496 z"
     id="path4509"
     inkscape:connector-curvature="0" />
  <path
     style="fill:#000000;stroke:#000000;stroke-width:0.75px;stroke-linecap:butt;stroke-linejoin:miter;stroke-opacity:1"
     d="m 260.51466,100.14654 c -18.76578,14.25347 -21.70332,29.34001 1.18416,40.26122 l 346.95699,48.5503 326.34614,111.54593 c 19.44034,-9.17033 41.37987,-29.1705 23.33228,-57.50133 l -335.00002,-110 z"
     id="path4507"
     inkscape:connector-curvature="0"
     sodipodi:nodetypes="ccccccc" />
  <path
     style="fill:#f85d31;fill-opacity:1;stroke:none;stroke-width:0.75px;stroke-linecap:butt;stroke-linejoin:miter;stroke-opacity:1"
     d="m 1466.4853,890.83264 c -26.2393,-44.89523 -63.7863,-144.72078 -24.6462,-171.52338 17.3874,17.34434 41.3457,124.65454 51.9083,55.7614 0.1176,-41.33343 -12.3307,-139.34775 14.9515,-144.99725 -0.1278,28.97304 16.2148,125.27071 38.0568,55.25397 15.6014,-46.92946 -21.1667,-153.87091 22.5435,-166.49946 33.7512,28.17036 -5.5268,144.46197 51.0214,114.63261 19.1423,-66.62502 10.1334,-137.17541 15.611,-204.78187 11.1845,-56.25948 70.3021,-60.04227 57.2493,3.40203 -12.8012,65.44385 49.9674,142.24072 116.7952,102.15347 71.3566,-38.34692 -29.6173,-133.83604 22.6383,-167.2934 23.8289,62.65342 80.1929,127.09614 34.7009,195.70661 4.0839,71.58048 83.3307,-26.15311 86.622,-61.5766 3.2182,26.70176 29.9535,142.19714 -34.8197,173.83039 -25.3263,67.25125 30.2761,38.25741 59.7505,31.99338 4.7175,36.64435 -46.548,112.84781 25.3701,85.49737 58.1649,57.62534 -49.5946,98.64551 -96.696,108.88028 -60.1834,17.35208 -123.3789,11.22163 -185.0405,19.72126 -84.1199,7.31677 -166.033,-22.26823 -250.3595,-16.48897 -4.7279,-3.40988 -5.1326,-8.3334 -5.6569,-13.67184 z"
     id="path4515"
     inkscape:connector-curvature="0" />
  <path
     inkscape:connector-curvature="0"
     id="path4521"
     d="m 1617.313,913.64727 c -11.402,-22.95119 -27.7177,-73.98366 -10.7098,-87.6856 7.5556,8.86672 17.9664,63.72547 22.5563,28.50615 0.051,-21.13033 -5.3582,-71.23687 6.4971,-74.12499 -0.055,14.8115 7.0459,64.04046 16.5372,28.24674 6.7794,-23.99111 -9.1978,-78.66136 9.796,-85.11728 14.6663,14.40115 -2.4016,73.85135 22.1709,58.60209 8.3181,-34.05981 4.4034,-70.12634 6.7836,-104.68789 4.8601,-28.76077 30.5491,-30.6946 24.8771,1.73918 -5.5626,33.45598 21.7129,72.71581 50.7523,52.22254 31.0073,-19.60358 -12.87,-68.4192 9.8372,-85.52315 10.3547,32.02946 34.8471,64.97365 15.079,100.04846 1.7746,36.59313 36.2106,-13.3699 37.6408,-31.47898 1.3984,13.65038 13.016,72.69353 -15.1306,88.86498 -11.0053,34.37995 13.1562,19.55782 25.964,16.35554 2.05,18.7332 -20.227,57.68967 11.0244,43.70767 25.275,29.45903 -21.5509,50.42922 -42.0184,55.66141 -26.1521,8.87067 -53.6131,5.73668 -80.4076,10.08183 -36.5535,3.74046 -72.148,-11.38388 -108.7913,-8.42943 -2.0545,-1.74319 -2.2303,-4.26017 -2.4582,-6.98927 z"
     style="fill:#f8c631;fill-opacity:1;stroke:none;stroke-width:0.3534914px;stroke-linecap:butt;stroke-linejoin:miter;stroke-opacity:1" />
</svg>
