<svg xmlns="http://www.w3.org/2000/svg" viewBox="0 0 800 800" style="enable-background:new 0 0 800 800" xml:space="preserve">
    <path d="M299.4 735.6c-3.1 0-5-.6-7.5-1.9-11.2-7.5-64.4-46.9-20-125 11.9-21.2 15-38.1 10.6-51.9-5-15.6-21.2-21.9-21.2-21.9-7.5-3.1-11.2-11.9-8.1-19.4 2.5-6.2 7.5-10 13.8-10 1.9 0 3.8.6 5.6 1.2 2.5 0 28.8 11.2 39.4 39.4 8.1 22.5 3.8 48.8-13.1 78.1-31.2 55 1.9 79.4 8.8 83.8 6.9 3.7 9.4 13.1 5.6 20.6-3.9 5.2-9.5 7-13.9 7zm101.2-33.1c-3.1 0-5-.6-7.5-1.9-22.5-13.1-54.4-53.8-18.8-117.5 10.6-19.4 13.8-35 9.4-46.9-4.4-13.8-18.8-19.4-18.8-19.4-8.1-3.1-11.9-11.3-8.8-19.4 2.5-6.2 7.5-10 13.8-10 1.9 0 3.8.6 5.6 1.2 6.2 2.5 28.1 12.5 36.9 37.5 7.5 21.2 3.7 45.6-11.9 72.5-30 53.8 6.2 75.6 8.1 76.2 3.1 1.9 5.6 5 6.9 8.8 1.2 3.7.6 8.1-1.2 11.9-3.7 5.1-9.3 7-13.7 7zm-207.5 0c-3.1 0-5-.6-7.5-1.9-22.5-13.1-54.4-53.8-18.8-117.5 10.6-19.4 13.8-35 9.4-46.9-4.4-13.8-18.8-19.4-18.8-19.4-8.1-3.1-11.9-11.3-8.8-19.4 2.5-6.2 7.5-10 13.8-10 1.9 0 3.8.6 5.6 1.2 6.2 2.5 28.1 13.1 36.9 37.5 7.5 21.2 3.1 45.6-11.9 73.1-30 53.7 6.2 75.6 8.1 76.2 3.1 1.9 5.6 5 6.9 8.8 1.2 3.8.6 8.1-1.3 11.9-2.9 4.5-9.2 6.4-13.6 6.4zm380.7-55.6c-5 0-8.8-1.9-11.9-5s-5-7.5-5-11.9c0-6.9 4.4-13.1 10.6-16.2h.6V580l-31.9 18.1v.6c0 5-1.9 11.2-8.1 14.4-2.5 1.9-5.6 2.5-8.8 2.5-6.2 0-11.9-3.1-14.4-8.1-2.5-4.4-3.1-8.8-1.9-13.1s3.8-8.1 8.1-10c2.5-1.9 5.6-2.5 8.1-2.5 3.1 0 6.2.6 8.8 2.5l28.8-16.2-28.1-16.2c-3.8 1.2-6.9 1.9-9.4 1.9-3.1 0-5.6-.6-8.1-1.9-7.5-5-10.6-15.6-6.2-23.1 3.1-5 8.8-8.1 15-8.1 3.1 0 6.2.6 8.8 2.5 5 3.1 8.1 8.1 8.1 14.4v.6l31.9 18.1v-33.8h-.6c-6.2-3.1-10.6-9.4-10.6-16.2 0-9.4 7.5-16.9 16.9-16.9 5 0 9.4 1.9 12.5 5s5 7.5 5 11.9c0 5.6-3.1 11.2-8.8 14.4h-1.9v32.5l27.5-15.6v-.6c0-5 1.9-11.2 8.1-14.4 2.5-1.9 5.6-2.5 8.8-2.5 6.2 0 11.9 3.1 14.4 8.1 2.5 4.4 3.1 8.8 1.9 13.1-1.2 4.4-3.8 8.1-8.1 10-2.5 1.9-5.6 2.5-8.1 2.5-3.1 0-6.2-.6-8.8-2.5l-28.7 16.2 28.1 16.2c3.7-1.2 6.9-1.9 9.4-1.9 3.1 0 5.6.6 8.1 1.9 7.5 5 10.6 15.6 6.2 23.1-3.1 5-8.8 8.1-15 8.1-3.1 0-6.2-.6-8.8-2.5-5-3.1-8.1-8.1-8.1-14.4v-.6l-26.9-15V615h.6c5.6 2.5 8.8 8.1 8.8 14.4-.1 10-7.6 17.5-16.9 17.5zm-455-197.5c-47.5 0-85.6-38.1-85.6-85.6V160c0-47.5 38.1-85.6 85.6-85.6h563.8c47.5 0 85.6 38.1 85.6 85.6v203.7c0 47.5-38.1 85.6-85.6 85.6l-563.8.1zM110 111.9c-22.5 0-40.6 18.8-40.6 42.5v217.5c0 23.1 18.1 42.5 40.6 42.5h580.6c22.5 0 40.6-18.8 40.6-42.5V154.4c0-23.1-18.1-42.5-40.6-42.5H110zm16.9 243.7c-8.1 0-15-6.9-15-15s6.9-15 15-15H660c8.1 0 15 6.9 15 15s-6.9 15-15 15H126.9zm0-63.1c-8.1 0-15-6.9-15-15s6.9-15 15-15H660c8.1 0 15 6.9 15 15s-6.9 15-15 15H126.9z" style="fill:#c9bc2d"/>
</svg>
