<svg  fill="#DDD113" xmlns="http://www.w3.org/2000/svg" viewBox="0 0 60 60"><path d="M59 0H1C.4 0 0 .4 0 1v46c0 .6.4 1 1 1h4v11c0 .6.4 1 1 1h48c.6 0 1-.4 1-1V48h4c.6 0 1-.4 1-1V1c0-.6-.4-1-1-1zm-1 2v6H2V2h56zm-5 22H7v-6h46v6zM7 58V26h46v32H7zm48-12V17c0-.6-.4-1-1-1H6c-.6 0-1 .4-1 1v29H2V10h56v36h-3z"/><path d="M4 4h4v2H4zM10 4h4v2h-4zM9 20h4v2H9zM15 20h4v2h-4zM54 4h2v2h-2zM50 4h2v2h-2zM49 20h2v2h-2zM45 20h2v2h-2zM11 47h16c.6 0 1-.4 1-1V30c0-.6-.4-1-1-1H11c-.6 0-1 .4-1 1v16c0 .6.4 1 1 1zm1-8h6v6h-6v-6zm8 6v-6h6v6h-6zm6-8h-6v-6h6v6zm-8-6v6h-6v-6h6zM31 29h4v2h-4zM31 33h2v2h-2zM35 33h2v2h-2zM39 33h2v2h-2zM43 33h2v2h-2zM47 33h2v2h-2zM38 29h4v2h-4zM45 29h4v2h-4zM31 37h18v2H31zM31 41h18v2H31zM31 45h18v2H31zM10 51h2v2h-2zM14 51h2v2h-2zM18 51h2v2h-2zM22 51h27v2H22z"/></svg>