<svg xmlns="http://www.w3.org/2000/svg" viewBox="0 0 800 800" style="enable-background:new 0 0 800 800" xml:space="preserve">
    <path d="m656.5 206.5-188-188C456.7 6.7 440.7 0 424 0H187.5C153 0 125 28 125 62.5v675c0 34.5 28 62.5 62.5 62.5h425c34.5 0 62.5-28 62.5-62.5V250c-.3-16.4-6.9-32-18.5-43.5zm-44 531h-425v-675h174V250c-.6 34.5 27 62.9 61.5 63.5h189.5v424zm0-486.5H424V62.5L612.5 250v1z" style="fill:#c9bc2d"/>
    <path d="M250 375h300v62.5H250V375zm0 125h300v62.5H250V500z" style="fill:#938c34"/>
</svg>
