<svg xmlns="http://www.w3.org/2000/svg" viewBox="0 0 500 750">
    <path d="M488.58 576.78a50.495 12.624 0 1 1-100.99 0 50.495 12.624 0 1 1 100.99 0z" transform="matrix(3.0349 0 0 2.576 -1065.8 -833.49)" stroke="#DDD113" stroke-width="8.941" fill="none"/>
    <path d="M488.58 576.78a50.495 12.624 0 1 1-100.99 0 50.495 12.624 0 1 1 100.99 0z" transform="matrix(3.0349 0 0 2.576 -1065.8 -1143.78)" stroke="#DDD113" stroke-width="8.941" fill="none"/>
    <g stroke-width="2.97">
        <path fill-rule="evenodd" fill="#ff0" d="m190.516 663.854-14.957.509-18.258-5.933-13.355-13.537-5.71-13.693 257.502-402.388 5.774 13.847 13.22 13.284 18.21 6.115 15.076-.591-257.502 402.387z"/>
        <path opacity=".305" fill-rule="evenodd" fill="#dd13f" d="m175.378 664.65-18.024-6.138 257.501-402.388 18.025 6.139L175.378 664.65z"/>
        <path opacity=".346" fill-rule="evenodd" d="m144.014 644.964-5.777-13.762L395.74 228.815l5.716 13.707-257.442 402.443z"/>
        <path fill-rule="evenodd" fill="#dbaa6e" d="m447.385 261.5-14.154.554-18.268-6.025-13.59-13.696-5.634-13.512 91.686-86.1L447.386 261.5z"/>
        <path fill-rule="evenodd" fill="#ff0" d="m474.655 180.589-6.228 3.78-6.695-1.411-4.198-5.056-1.473-5.732 31.358-29.448-12.842 38.097.078-.23z"/>
        <path opacity=".63" fill-rule="evenodd" fill="#fff" d="m433.436 262.042-18.697-6.245 46.938-72.84 25.569-39.7-53.809 118.785z"/>
        <path opacity=".264" fill-rule="evenodd" d="m401.56 242.522 85.87-99.793-31.19 29.29-60.32 57.23 5.638 13.274z"/>
        <path stroke="#DDD113" stroke-width=".288" fill="none" d="m357.57 483.27-4.767 71.425 50.365 271.9 7.748 3.55 10.963.55 9.948-4.404 6.033-6.337-50.157-270.84-30.133-65.851z" transform="matrix(1.2809 1.1716 -1.1859 1.2655 602.18 -886.99)"/>
    </g>
    <g stroke-width="2.97">
        <path fill-rule="evenodd" fill="#ddd113" d="m338.212 631.05-7.523 12.78-14.799 12.115-18.707 3.968-14.774-2.51-207.826-429.51 14.94 2.539 18.418-3.99 14.93-11.978 7.516-12.925 207.826 429.51z"/>
        <path opacity=".305" fill-rule="evenodd" fill="#fff" d="m330.832 644.132-14.852 11.81-207.826-429.508 14.851-11.811 207.827 429.509z"/>
        <path opacity=".346" fill-rule="evenodd" d="m297.286 659.887-14.867-2.49-207.826-429.51 14.789 2.514 207.9 429.48z"/>
        <path fill-rule="evenodd" fill="#dbaa6e" d="m130.083 202.076-7.056 12.135-14.885 12.075-18.97 4.08-14.578-2.477-25-122.506 80.487 96.693z"/>
        <path fill-rule="evenodd" fill="green" d="m75.248 136.22-.075 7.22-4.771 4.85-6.567.822-5.696-1.819-8.55-41.899 25.815 31.014-.156-.188z"/>
        <path opacity=".63" fill-rule="evenodd" fill="#fff" d="m123.12 214.046-15.302 12.316-37.447-78.02-20.417-42.511 73.166 108.216z"/>
        <path opacity=".264" fill-rule="evenodd" d="M89.424 230.319 49.596 105.39l8.504 41.674 16.948 80.91 14.376 2.346z"/>
        <path stroke="#DDD113" stroke-width=".288" fill="none" d="m678.5 495.05-27.908 65.919-41.511 273.4 6.157 5.894 10.178 4.11 10.842-.9 7.777-4.011 41.357-272.32-6.892-72.09z" transform="matrix(1.444 -.96896 .98079 1.4266 -1415.2 57.31)"/>
    </g>
    <g stroke-width="2.97">
        <path fill-rule="evenodd" fill="#ddd13" d="m272.754 654.851-11.602 9.34-18.173 6.18-18.921-2.805-12.929-7.495-41.157-474.307 13.074 7.58 18.658 2.683 18.247-6.007 11.647-9.476 41.157 474.307z"/>
        <path opacity=".305" fill-rule="evenodd" fill="#fff" d="m261.178 664.522-18.113 5.878-41.158-474.307 18.113-5.878 41.158 474.307z"/>
        <path opacity=".346" fill-rule="evenodd" d="m224.147 667.582-13.023-7.51-41.158-474.306 12.942 7.503 41.236 474.306z"/>
        <path fill-rule="evenodd" fill="#dbaa6e" d="m231.105 180.945-10.935 8.896-18.238 6.114-19.208-2.791-12.757-7.397 20.336-123.341 40.8 118.518z"/>
        <path fill-rule="evenodd" fill="red" d="m203.318 100.214-2.648 6.73-6.196 2.876-6.437-1.52-4.682-3.685 6.956-42.185 13.086 38.014-.079-.23z"/>
        <path opacity=".63" fill-rule="evenodd" fill="#fff" d="m220.333 189.715-18.715 6.194-7.191-86.052-3.93-46.891 29.837 126.75z"/>
        <path opacity=".264" fill-rule="evenodd" d="m182.977 193.207 7.325-130.774-6.918 41.958-13.022 81.614 12.615 7.203z"/>
        <path stroke="#DDD113" stroke-width=".288" fill="none" d="m510.8 488.38-27.908 65.919-41.511 273.4 6.157 5.894 10.177 4.11 10.842-.9 7.777-4.011 41.357-272.32-6.891-72.09z" transform="matrix(1.6971 -.40362 .40854 1.6766 -875.89 -549.37)"/>
    </g>
    <g stroke-width="2.97">
        <path fill-rule="evenodd" fill="#f60" d="m266.985 659.772-13.513 6.354-19.138 1.747-17.709-7.158-10.76-10.311 73.873-470.422 10.881 10.426 17.483 6.98 19.168-1.562 13.59-6.477-73.874 470.423z"/>
        <path opacity=".305" fill-rule="evenodd" fill="#fff" d="m253.417 666.454-19.007 1.467 73.873-470.423 19.008-1.466-73.874 470.422z"/>
        <path opacity=".346" fill-rule="evenodd" d="m216.708 660.751-10.85-10.347 73.874-470.422 10.772 10.322-73.797 470.44z"/>
        <path fill-rule="evenodd" fill="#dbaa6e" d="m340.285 189.64-12.759 6.081-19.186 1.666-17.99-7.211-10.618-10.175 49.365-115.059 11.186 124.697z"/>
        <path fill-rule="evenodd" fill="#f60" d="m332.67 104.684-4.188 5.918-6.71 1.342-5.89-2.984-3.663-4.677 16.884-39.352 3.588 39.996-.022-.242z"/>
        <path opacity=".63" fill-rule="evenodd" fill="#fff" d="m327.714 195.62-19.667 1.632 13.67-85.282 7.438-46.475-1.44 130.126z"/>
        <path opacity=".264" fill-rule="evenodd" d="m290.585 190.26 38.509-125.329-16.793 39.14-32.242 76.236 10.526 9.954z"/>
        <path stroke="#DDD113" stroke-width=".288" fill="none" d="m767.39 513.23-27.908 65.919-41.511 273.4 6.157 5.894 10.178 4.11 10.842-.9 7.777-4.011 41.357-272.32-6.892-72.09z" transform="matrix(1.7456 .0055 -.00558 1.7245 -1007.6 -823.49)"/>
    </g>
    <g stroke-width="2.97">
        <path fill-rule="evenodd" fill="#f0f" d="m173.258 637.726-14.89 1.484-18.614-4.725-14.232-12.634-6.614-13.29 229.988-418.324 6.688 13.439 14.08 12.39 18.58 4.91 15.003-1.574-229.988 418.324z"/>
        <path opacity=".305" fill-rule="evenodd" fill="#fff" d="m158.205 639.502-18.396-4.947 229.988-418.324 18.395 4.947-229.987 418.324z"/>
        <path opacity=".346" fill-rule="evenodd" d="m125.604 621.918-6.685-13.353 229.987-418.324 6.622 13.304L125.606 621.91z"/>
        <path fill-rule="evenodd" fill="#dbaa6e" d="m402.628 219.475-14.086 1.478-18.631-4.818-14.478-12.778-6.527-13.114 85.717-91.9-31.996 121.13z"/>
        <path fill-rule="evenodd" fill="#f0f" d="m424.41 136.962-5.96 4.178-6.775-.97-4.528-4.77-1.853-5.624 29.317-31.43-10.263 38.851.062-.235z"/>
        <path opacity=".63" fill-rule="evenodd" fill="#fff" d="m388.732 220.93-19.074-5.01 41.956-75.745 22.853-41.28-45.735 122.036z"/>
        <path opacity=".264" fill-rule="evenodd" d="m355.62 203.53 78.998-105.18-29.16 31.26-56.355 61.046 6.516 12.875z"/>
        <path stroke="#DDD113" stroke-width=".288" fill="none" d="m560.31 154.63-27.908 65.919-41.511 273.4 6.156 5.893 10.178 4.111 10.842-.9 7.777-4.011 41.357-272.32-6.891-72.09z" transform="matrix(1.6416 .58624 -.59339 1.6218 -393.726 -480.086)"/>
    </g>
    <g stroke-width="2.97">
        <path fill-rule="evenodd" fill="#00f" d="m344.542 634.08-9.082 11.75-16.216 10.192-19.063 1.625-14.34-4.316L134.02 201.51l14.5 4.364 18.778-1.682 16.33-10.04 9.092-11.894 151.823 451.82z"/>
        <path opacity=".305" fill-rule="evenodd" fill="#fff" d="m335.563 646.148-16.23 9.882-151.822-451.82 16.23-9.882 151.822 451.82z"/>
        <path opacity=".346" fill-rule="evenodd" d="m300.32 657.695-14.436-4.307-151.822-451.82 14.354 4.32L300.315 657.69z"/>
        <path fill-rule="evenodd" fill="#dbaa6e" d="m192.367 182.785-8.537 11.167-16.296 10.141-19.337 1.705-14.15-4.26-9.296-124.633 67.614 105.88z"/>
        <path fill-rule="evenodd" fill="#00f" d="m146.3 110.67-.989 7.154-5.347 4.222-6.62.004-5.42-2.508-3.18-42.627 21.687 33.96-.131-.205z"/>
        <path opacity=".63" fill-rule="evenodd" fill="#fff" d="m183.943 193.8-16.74 10.329-27.277-82.036-14.874-44.7 58.892 116.408z"/>
        <path opacity=".264" fill-rule="evenodd" d="m148.452 205.782-23.7-128.87 3.162 42.397 6.573 82.37 13.966 4.104z"/>
        <path stroke="#DDD113" stroke-width=".288" fill="none" d="m487.58 865.78-27.908 65.919-41.511 273.39 6.156 5.894 10.178 4.11 10.842-.9 7.777-4.011 41.357-272.32-6.891-72.09z" transform="matrix(1.5553 -.78293 .79249 1.5366 -1319.3 -870.93)"/>
    </g>
    <path stroke="#DDD113" stroke-width="25" fill="none" d="M406.43 330.1c6.842 3.688 10.6 7.705 10.6 11.908 0 17.96-68.611 32.519-153.25 32.519-84.636 0-153.25-14.559-153.25-32.519 0-3.893 3.223-7.625 9.134-11.085M406.43 640.4c6.842 3.688 10.6 7.705 10.6 11.908 0 17.96-68.611 32.519-153.25 32.519-84.635 0-153.25-14.559-153.25-32.519 0-3.892 3.223-7.625 9.134-11.085"/>
    <path fill-opacity=".593" fill="#fff" d="m112.36 364.56.847 280.18 17.778 10.036 50.794 12.545 33.016 2.51 35.556 2.508 47.408-.836 47.408-5.018 41.482-7.528 15.238-5.854v-281.02l-25.397 5.854-27.09 3.346-59.26 5.018-45.715.836-43.175-2.509-44.022-5.854-35.556-9.2z"/>
    <path stroke="#DDD113" stroke-width="10" fill="none" d="M406.12 363.72v294.4M114.9 349.44v308.69"/>
</svg>
