<svg width="800" height="800" viewBox="0 0 60.601 60.601" xmlns="http://www.w3.org/2000/svg">
    <path d="M57.262 56.902a3.254 3.254 0 0 0 2.825-1.626 3.267 3.267 0 0 0 0-3.262L33.112 5.331a3.25 3.25 0 0 0-5.637 0L.525 52.014a3.236 3.236 0 0 0-.013 3.262 3.254 3.254 0 0 0 2.825 1.626h53.925" style="fill:#ddd113;fill-opacity:1;fill-rule:nonzero;stroke:none"/>
    <path d="M30.3 9.115 5.212 52.552h50.163L30.3 9.115" style="fill:#f2e700;fill-opacity:1;fill-rule:nonzero;stroke:none"/>
    <path d="M36.837 26.968 27 31.918l6.337-15.092-5.737.016-7.013 22.912 10.538-6.432-1.025 11.02-2.888-1.398 3.125 7.895 5.188-6.727-3.225.559 4.537-17.703" style="fill:#ddd0113;fill-opacity:1;fill-rule:nonzero;stroke:none"/>
</svg>
