<?xml version="1.0" encoding="UTF-8" standalone="no"?>
<svg
   xmlns:dc="http://purl.org/dc/elements/1.1/"
   xmlns:cc="http://creativecommons.org/ns#"
   xmlns:rdf="http://www.w3.org/1999/02/22-rdf-syntax-ns#"
   xmlns:svg="http://www.w3.org/2000/svg"
   xmlns="http://www.w3.org/2000/svg"
   xmlns:sodipodi="http://sodipodi.sourceforge.net/DTD/sodipodi-0.dtd"
   xmlns:inkscape="http://www.inkscape.org/namespaces/inkscape"
   version="1.1"
   id="svg2"
   xml:space="preserve"
   width="831.50665"
   height="831.50665"
   viewBox="0 0 831.50665 831.50665"
   sodipodi:docname="cleaningtoilet.eps"><metadata
     id="metadata8"><rdf:RDF><cc:Work
         rdf:about=""><dc:format>image/svg+xml</dc:format><dc:type
           rdf:resource="http://purl.org/dc/dcmitype/StillImage" /></cc:Work></rdf:RDF></metadata><defs
     id="defs6" /><sodipodi:namedview
     pagecolor="#ffffff"
     bordercolor="#666666"
     borderopacity="1"
     objecttolerance="10"
     gridtolerance="10"
     guidetolerance="10"
     inkscape:pageopacity="0"
     inkscape:pageshadow="2"
     inkscape:window-width="640"
     inkscape:window-height="480"
     id="namedview4" /><g
     id="g10"
     inkscape:groupmode="layer"
     inkscape:label="ink_ext_XXXXXX"
     transform="matrix(1.3333333,0,0,-1.3333333,0,831.50667)"><g
       id="g12"
       transform="scale(0.1)"><path
         d="m 3344.79,4298.23 c -26.19,208.63 -221.46,370.72 -458.59,370.72 -235.2,0 -428.84,-159.35 -457.64,-365.38 -298.13,-394.55 -500.53,-1131.09 -500.53,-1814.65 0,-442.12 701.74,-557.38 701.74,-557.38 l 642.81,16.62 c 0,0 571.78,98.64 571.78,540.76 0,669.16 -201.95,1410.01 -499.57,1809.31"
         style="fill:#b72a46;fill-opacity:1;fill-rule:nonzero;stroke:none"
         id="path14" /><path
         d="m 2886.2,4611.88 c -203.58,0 -375.99,-135.9 -401.16,-316.25 -1.33,-9.58 -5.11,-18.71 -10.98,-26.5 -287.89,-380.89 -488.95,-1112.98 -488.95,-1780.21 0,-371.02 588.41,-489.1 648.89,-500.23 l 637.1,16.4 c 13.13,2.97 516.26,95.52 516.26,483.83 0,659.43 -200.76,1389.45 -488.28,1775.24 -5.87,7.87 -9.65,17.14 -10.84,26.94 -23.01,182.87 -195.79,320.78 -402.04,320.78 z M 2629.77,1874.54 c -3.11,0 -6.16,0.29 -9.28,0.74 -30.57,5.05 -749.45,128.69 -749.45,613.64 0,694.1 201.94,1429.75 503.42,1837.44 40,228.81 257.17,399.59 511.74,399.59 257.98,0 475.67,-173.3 513,-405.46 296.13,-406.42 502.16,-1156.4 502.16,-1831.57 0,-387.72 -404.93,-559.98 -619.06,-596.94 l -651.05,-17.37 -1.48,-0.07"
         style="fill:#231f20;fill-opacity:1;fill-rule:nonzero;stroke:none"
         id="path16" /><path
         d="m 3763.02,3453.98 c 0,0 -50.54,47.95 -292.94,177.39 -242.48,129.59 -561.99,87.36 -561.99,87.36 0,0 -319.51,42.23 -561.98,-87.36 -242.25,-129.44 -292.87,-177.39 -292.87,-177.39 0,0 -200.02,-667.14 -125.21,-1218.89 0,0 561.17,-132.78 980.06,-132.78 418.97,0 980.21,132.78 980.21,132.78 74.81,551.75 -125.28,1218.89 -125.28,1218.89"
         style="fill:#52a5e0;fill-opacity:1;fill-rule:nonzero;stroke:none"
         id="path18" /><path
         d="m 1979.77,2281.85 c 132.99,-29.32 583.36,-122.46 928.32,-122.46 344.97,0 795.41,93.14 928.48,122.46 52.84,477.3 -94.63,1036.31 -123.43,1139.19 -24.27,18.1 -95.74,67.09 -269.93,160.08 -134.86,72.07 -297.47,87.21 -410.28,87.21 -69.92,0 -116.89,-6.01 -117.42,-6.08 -4.89,-0.67 -9.87,-0.67 -14.84,0 -0.45,0.07 -47.5,6.08 -117.41,6.08 -112.74,0 -275.35,-15.14 -410.29,-87.21 C 2199.6,3488.5 2127.91,3439.51 2103.04,3420.96 2074.24,3317.94 1926.92,2759 1979.77,2281.85 Z m 928.32,-236.54 c -420.67,0 -969.96,128.77 -993.19,134.27 -22.94,5.42 -40.15,24.41 -43.35,47.79 -75.63,557.61 118.75,1215.26 127.07,1243.02 2.89,9.57 8.16,18.18 15.43,25.01 5.72,5.42 63.16,56.92 305.27,186.29 155.63,83.12 338.21,100.57 463.94,100.57 61.97,0 107.61,-4.23 124.83,-6.16 17.3,1.93 62.94,6.16 124.84,6.16 125.8,0 308.38,-17.45 464.01,-100.57 242.18,-129.37 299.55,-180.87 305.27,-186.29 7.27,-6.9 12.54,-15.51 15.43,-25.01 8.32,-27.76 202.77,-685.41 127.14,-1243.02 -3.19,-23.38 -20.41,-42.37 -43.34,-47.79 -23.23,-5.5 -572.6,-134.27 -993.35,-134.27"
         style="fill:#231f20;fill-opacity:1;fill-rule:nonzero;stroke:none"
         id="path20" /><path
         d="m 2476.06,3680.36 c -40.59,0 -73.55,32.87 -73.55,73.47 0,4.09 -6.68,405.09 -213.52,405.09 h -0.08 c -40.67,0 -73.62,32.88 -73.62,73.47 0,40.6 32.95,73.56 73.62,73.63 h 0.08 c 87.58,0 245.59,-37.92 321.74,-291.61 38.44,-128.62 38.96,-255.23 38.96,-260.5 0,-40.68 -32.95,-73.48 -73.63,-73.55"
         style="fill:#52a5e0;fill-opacity:1;fill-rule:nonzero;stroke:none"
         id="path22" /><path
         d="m 2188.99,4287.02 c -30.14,-0.08 -54.7,-24.57 -54.7,-54.63 0,-30.06 24.49,-54.47 54.62,-54.47 226.22,0 232.6,-419.86 232.6,-424.09 0,-30.06 24.5,-54.4 54.55,-54.4 30.14,0 54.63,24.49 54.63,54.48 0,5.19 -0.45,128.91 -38.15,255.08 -72.66,241.96 -221.39,278.03 -303.55,278.03 z m 287.07,-625.66 v 0 c -50.98,0 -92.54,41.48 -92.54,92.47 0,3.79 -8.32,386.01 -194.53,386.01 -51.14,0 -92.7,41.57 -92.7,92.55 0,50.99 41.56,92.56 92.55,92.7 92.84,0 260.36,-39.7 340.07,-305.18 39.34,-131.52 39.78,-260.58 39.78,-266 0,-50.99 -41.56,-92.48 -92.63,-92.55"
         style="fill:#231f20;fill-opacity:1;fill-rule:nonzero;stroke:none"
         id="path24" /><path
         d="m 3365.65,3718.73 c 40.45,0 73.48,32.88 73.48,73.4 0,4.01 6.68,405.01 213.53,405.01 h 0.07 0.15 c 40.52,0 73.4,32.88 73.47,73.55 0,40.67 -32.87,73.55 -73.47,73.55 h -0.22 c -87.51,0 -245.67,-37.92 -321.67,-291.6 -38.59,-128.47 -38.96,-255.17 -38.96,-260.51 0,-40.52 32.95,-73.4 73.55,-73.4 h 0.07"
         style="fill:#52a5e0;fill-opacity:1;fill-rule:nonzero;stroke:none"
         id="path26" /><path
         d="m 3652.88,4325.24 c -82.39,0 -231.2,-36.07 -303.71,-278.1 -37.7,-125.72 -38.14,-249.74 -38.14,-255.01 0,-29.99 24.41,-54.41 54.55,-54.41 h 0.07 c 29.98,0 54.48,24.42 54.48,54.41 0,4.23 6.38,424.01 232.53,424.01 30.2,0 54.62,24.49 54.69,54.63 0,30.06 -24.42,54.47 -54.47,54.47 z m -287.23,-625.51 c -51.06,0 -92.62,41.49 -92.62,92.4 0,5.42 0.44,134.93 39.78,266 79.56,265.48 247.07,305.11 339.85,305.11 51.21,0 92.77,-41.56 92.77,-92.55 -0.15,-51.06 -41.71,-92.55 -92.55,-92.55 -186.37,0 -194.68,-382.23 -194.68,-386.08 -0.15,-50.84 -41.56,-92.33 -92.55,-92.33"
         style="fill:#231f20;fill-opacity:1;fill-rule:nonzero;stroke:none"
         id="path28" /><path
         d="m 4066.94,1229.43 c -57.36,0 -103.98,46.46 -103.98,103.91 0,57.36 46.62,103.9 103.98,103.9 3.05,0 313.43,1.78 507.73,111.26 161.28,90.99 154.75,320.17 154.6,322.48 -2.15,57.15 42.31,105.46 99.53,107.76 1.41,0.3 3.04,0.3 4.45,0.3 55.15,0 101.16,-43.12 103.54,-98.93 0.74,-14.55 13.65,-358.19 -260.14,-512.63 -242.1,-136.49 -594.86,-138.05 -609.71,-138.05"
         style="fill:#bdbcbc;fill-opacity:1;fill-rule:nonzero;stroke:none"
         id="path30" /><path
         d="m 4833.25,1921.96 c -27.83,-1.18 -48.02,-23 -47.05,-48.83 0.15,-1.41 10.39,-264.89 -183.54,-374.29 -208.11,-117.26 -532.52,-118.6 -535.72,-118.6 -25.9,0 -46.97,-21.08 -46.97,-46.9 0,-25.91 21.07,-46.91 46.97,-46.91 14.26,0 352.54,1.48 581.73,130.7 244.77,138.05 231.34,456.82 231.19,460.08 -1.11,25.31 -21.52,44.75 -46.61,44.75 z m -766.31,-749.61 c -88.76,0 -160.98,72.22 -160.98,160.99 0,88.69 72.22,160.9 160.98,160.9 2.83,0 299.4,2.38 479.75,103.9 129.81,73.19 125.66,268.83 125.58,270.76 -3.26,88.4 65.91,163.28 154.23,166.84 h 0.59 c 92.7,0 162.99,-67.31 166.7,-153.19 0.74,-15.51 16.4,-392.39 -289.08,-564.73 -255.02,-143.76 -622.33,-145.47 -637.77,-145.47"
         style="fill:#231f20;fill-opacity:1;fill-rule:nonzero;stroke:none"
         id="path32" /><path
         d="m 5235.89,1980.15 c 0,-96.26 -78.08,-174.26 -174.19,-174.26 h -457.34 c -96.11,0 -174.12,78 -174.12,174.26 0,96.11 78.01,174.12 174.12,174.12 h 457.34 c 96.11,0 174.19,-78.01 174.19,-174.12"
         style="fill:#bdbcbc;fill-opacity:1;fill-rule:nonzero;stroke:none"
         id="path34" /><path
         d="m 4604.36,2097.27 c -64.57,0 -117.11,-52.55 -117.11,-117.12 0,-64.64 52.54,-117.26 117.11,-117.26 h 457.34 c 64.64,0 117.19,52.62 117.19,117.26 0,64.57 -52.55,117.12 -117.19,117.12 z m 457.34,-348.38 h -457.34 c -127.43,0 -231.11,103.76 -231.11,231.26 0,127.51 103.68,231.19 231.11,231.19 h 457.34 c 127.5,0 231.19,-103.68 231.19,-231.19 0,-127.5 -103.69,-231.26 -231.19,-231.26"
         style="fill:#231f20;fill-opacity:1;fill-rule:nonzero;stroke:none"
         id="path36" /><path
         d="m 5215.18,3460.15 161.8,-1492.24 -832.21,6.38 c -618.4,0 -670.42,422.97 -670.42,422.97 v 1234.41 l 1340.83,-171.52"
         style="fill:#f6f3d7;fill-opacity:1;fill-rule:nonzero;stroke:none"
         id="path38" /><path
         d="M 3931.35,3566.88 V 2397.26 c 1.56,-7.94 56.48,-365.97 613.42,-365.97 l 768.6,-5.94 -149.99,1383.96 z M 5378.83,1910.83 h -2.37 l -832.22,6.46 c -660.62,0 -725.86,468.32 -726.45,472.99 l -0.44,1241.39 c 0,16.4 7.05,31.99 19.37,42.75 12.24,10.91 28.57,15.96 44.9,13.8 L 5222.38,3516.7 c 26.2,-3.34 46.61,-24.19 49.43,-50.39 l 160.24,-1477.99 c 2.45,-6.31 3.78,-13.21 3.78,-20.41 0,-31.55 -25.45,-57.08 -57,-57.08"
         style="fill:#231f20;fill-opacity:1;fill-rule:nonzero;stroke:none"
         id="path40" /><path
         d="M 5726.92,3482.19 V 2267.6 c 0,0 17.52,-299.69 -408.42,-299.69 0,0 -88.85,7.27 -78.08,309.93 10.91,302.67 0,1309.67 0,1309.67 l 486.5,-105.32"
         style="fill:#f6f3d7;fill-opacity:1;fill-rule:nonzero;stroke:none"
         id="path42" /><path
         d="m 5298.16,3516.7 c 2.23,-235.65 8.39,-987.55 -0.74,-1240.86 -6.54,-182.29 24.56,-237.35 35.32,-250.86 128.03,2.15 221.62,33.77 278.4,94.03 61.75,65.39 58.93,144.51 58.93,145.25 l -0.15,1171.99 z m 20.34,-1605.87 c -1.56,0 -3.12,0.15 -4.68,0.22 -43.05,3.57 -141.83,46.62 -130.33,368.87 10.69,297.84 0.07,1296.9 -0.07,1306.99 -0.15,17.37 7.57,33.85 21,44.76 13.44,11.05 31.17,15.29 48.09,11.57 l 486.51,-105.31 c 26.2,-5.64 44.9,-28.95 44.9,-55.74 V 2267.6 c 0.23,-1.86 6.24,-124.98 -89.88,-226.89 -81.27,-86.16 -207.66,-129.88 -375.54,-129.88"
         style="fill:#231f20;fill-opacity:1;fill-rule:nonzero;stroke:none"
         id="path44" /><path
         d="m 5079.58,3398.32 h 668.79 v 368.35 h -668.79 v -368.35"
         style="fill:#f6f3d7;fill-opacity:1;fill-rule:nonzero;stroke:none"
         id="path46" /><path
         d="m 5136.59,3455.32 h 554.78 v 254.35 h -554.78 z m 611.78,-114.07 h -668.79 c -31.46,0 -57,25.53 -57,57.07 v 368.35 c 0,31.54 25.54,57 57,57 h 668.79 c 31.54,0 57,-25.46 57,-57 v -368.35 c 0,-31.54 -25.46,-57.07 -57,-57.07"
         style="fill:#231f20;fill-opacity:1;fill-rule:nonzero;stroke:none"
         id="path48" /><path
         d="m 3780.76,3496.51 1356.42,-98.19 v 368.35 l -1356.42,98.12 v -368.28"
         style="fill:#f6f3d7;fill-opacity:1;fill-rule:nonzero;stroke:none"
         id="path50" /><path
         d="m 3837.83,3549.51 1242.35,-89.96 v 254.13 l -1242.35,89.88 z m 1299.35,-208.26 c -1.34,0 -2.75,0.07 -4.16,0.15 l -1356.35,98.26 c -29.76,2.16 -52.92,26.94 -52.92,56.85 v 368.28 c 0,15.81 6.61,30.95 18.19,41.78 11.58,10.76 26.5,16.48 42.97,15.07 l 1356.42,-98.04 c 29.77,-2.23 52.85,-27.02 52.85,-56.93 v -368.35 c 0,-15.81 -6.53,-30.95 -18.18,-41.78 -10.55,-9.8 -24.5,-15.29 -38.82,-15.29"
         style="fill:#231f20;fill-opacity:1;fill-rule:nonzero;stroke:none"
         id="path52" /><path
         d="m 5542.27,2943.07 c 0,-29.69 -24.13,-53.81 -53.81,-53.81 -29.69,0 -53.96,24.12 -53.96,53.81 v 184.13 c 0,29.69 24.27,53.88 53.96,53.88 29.68,0 53.81,-24.19 53.81,-53.88 v -184.13"
         style="fill:#bdbcbc;fill-opacity:1;fill-rule:nonzero;stroke:none"
         id="path54" /><path
         d="m 5488.46,3162.09 c -19.3,0 -34.89,-15.66 -34.89,-34.89 v -184.13 c 0,-19.23 15.59,-34.81 34.89,-34.81 19.14,0 34.81,15.58 34.81,34.81 v 184.13 c 0,19.23 -15.67,34.89 -34.81,34.89 z m 0,-291.84 c -40.23,0 -72.96,32.66 -72.96,72.82 v 184.13 c 0,40.15 32.73,72.89 72.96,72.89 40.15,0 72.8,-32.74 72.8,-72.89 v -184.13 c 0,-40.16 -32.65,-72.82 -72.8,-72.82"
         style="fill:#231f20;fill-opacity:1;fill-rule:nonzero;stroke:none"
         id="path56" /><path
         d="m 5597.56,3181.08 c 0,-61.08 -49.36,-110.44 -110.22,-110.44 -61.01,0 -110.36,49.36 -110.36,110.44 0,60.94 49.35,110.3 110.36,110.3 60.86,0 110.22,-49.36 110.22,-110.3"
         style="fill:#bdbcbc;fill-opacity:1;fill-rule:nonzero;stroke:none"
         id="path58" /><path
         d="m 5487.34,3272.37 c -50.39,0 -91.36,-40.96 -91.36,-91.29 0,-50.46 40.97,-91.43 91.36,-91.43 50.32,0 91.22,40.97 91.22,91.43 0,50.33 -40.9,91.29 -91.22,91.29 z m 0,-220.8 c -71.4,0 -129.43,58.12 -129.43,129.51 0,71.25 58.03,129.29 129.43,129.29 71.25,0 129.29,-58.04 129.29,-129.29 0,-71.39 -58.04,-129.51 -129.29,-129.51"
         style="fill:#231f20;fill-opacity:1;fill-rule:nonzero;stroke:none"
         id="path60" /><path
         d="m 4756.66,3078.07 c -99.68,-527.47 -448.51,-908.96 -778.78,-852.03 -330.2,56.77 -517.15,530.37 -417.41,1057.76 99.83,527.55 448.58,908.89 778.78,852.11 330.35,-56.85 517.23,-530.44 417.41,-1057.84"
         style="fill:#f6f3d7;fill-opacity:1;fill-rule:nonzero;stroke:none"
         id="path62" /><path
         d="m 4273.34,4084.48 c -282.25,0 -570.81,-356.33 -656.9,-811.22 -59.01,-312.31 -13.29,-624.92 119.34,-816.03 67.91,-97.89 154.97,-158.38 251.75,-175.08 300.51,-51.81 621.43,321.37 713.1,806.46 59.07,312.31 13.43,624.92 -119.13,815.96 -67.98,97.97 -155.11,158.53 -251.9,175.16 -18.7,3.19 -37.48,4.75 -56.26,4.75 z M 4043.79,2163.4 c -25.39,0 -50.77,2.15 -75.56,6.45 -127.65,21.9 -240.39,98.86 -326.12,222.44 -151.69,218.5 -203.13,555.75 -137.67,902.12 97.52,515.46 428.17,904.07 768.9,904.07 25.39,0 50.77,-2.16 75.56,-6.39 127.66,-21.96 240.47,-98.93 326.19,-222.5 151.71,-218.51 203.14,-555.75 137.53,-902.21 -97.45,-515.3 -427.95,-903.98 -768.83,-903.98"
         style="fill:#231f20;fill-opacity:1;fill-rule:nonzero;stroke:none"
         id="path64" /><path
         d="m 2629.77,4259.93 -188.14,216.27 c -17.07,-14.84 -320.7,-284.77 -620.32,-977.16 98.56,-7.2 195.19,-28.36 282.55,-70.73 265.77,595.45 522.42,828.43 525.91,831.62"
         style="fill:#b72a46;fill-opacity:1;fill-rule:nonzero;stroke:none"
         id="path66" /><path
         d="m 1904.88,3546.98 c 60.93,-9.35 117.78,-24.12 170.18,-44.16 201.06,435.82 396.03,671.98 477.08,759.41 l -114.07,131.22 c -88.99,-92.11 -308.9,-350.09 -533.19,-846.47 z m 198.98,-175.67 c -8.61,0 -17.07,1.93 -24.94,5.71 -74.07,35.92 -162.09,57.89 -261.69,65.09 -18.41,1.34 -35.11,11.58 -44.69,27.31 -9.49,15.81 -10.83,35.26 -3.56,52.18 300.22,693.8 601.85,968.56 635.24,997.58 23.68,20.85 59.82,18.18 80.38,-5.57 l 188.14,-216.28 c 20.27,-23.3 18.19,-58.63 -4.6,-79.56 -10.31,-9.42 -255.83,-238.31 -512.26,-812.69 -6.3,-14.1 -18.03,-25.09 -32.5,-30.36 -6.31,-2.3 -12.99,-3.41 -19.52,-3.41"
         style="fill:#231f20;fill-opacity:1;fill-rule:nonzero;stroke:none"
         id="path68" /><path
         d="m 3330.77,4476.2 -188.15,-216.27 c 3.71,-3.34 285.6,-259.1 564.44,-920.31 90.17,39.93 185.54,71.69 253.75,137.37 -302.81,708.87 -612.75,984.22 -630.04,999.21"
         style="fill:#b72a46;fill-opacity:1;fill-rule:nonzero;stroke:none"
         id="path70" /><path
         d="m 3220.18,4262.3 c 86.62,-93.21 301.78,-354.69 516.79,-847.87 56.78,23.9 110.95,46.83 154.67,78.89 -233.34,533.64 -465.28,805.43 -557.24,900.21 z m 486.88,-979.68 c -7.13,0 -14.18,1.34 -21.01,4 -14.17,5.65 -25.53,16.78 -31.47,30.8 -271.64,644 -547.29,897.53 -550.03,900.06 -23.01,20.85 -25.38,56.4 -4.97,79.85 l 188.14,216.28 c 20.63,23.6 56.56,26.27 80.31,5.72 13.5,-11.66 335.47,-294.88 645.18,-1019.99 9.35,-21.75 4.23,-46.99 -12.84,-63.39 -63.16,-60.86 -143.24,-94.63 -220.58,-127.21 -16.62,-6.97 -33.25,-13.95 -49.65,-21.23 -7.35,-3.26 -15.14,-4.89 -23.08,-4.89"
         style="fill:#231f20;fill-opacity:1;fill-rule:nonzero;stroke:none"
         id="path72" /><path
         d="m 2981.05,2463.1 c 8.24,-23.61 -57.22,-64.35 -54.11,-87.95 3.27,-24.72 76.97,-47.43 75.04,-71.03 -2.15,-24.87 -78.6,-34.14 -86.1,-56.78 -7.86,-23.6 46.99,-77.63 33.63,-97.53 -13.66,-20.55 -83.5,10.62 -102.43,-4.37 -18.85,-14.92 -5.04,-90.4 -28.5,-98.64 -23.52,-8.31 -59.82,59.3 -83.86,59.3 -24.2,-0.07 -59.45,-67.98 -82.9,-60.56 -22.71,7.27 -13.66,83.72 -34.52,97.22 -19.89,12.99 -85.5,-27.46 -102.57,-9.35 -16.4,17.22 27.02,80.97 14.25,102.43 -12.24,20.25 -88.98,11.2 -97.3,34.88 -8.24,23.6 57.37,64.35 54.18,87.87 -3.26,24.72 -76.96,47.43 -74.96,71.18 2.15,24.79 78.52,34.14 86.02,56.7 7.87,23.6 -46.98,77.71 -33.62,97.52 13.66,20.41 83.57,-10.61 102.42,4.38 18.86,15.07 5.05,90.55 28.43,98.72 23.6,8.23 59.89,-59.31 83.94,-59.31 24.2,0 59.45,67.91 82.9,60.49 22.71,-7.27 13.66,-83.64 34.51,-97.22 19.9,-12.99 85.5,27.46 102.57,9.42 16.41,-17.29 -27.01,-81.05 -14.17,-102.42 12.17,-20.26 88.91,-11.28 97.15,-34.95"
         style="fill:#e2ad39;fill-opacity:1;fill-rule:nonzero;stroke:none"
         id="path74" /><path
         d="m 2606.32,2164.43 c 8.39,0 15.58,-1.92 21.38,-5.71 17.21,-11.21 20.85,-35.85 24.63,-61.89 1.34,-9.21 3.42,-23.53 6.09,-30.96 6.46,4.61 16.55,15.66 23.08,22.71 17.15,18.78 33.48,36.52 53.22,36.52 19.45,0 35.7,-17.29 52.99,-35.55 6.68,-7.13 17.22,-18.26 23.75,-22.71 2.45,7.57 3.71,22.78 4.45,32.58 2.16,25.09 4.16,48.84 19.3,60.93 12.92,10.17 36.51,8.91 64.27,4.53 11.73,-1.78 25.53,-3.93 32.21,-3.19 -2.52,7.35 -9.79,19.89 -14.54,27.98 -13.21,22.63 -25.83,44.16 -19.3,63.68 6.31,19.07 28.95,28.2 52.84,37.85 9.35,3.86 23.98,9.8 30.43,14.4 -5.49,5.35 -18.11,13.29 -26.12,18.4 -22.64,14.26 -44.09,27.77 -46.91,48.62 -2.67,20.11 14.1,38.22 31.84,57.22 8.17,8.83 21.9,23.53 22.86,29.24 -2.22,-0.37 -22.86,2.68 -34.81,4.46 -25.68,3.78 -49.95,7.35 -60.41,24.71 -10.84,18.04 -2.53,41.94 6.23,67.17 3.12,8.91 7.94,22.78 8.91,30.43 -9.87,-0.6 -21.89,-4.16 -32.66,-7.34 -25.67,-7.73 -50.17,-13.14 -64.94,-3.42 -17.21,11.28 -20.85,35.92 -24.64,61.97 -1.41,9.36 -3.49,23.83 -6.16,31.1 -5.94,-4.38 -16.33,-15.66 -23.01,-22.94 -17.21,-18.77 -33.47,-36.51 -53.21,-36.51 -19.37,0 -35.7,17.3 -52.92,35.55 -6.75,7.2 -17.29,18.33 -23.9,22.79 -2.37,-7.58 -3.63,-22.79 -4.38,-32.44 -2.15,-25.16 -4.08,-48.91 -19.29,-61.08 -12.84,-10.39 -36.44,-8.98 -64.2,-4.67 -11.73,1.85 -25.02,3.93 -32.29,3.26 2.53,-7.42 9.8,-19.82 14.48,-27.83 13.36,-22.79 25.9,-44.24 19.44,-63.83 -6.38,-19 -28.95,-28.2 -52.84,-37.85 -9.43,-3.79 -24.12,-9.8 -30.43,-14.33 5.41,-5.41 18.03,-13.43 26.19,-18.55 22.64,-14.25 43.94,-27.76 46.76,-48.62 2.75,-20.1 -14.1,-38.14 -31.91,-57.14 -8.17,-8.83 -21.9,-23.53 -22.86,-29.24 2.3,0.07 22.86,-2.53 34.81,-4.38 25.75,-3.79 50.02,-7.42 60.49,-24.79 10.83,-18.04 2.52,-41.94 -6.24,-67.17 -3.12,-8.91 -7.94,-22.78 -8.9,-30.43 9.87,0.59 21.89,4.16 32.65,7.35 15.66,4.67 30.43,9.12 43.57,9.12 z m 49.28,-138.41 c -1.93,0 -7.65,0.82 -9.5,1.48 -23.16,7.28 -27.31,36.07 -31.39,63.83 -1.71,11.87 -4.61,31.77 -8.39,36.15 -7.57,-1.04 -20.93,-5.05 -32.66,-8.61 -28.65,-8.46 -58.41,-13.73 -72.73,1.48 -16.33,17.15 -6.9,44.31 2.22,70.51 3.94,11.36 10.55,30.43 9.06,36.07 -2.89,1.33 -21.75,4.15 -33.03,5.79 -28.13,4.16 -57.3,8.53 -65.39,31.69 -8.16,23.23 11.88,44.68 31.25,65.46 7.8,8.39 20.86,22.34 21.97,27.68 -2.15,2.9 -19.22,13.58 -29.31,20.04 -23.53,14.85 -47.8,30.13 -45.72,53.81 2.15,24.65 29.46,35.7 55.88,46.46 10.62,4.23 28.28,11.43 31.62,15.81 -0.52,3.71 -10.61,21.08 -16.7,31.4 -14.18,24.27 -28.8,49.35 -15.29,69.46 10.46,15.67 30.06,15.67 36.52,15.67 10.31,0 22.86,-1.79 35.25,-3.79 16.18,-2.6 35.4,-2.75 35.55,-2.6 1.64,3.19 3.27,22.42 4.16,33.85 2.37,28.94 4.9,58.92 28.95,67.31 2,0.74 8.31,1.78 10.46,1.78 20.04,0 36.74,-17.66 54.4,-36.36 7.79,-8.32 21,-22.27 26.27,-23.75 3.42,1.55 16.48,15.8 24.28,24.34 17.44,18.92 33.84,36.89 53.95,36.89 1.93,0 7.65,-0.9 9.5,-1.41 23.08,-7.43 27.24,-36.15 31.25,-63.91 1.78,-11.87 4.67,-31.84 8.53,-36.14 7.5,0.96 20.86,4.97 32.66,8.53 28.72,8.47 58.33,13.73 72.66,-1.48 16.33,-17.14 6.9,-44.31 -2.15,-70.51 -4.01,-11.35 -10.62,-30.43 -9.13,-36.07 2.82,-1.33 21.74,-4.16 32.95,-5.79 28.2,-4.16 57.37,-8.46 65.46,-31.76 8.09,-23.16 -11.95,-44.61 -31.25,-65.32 -7.79,-8.38 -20.78,-22.41 -21.96,-27.83 2.15,-2.82 19.22,-13.65 29.46,-20.04 23.38,-14.76 47.58,-30.06 45.64,-53.58 -2.15,-24.72 -29.53,-35.85 -55.95,-46.53 -10.55,-4.31 -28.28,-11.51 -31.62,-15.89 0.52,-3.71 10.61,-21 16.62,-31.32 14.18,-24.27 28.95,-49.43 15.29,-69.62 -10.98,-16.4 -38.44,-16.92 -71.62,-11.8 -16.18,2.52 -35.4,2.6 -35.55,2.6 -1.71,-3.19 -3.27,-22.34 -4.23,-33.7 -2.38,-28.94 -4.83,-58.93 -29.02,-67.38 -2,-0.75 -8.31,-1.79 -10.46,-1.79 -20.04,0 -36.67,17.67 -54.34,36.37 -7.79,8.31 -20.92,22.26 -26.27,23.68 -3.41,-1.49 -16.4,-15.81 -24.27,-24.27 -17.37,-19 -33.84,-36.89 -53.88,-36.89"
         style="fill:#231f20;fill-opacity:1;fill-rule:nonzero;stroke:none"
         id="path76" /><path
         d="m 2679.79,2447.43 c -35.47,-12.39 -75.1,4.01 -91.06,38.89 l -522.87,1142.9 c -16.92,36.88 -0.67,80.45 36.22,97.52 37.1,16.92 80.67,0.59 97.52,-36.36 l 522.87,-1142.9 c 16.77,-36.96 0.6,-80.53 -36.37,-97.45 -2,-1.04 -4.08,-1.86 -6.31,-2.6"
         style="fill:#f6f3d7;fill-opacity:1;fill-rule:nonzero;stroke:none"
         id="path78" /><path
         d="m 2132.73,3714.42 c -7.87,0 -15.51,-1.63 -22.71,-4.97 -27.31,-12.62 -39.41,-45.05 -26.94,-72.29 l 522.87,-1142.97 c 11.5,-24.79 41.56,-37.71 67.61,-28.8 l 4.6,1.93 c 27.31,12.54 39.49,44.91 27.02,72.29 l -522.8,1142.82 c -8.9,19.45 -28.42,31.99 -49.65,31.99 z m 522.94,-1290.07 c -36.14,0 -69.17,21.23 -84.23,54.03 l -522.88,1142.97 c -21.15,46.24 -0.74,101.24 45.65,122.61 45.35,20.78 102.12,-0.67 122.68,-45.72 l 522.88,-1142.89 c 21.07,-46.39 0.59,-101.31 -45.72,-122.54 -1.94,-1.04 -4.75,-2.22 -7.8,-3.26 -10.01,-3.5 -20.26,-5.2 -30.58,-5.2"
         style="fill:#231f20;fill-opacity:1;fill-rule:nonzero;stroke:none"
         id="path80" /><path
         d="m 2481.56,3161.12 c -47.13,67.02 -189.48,82.68 -189.48,82.68 -171,184.06 -179.09,338.51 -179.09,338.51 l -392.1,-98.04 C 1864.95,3270 1881.72,3267.7 2119.74,3007.71 l 105.84,-167.51 212.78,26.34 -18.03,192.68 c 17.59,73.4 85.65,67.31 61.23,101.9"
         style="fill:#ec008c;fill-opacity:1;fill-rule:nonzero;stroke:none"
         id="path82" /><path
         d="m 1814.11,3448.79 c 77.85,-111.7 118.08,-154.97 223.99,-268.82 33.7,-36.22 73.85,-79.34 123.65,-133.74 2.3,-2.52 4.38,-5.19 6.16,-8.09 l 86.54,-136.93 122.01,15.14 c -2.74,29.39 -6.83,72.88 -12.84,137.53 -0.67,6.23 -0.14,12.54 1.27,18.62 8.83,36.96 26.72,61.23 43.56,77.71 -34.07,19.52 -87.5,32.95 -122.68,36.96 -13.58,1.48 -26.2,7.87 -35.48,17.81 -115.93,124.84 -162.76,238.84 -181.61,307.49 z m 411.47,-665.59 c -19.45,0 -37.7,9.94 -48.25,26.57 l -103.09,163.21 c -48.01,52.39 -86.83,94.18 -119.56,129.29 -126.47,135.89 -164.54,176.93 -281.07,350.16 -10.39,15.44 -12.61,34.95 -5.93,52.25 6.68,17.37 21.37,30.35 39.4,34.88 l 392.1,98.05 c 16.41,4.15 34.07,0.66 47.72,-9.43 13.66,-10.17 22.12,-25.9 23.01,-42.9 0.08,-0.82 10.69,-130.25 150.52,-287.97 48.61,-8.16 158.83,-33.7 207.81,-103.46 16.33,-23.08 34.81,-68.8 -25.97,-113.7 -11.29,-8.39 -19.37,-14.33 -24.13,-26.64 l 16.92,-181.4 c 2.97,-30.72 -19.07,-58.33 -49.72,-62.12 l -212.79,-26.35 c -2.37,-0.29 -4.67,-0.44 -6.97,-0.44"
         style="fill:#231f20;fill-opacity:1;fill-rule:nonzero;stroke:none"
         id="path84" /><path
         d="m 3399.27,2935.35 c 14.85,-37.78 -3.78,-80.46 -41.56,-95.37 l -282.48,-111.03 c -37.77,-14.7 -80.45,3.85 -95.37,41.7 l -286.48,729.43 c -14.84,37.85 3.78,80.6 41.63,95.52 l 282.33,110.81 c 37.86,14.84 80.53,-3.71 95.37,-41.57 l 286.56,-729.49"
         style="fill:#f6f3d7;fill-opacity:1;fill-rule:nonzero;stroke:none"
         id="path86" /><path
         d="m 3044.28,3692.53 c -6.82,0 -13.58,-1.27 -20.04,-3.79 l -282.25,-110.81 c -28.05,-11.05 -41.93,-42.82 -30.95,-70.88 l 286.48,-729.42 c 10.84,-27.46 43.2,-41.71 70.81,-30.95 l 282.4,110.96 c 28.06,11.06 41.86,42.75 30.88,70.73 l -286.56,729.5 c -8.24,21.08 -28.2,34.66 -50.77,34.66 z m 4.16,-987.63 c -38.3,0 -72.21,23.08 -86.24,58.78 l -286.56,729.49 c -18.63,47.5 4.9,101.39 52.4,120.09 l 282.33,110.89 c 47.13,18.18 101.82,-5.94 120.01,-52.4 l 286.63,-729.43 c 18.63,-47.42 -4.82,-101.3 -52.32,-120.01 l -282.48,-111.03 c -10.84,-4.23 -22.19,-6.38 -33.77,-6.38"
         style="fill:#231f20;fill-opacity:1;fill-rule:nonzero;stroke:none"
         id="path88" /><path
         d="m 2993.3,3667.3 -214.05,-83.95 -77.26,196.83 214.05,84.01 77.26,-196.89"
         style="fill:#486492;fill-opacity:1;fill-rule:nonzero;stroke:none"
         id="path90" /><path
         d="m 2726.63,3769.42 63.31,-161.43 178.72,70.07 -63.39,161.5 z m 52.62,-205.07 c -7.57,0 -14.77,4.53 -17.74,12.03 l -77.19,196.82 c -3.86,9.8 0.97,20.78 10.69,24.64 l 214.05,84.02 c 4.68,1.86 10.02,1.78 14.54,-0.3 4.61,-1.93 8.24,-5.71 10.1,-10.39 l 77.26,-196.9 c 1.86,-4.75 1.78,-9.94 -0.3,-14.62 -2,-4.53 -5.71,-8.24 -10.39,-10.02 l -214.12,-83.95 c -2.3,-0.96 -4.6,-1.33 -6.9,-1.33"
         style="fill:#231f20;fill-opacity:1;fill-rule:nonzero;stroke:none"
         id="path92" /><path
         d="m 2747.63,3664.03 -145.54,-57.15 -37.48,95.37 145.61,57.15 37.41,-95.37"
         style="fill:#486492;fill-opacity:1;fill-rule:nonzero;stroke:none"
         id="path94" /><path
         d="m 2589.25,3691.49 23.6,-59.97 110.22,43.27 -23.61,59.97 z m 12.84,-103.61 c -7.57,0 -14.77,4.6 -17.67,12.1 l -37.48,95.29 c -1.93,4.68 -1.78,9.95 0.23,14.55 2,4.6 5.78,8.24 10.46,10.09 l 145.62,57.15 c 9.8,3.86 20.78,-0.96 24.64,-10.76 l 37.48,-95.29 c 1.86,-4.68 1.71,-9.95 -0.3,-14.55 -2,-4.6 -5.79,-8.24 -10.46,-10.1 l -145.54,-57.15 c -2.31,-0.89 -4.68,-1.33 -6.98,-1.33"
         style="fill:#231f20;fill-opacity:1;fill-rule:nonzero;stroke:none"
         id="path96" /><path
         d="m 3814.9,3546.98 c 0,0 -265.78,-207.36 -437.52,-213.82 l -185.99,213.82 c 0,0 -111.7,-66.42 -48.77,-118.67 31.1,-25.91 -276.38,-140.13 -256.42,-201.58 39.33,-121.12 272.53,-185.55 272.53,-185.55 133.3,-2.82 266.74,126.69 266.74,126.69 211.08,12.47 375.1,-49.87 535.34,2.16 l 172.34,258.28 -318.25,118.67"
         style="fill:#ec008c;fill-opacity:1;fill-rule:nonzero;stroke:none"
         id="path98" /><path
         d="m 2947.8,3228.21 c 35.85,-59.89 155.34,-111.1 218.94,-129.95 87.73,2.15 187.63,80.23 219.1,110.58 9.79,9.43 22.71,15.07 36.29,15.89 90.4,5.27 171.37,-2.31 247.74,-9.51 50.25,-4.74 97.67,-9.27 142.65,-9.27 42.83,0 79.05,4.16 112.37,12.91 l 120.83,181.17 -221.47,82.68 c -75.48,-55.66 -286.49,-200.54 -444.72,-206.48 -17.59,-0.37 -33.92,6.53 -45.13,19.52 l -149.77,172.12 -0.59,-0.75 c 11.13,-13.14 19,-33.17 17.51,-49.05 -4.15,-43.35 -43.04,-64.87 -128.32,-112 -36.52,-20.26 -100.27,-55.59 -125.43,-77.86 z m 215.23,-244.03 h -5.56 c -4.68,0.15 -9.35,0.82 -13.95,2.08 -26.87,7.42 -264.08,76.74 -311.58,222.88 -25.75,79.41 72.44,133.74 186.15,196.6 16.54,9.21 36.51,20.27 52.62,29.77 -3.64,11.58 -4.98,23.67 -4.01,36.07 5.12,65.75 74.36,111.85 95.52,124.39 23.75,14.03 54.1,9.2 72.14,-11.58 l 166.69,-191.64 c 126.62,20.49 313.43,148.3 378.74,199.21 15.74,12.17 36.59,15.36 55,8.46 l 318.25,-118.75 c 16.33,-6.08 29.02,-19.3 34.36,-35.85 5.34,-16.55 2.82,-34.66 -6.83,-49.13 l -172.33,-258.28 c -7.13,-10.69 -17.67,-18.63 -29.76,-22.64 -50.1,-16.25 -102.87,-23.82 -165.96,-23.82 -50.32,0 -100.42,4.82 -153.48,9.8 -66.57,6.31 -135.82,12.91 -210.49,10.16 -42.67,-36.81 -160.68,-127.73 -285.52,-127.73"
         style="fill:#231f20;fill-opacity:1;fill-rule:nonzero;stroke:none"
         id="path100" /><path
         d="m 3987.75,4816.42 c -44.31,0 -86.53,-8.98 -125.05,-25.08 -28.06,139.08 -47.36,500.45 -228.75,753.17 -337.54,470.4 -725.86,296.36 -725.86,296.36 0,0 -388.31,174.04 -725.86,-296.36 -181.24,-252.72 -200.68,-614.09 -228.67,-753.17 -38.52,16.1 -80.74,25.08 -124.98,25.08 -179.68,0 -325.6,-145.84 -325.6,-325.52 0,-179.76 145.92,-325.52 325.6,-325.52 16.25,0 103.31,-156.16 486.8,-104.8 181.54,24.42 1060.44,16.85 1185.43,0 383.63,-51.36 470.62,104.8 486.94,104.8 179.69,0 325.38,145.76 325.38,325.52 0,179.68 -145.69,325.52 -325.38,325.52"
         style="fill:#462e28;fill-opacity:1;fill-rule:nonzero;stroke:none"
         id="path102" /><path
         d="m 2859.48,4133.16 c 256.57,0 571.11,-5.64 648.89,-16.03 48.92,-6.53 95.3,-9.94 137.98,-9.94 190.07,0 261.69,65.09 288.64,89.66 12.53,11.35 28.05,25.52 52.76,25.52 148,0 268.38,120.46 268.38,268.53 0,148.07 -120.38,268.45 -268.38,268.45 -35.62,0 -70.28,-6.9 -103.16,-20.63 -15.66,-6.46 -33.62,-5.79 -48.61,2.3 -15.15,7.94 -25.83,22.33 -29.25,39.03 -5.34,26.95 -10.46,61.9 -16.47,102.72 -23.68,162.54 -63.38,434.48 -202.55,628.41 -308,429.14 -655.13,278.18 -656.53,277.51 -14.7,-6.46 -31.7,-6.39 -46.32,0.15 -0.96,0.45 -348.53,151.48 -656.32,-277.58 -139.23,-194.08 -178.86,-466.17 -202.61,-628.78 -5.94,-40.67 -11.06,-75.48 -16.48,-102.35 -3.34,-16.78 -14.03,-31.1 -29.09,-39.11 -15.14,-8.09 -33.1,-8.76 -48.69,-2.3 -32.88,13.73 -67.54,20.63 -103.09,20.63 -148.07,0 -268.52,-120.38 -268.52,-268.45 0,-148.07 120.45,-268.53 268.52,-268.53 24.64,0 40.16,-14.17 52.62,-25.45 26.94,-24.57 98.57,-89.73 288.71,-89.73 42.6,0 88.99,3.41 137.9,9.94 107.99,14.48 421.78,16.03 551.67,16.03 z m 786.87,-139.97 v 0 c -47.73,0 -99.24,3.71 -153.12,10.91 -61.9,8.31 -346.15,15.07 -633.75,15.07 -265.71,0 -466.32,-5.57 -536.45,-15.07 -53.96,-7.2 -105.47,-10.91 -153.12,-10.91 -225.92,0 -322.55,80.67 -361.37,115.63 -201.65,10.47 -362.56,177.83 -362.56,382.08 0,210.93 171.67,382.52 382.6,382.52 26.94,0 53.51,-2.82 79.56,-8.39 1.56,10.77 3.19,22.12 4.98,33.93 25.23,172.85 67.39,462.16 222.88,678.73 317.13,442.04 678.2,355.43 772.09,323.96 93.67,31.62 454.82,118.3 772.17,-323.96 155.42,-216.5 197.65,-505.66 222.81,-678.44 1.78,-11.95 3.41,-23.38 5.05,-34.22 26.05,5.57 52.69,8.39 79.63,8.39 210.86,0 382.38,-171.59 382.38,-382.52 0,-204.25 -160.83,-371.61 -362.41,-382.08 -46.17,-40.89 -143.91,-115.63 -361.37,-115.63"
         style="fill:#231f20;fill-opacity:1;fill-rule:nonzero;stroke:none"
         id="path104" /><path
         d="m 1797.33,4269.73 c -133.81,0 -242.69,108.87 -242.69,242.77 0,111.25 90.55,201.8 201.8,201.8 93.14,0 168.99,-75.85 168.99,-169.08 0,-78.74 -64.04,-142.79 -142.79,-142.79 -67.17,0 -121.8,54.63 -121.8,121.87 0,20.92 17,38 38.01,38 20.93,0 37.92,-17.08 37.92,-38 0,-25.31 20.56,-45.87 45.87,-45.87 36.81,0 66.87,29.98 66.87,66.79 0,51.37 -41.79,93.08 -93.07,93.08 -69.39,0 -125.8,-56.41 -125.8,-125.8 0,-91.96 74.74,-166.77 166.69,-166.77 120.17,0 217.91,97.82 217.91,217.9 0,21.01 17,38 38,38 20.93,0 38,-16.99 38,-38 0,-162.02 -131.88,-293.9 -293.91,-293.9"
         style="fill:#231f20;fill-opacity:1;fill-rule:nonzero;stroke:none"
         id="path106" /><path
         d="m 4018.93,4269.73 c -162.03,0 -293.91,131.88 -293.91,293.9 0,21.01 17.07,38 38,38 21,0 38,-16.99 38,-38 0,-120.08 97.74,-217.9 217.91,-217.9 91.88,0 166.62,74.81 166.62,166.77 0,69.39 -56.41,125.8 -125.73,125.8 -51.28,0 -93,-41.71 -93,-93.08 0,-36.81 29.91,-66.79 66.72,-66.79 25.31,0 45.95,20.56 45.95,45.87 0,20.92 16.99,38 38,38 20.93,0 38,-17.08 38,-38 0,-67.24 -54.7,-121.87 -121.95,-121.87 -78.67,0 -142.71,64.05 -142.71,142.79 0,93.23 75.84,169.08 168.99,169.08 111.25,0 201.73,-90.55 201.73,-201.8 0,-133.9 -108.81,-242.77 -242.62,-242.77"
         style="fill:#231f20;fill-opacity:1;fill-rule:nonzero;stroke:none"
         id="path108" /><path
         d="m 3635.21,4869.04 c 0,0 100.64,94.04 170.56,72.14 70.06,-21.81 170.7,-110.58 183.84,-212.78 13.13,-102.28 8.68,-207.96 -131.22,-251.46 -140.05,-43.34 -179.46,26.65 -179.46,26.65 l -43.72,365.45"
         style="fill:#e5b996;fill-opacity:1;fill-rule:nonzero;stroke:none"
         id="path110" /><path
         d="m 3733.33,4528.75 c 11.73,-6.53 54.03,-14.03 108.21,2.67 84.39,26.2 106.65,72.29 91.51,189.7 -9.79,76.75 -92.03,149.41 -144.2,165.66 h -1.12 c -27.83,0 -64.94,-21 -92.25,-41.56 z m 41.79,-122.91 c -103.54,0 -141.83,62.65 -145.84,69.84 -3.71,6.46 -6.09,13.73 -6.91,21.16 l -43.71,365.45 c -2.23,18.03 4.38,36 17.66,48.39 16.26,15.14 101.46,90.84 186.81,90.84 13.81,0 27.17,-2 39.63,-5.93 95.23,-29.69 207.67,-137.53 223.4,-259.92 8.76,-68.43 32.14,-250.04 -170.85,-313.13 -35.92,-11.13 -69.62,-16.7 -100.19,-16.7"
         style="fill:#231f20;fill-opacity:1;fill-rule:nonzero;stroke:none"
         id="path112" /><path
         d="m 2180.97,4869.04 c 0,0 -100.56,94.04 -170.63,72.14 -70.06,-21.81 -170.55,-110.58 -183.76,-212.78 -13.14,-102.28 -8.76,-207.96 131.29,-251.46 140.05,-43.34 179.39,26.65 179.39,26.65 l 43.71,365.45"
         style="fill:#e5b996;fill-opacity:1;fill-rule:nonzero;stroke:none"
         id="path114" /><path
         d="m 2033.05,4887.52 c -57.89,-16.99 -139.97,-89.65 -149.92,-166.47 -15.06,-117.34 7.2,-163.43 91.66,-189.63 53.44,-16.47 95.22,-10.09 108.14,-2.15 l 37.78,315.88 c -27.61,20.92 -64.35,42.37 -87.66,42.37 z m 8.09,-481.68 v 0 c -30.57,0 -64.27,5.57 -100.12,16.7 -203.06,63.02 -179.76,244.7 -171,313.06 15.88,122.61 128.25,230.37 223.32,259.99 12.55,3.93 25.91,5.93 39.71,5.93 85.35,0 170.63,-75.7 186.81,-90.84 13.29,-12.39 19.89,-30.36 17.66,-48.39 l -43.63,-365.45 c -0.9,-7.43 -3.27,-14.62 -6.91,-21.16 -4.01,-7.12 -42.3,-69.84 -145.84,-69.84"
         style="fill:#231f20;fill-opacity:1;fill-rule:nonzero;stroke:none"
         id="path116" /><path
         d="m 3707.58,4945.93 c -169.29,311.58 -515.9,534.23 -799.49,534.23 -283.59,0 -630.12,-222.65 -799.48,-534.23 -220.66,-406.05 -133.08,-585.73 149.62,-840.6 199.21,-179.31 484.58,-196.9 649.86,-196.9 165.44,0 450.73,17.59 649.86,196.9 282.78,254.87 370.2,434.55 149.63,840.6"
         style="fill:#f2dac9;fill-opacity:1;fill-rule:nonzero;stroke:none"
         id="path118" /><path
         d="m 2908.09,5423.16 c -270.9,0 -593.08,-216.87 -749.31,-504.46 -200.39,-368.57 -138.12,-522.43 137.6,-770.99 136.19,-122.61 336.29,-182.28 611.71,-182.28 275.5,0 475.52,59.67 611.71,182.28 275.73,248.49 337.92,402.34 137.68,770.99 -156.23,287.59 -478.41,504.46 -749.39,504.46 z m 0,-1571.73 c -304.89,0 -529.92,69.24 -688.01,211.52 -298.36,269.05 -398.7,473.89 -161.5,910.22 174.72,321.52 539.95,563.99 849.51,563.99 309.64,0 674.87,-242.47 849.59,-563.99 237.05,-436.48 136.78,-641.25 -161.58,-910.22 -158.09,-142.28 -383.12,-211.52 -688.01,-211.52"
         style="fill:#231f20;fill-opacity:1;fill-rule:nonzero;stroke:none"
         id="path120" /><path
         d="m 2553.4,4364.28 c 0,-120.75 -97.82,-218.57 -218.5,-218.57 -120.75,0 -218.65,97.82 -218.65,218.57 0,120.68 97.9,218.58 218.65,218.58 120.68,0 218.5,-97.9 218.5,-218.58"
         style="fill:#e2ae9f;fill-opacity:1;fill-rule:nonzero;stroke:none"
         id="path122" /><path
         d="m 2530.54,4584.27 c 0,-50.92 -41.19,-92.18 -92.18,-92.18 -50.91,0 -92.25,41.26 -92.25,92.18 0,50.98 41.34,92.18 92.25,92.18 50.99,0 92.18,-41.2 92.18,-92.18"
         style="fill:#231f20;fill-opacity:1;fill-rule:nonzero;stroke:none"
         id="path124" /><path
         d="m 3262.86,4364.28 c 0,-120.75 97.82,-218.57 218.5,-218.57 120.75,0 218.64,97.82 218.64,218.57 0,120.68 -97.89,218.58 -218.64,218.58 -120.68,0 -218.5,-97.9 -218.5,-218.58"
         style="fill:#e2ae9f;fill-opacity:1;fill-rule:nonzero;stroke:none"
         id="path126" /><path
         d="m 3285.64,4584.27 c 0,-50.92 41.34,-92.18 92.18,-92.18 50.92,0 92.26,41.26 92.26,92.18 0,50.98 -41.34,92.18 -92.26,92.18 -50.84,0 -92.18,-41.2 -92.18,-92.18"
         style="fill:#231f20;fill-opacity:1;fill-rule:nonzero;stroke:none"
         id="path128" /><path
         d="m 3004.8,4372.96 c -32.43,41.35 -96.26,156.68 -96.26,156.68 0,0 -55.74,-110.81 -96.34,-156.68 -35.18,-40.07 -20.11,-68.35 0,-82.53 27.46,-19.29 159.87,-22.63 192.6,0 20.41,13.88 32.95,40.45 0,82.53"
         style="fill:#e5b996;fill-opacity:1;fill-rule:nonzero;stroke:none"
         id="path130" /><path
         d="m 2901.64,4011.59 c -397,0 -526.14,230.97 -531.48,240.77 -15,27.76 -4.61,62.34 23.08,77.26 27.76,14.99 62.34,4.6 77.26,-23.08 3.93,-6.98 105.98,-180.87 431.14,-180.87 329.9,0 430.24,179.01 431.28,180.87 15,27.68 49.65,37.92 77.19,23.08 27.76,-14.92 38.07,-49.5 23.16,-77.19 -5.35,-9.87 -134.42,-240.84 -531.63,-240.84"
         style="fill:#231f20;fill-opacity:1;fill-rule:nonzero;stroke:none"
         id="path132" /><path
         d="m 3254.25,5344.19 c 0,-191.19 -155.05,-346.08 -346.16,-346.08 -191.11,0 -346.08,154.89 -346.08,346.08 0,191.27 154.97,346.16 346.08,346.16 191.11,0 346.16,-154.89 346.16,-346.16"
         style="fill:#462e28;fill-opacity:1;fill-rule:nonzero;stroke:none"
         id="path134" /><path
         d="m 2908.09,5633.35 c -159.34,0 -289.08,-129.66 -289.08,-289.16 0,-159.42 129.74,-289.08 289.08,-289.08 159.42,0 289.08,129.66 289.08,289.08 0,159.5 -129.66,289.16 -289.08,289.16 z m 0,-692.24 c -222.28,0 -403.08,180.79 -403.08,403.08 0,222.29 180.8,403.16 403.08,403.16 222.29,0 403.16,-180.87 403.16,-403.16 0,-222.29 -180.87,-403.08 -403.16,-403.08"
         style="fill:#231f20;fill-opacity:1;fill-rule:nonzero;stroke:none"
         id="path136" /><path
         d="m 2876.7,5094.44 c -159.8,0 -289.75,130.04 -289.75,289.83 0,131.89 107.39,239.21 239.35,239.21 109.77,0 199.13,-89.29 199.13,-199.13 0,-92.03 -74.88,-166.84 -166.84,-166.84 -77.86,0 -141.16,63.3 -141.16,141.23 0,66.43 54.03,120.39 120.45,120.39 57.37,0 104.13,-46.54 104.13,-103.84 0,-21 -17.07,-37.99 -38,-37.99 -21,0 -38,16.99 -38,37.99 0,15.37 -12.62,27.84 -28.13,27.84 -24.49,0 -44.46,-19.9 -44.46,-44.39 0,-35.99 29.17,-65.23 65.17,-65.23 50.1,0 90.84,40.74 90.84,90.84 0,67.91 -55.22,123.2 -123.13,123.2 -90.1,0 -163.35,-73.25 -163.35,-163.28 0,-117.86 95.81,-213.83 213.75,-213.83 152.52,0 276.68,124.18 276.68,276.7 0,20.92 17,37.99 38.01,37.99 20.92,0 37.92,-17.07 37.92,-37.99 0,-194.46 -158.16,-352.7 -352.61,-352.7"
         style="fill:#231f20;fill-opacity:1;fill-rule:nonzero;stroke:none"
         id="path138" /><path
         d="m 3490.56,784.859 c -108.21,16.481 -230.08,25.981 -359.44,25.981 -129.44,0 -251.38,-9.5 -359.59,-25.981 L 2329.18,689.93 V 568.441 c 0,0 359.08,-159.058 801.94,-159.058 442.86,0 801.86,159.058 801.86,159.058 V 689.93 l -442.42,94.929"
         style="fill:#f6f3d7;fill-opacity:1;fill-rule:nonzero;stroke:none"
         id="path140" /><path
         d="m 2386.19,606.883 c 97.97,-37.781 396.62,-140.492 744.93,-140.492 349.2,0 647.11,102.64 744.86,140.422 v 37.109 l -397.37,85.269 c -214.27,32.289 -477.67,32.961 -698.55,-0.66 l -393.87,-84.609 z m 744.93,-254.5 c -449.77,0 -809.87,157.277 -825.02,164.027 -20.55,9.051 -33.91,29.543 -33.91,52.031 V 689.93 c 0,26.871 18.77,50.101 45.05,55.742 l 442.27,94.93 c 239.13,36.589 507.43,35.918 739.66,0.66 l 445.76,-95.59 c 26.27,-5.641 45.05,-28.871 45.05,-55.742 V 568.441 c 0,-22.488 -13.29,-42.98 -33.92,-52.031 C 3941,509.66 3580.88,352.383 3131.12,352.383"
         style="fill:#231f20;fill-opacity:1;fill-rule:nonzero;stroke:none"
         id="path142" /><path
         d="m 4153.33,2157.24 c 0,0 41.71,-639.17 -110.73,-878.53 -152.44,-239.35 -250.86,-406.8 -250.86,-406.8 V 689.93 c 0,0 -158.75,-121.719 -660.62,-121.719 -501.94,0 -660.62,121.719 -660.62,121.719 v 181.98 c 0,0 -98.49,167.45 -251.01,406.8 -152.44,239.36 -110.81,878.53 -110.81,878.53 h 2044.65"
         style="fill:#f6f3d7;fill-opacity:1;fill-rule:nonzero;stroke:none"
         id="path144" /><path
         d="m 2527.5,722.59 c 57.52,-28.949 232.82,-97.367 603.62,-97.367 370.13,0 545.51,68.199 603.62,97.449 V 871.91 c 0,10.18 2.75,20.121 7.87,28.883 0.96,1.629 100.64,171.077 251.9,408.497 106.43,167.14 112.96,586.92 104.72,790.94 H 2162.79 c -8.09,-204.1 -1.49,-624.02 104.79,-790.94 151.26,-237.42 251.09,-406.868 252.05,-408.497 5.12,-8.762 7.87,-18.703 7.87,-28.883 z m 603.62,-211.379 c -515.3,0 -688.23,128.109 -695.28,133.531 -14.1,10.828 -22.34,27.531 -22.34,45.188 v 166.332 c -26.2,44.078 -116.08,194.078 -242.03,391.798 -160.68,252.19 -121.42,886.02 -119.64,912.89 1.93,29.91 26.79,53.29 56.85,53.29 h 2044.65 c 30.14,0 54.93,-23.38 56.93,-53.29 1.71,-26.87 41.04,-660.7 -119.57,-912.89 C 3964.75,1050.34 3874.94,900.34 3848.74,856.262 V 689.93 c 0,-17.657 -8.24,-34.43 -22.27,-45.188 -7.19,-5.5 -180.12,-133.531 -695.35,-133.531"
         style="fill:#231f20;fill-opacity:1;fill-rule:nonzero;stroke:none"
         id="path146" /><path
         d="m 4298.06,2157.24 c 0,-98.49 -79.86,-178.5 -178.42,-178.5 H 2142.45 c -98.56,0 -178.42,80.01 -178.42,178.5 0,98.63 79.86,178.49 178.42,178.49 h 1977.19 c 98.56,0 178.42,-79.86 178.42,-178.49"
         style="fill:#f6f3d7;fill-opacity:1;fill-rule:nonzero;stroke:none"
         id="path148" /><path
         d="m 2142.45,2278.73 c -66.94,0 -121.42,-54.47 -121.42,-121.49 0,-67.02 54.48,-121.5 121.42,-121.5 h 1977.19 c 66.95,0 121.42,54.48 121.42,121.5 0,67.02 -54.47,121.49 -121.42,121.49 z M 4119.64,1921.74 H 2142.45 c -129.81,0 -235.42,105.61 -235.42,235.5 0,129.88 105.61,235.49 235.42,235.49 h 1977.19 c 129.81,0 235.42,-105.61 235.42,-235.49 0,-129.89 -105.61,-235.5 -235.42,-235.5"
         style="fill:#231f20;fill-opacity:1;fill-rule:nonzero;stroke:none"
         id="path150" /><path
         d="M 2001.44,812.543 H 999.926 V 1229.28 H 2001.44 V 812.543"
         style="fill:#9aa9b1;fill-opacity:1;fill-rule:nonzero;stroke:none"
         id="path152" /><path
         d="m 1019,831.543 h 963.44 V 1210.28 H 1019 Z m 982.44,-38.07 H 999.926 c -10.465,0 -19,8.527 -19,19.07 v 416.737 c 0,10.54 8.535,19 19,19 H 2001.44 c 10.46,0 18.99,-8.46 18.99,-19 V 812.543 c 0,-10.543 -8.53,-19.07 -18.99,-19.07"
         style="fill:#231f20;fill-opacity:1;fill-rule:nonzero;stroke:none"
         id="path154" /><path
         d="M 2001.44,1229.28 H 999.926 l 147.104,133.44 h 780.78 l 73.63,-133.44"
         style="fill:#9aa9b1;fill-opacity:1;fill-rule:nonzero;stroke:none"
         id="path156" /><path
         d="m 1049.21,1248.28 h 920.01 l -52.69,95.45 h -762.15 z m 953.19,-38 H 999.926 c -7.793,0 -14.844,4.9 -17.66,12.17 -2.825,7.28 -0.895,15.67 4.894,20.93 l 147.1,133.45 c 3.49,3.19 8.02,4.97 12.77,4.97 h 780.78 c 6.9,0 13.29,-3.78 16.63,-9.87 l 71.17,-128.99 c 3.56,-3.42 5.79,-8.32 5.79,-13.66 0,-10.46 -8.53,-19 -19,-19"
         style="fill:#231f20;fill-opacity:1;fill-rule:nonzero;stroke:none"
         id="path158" /><path
         d="m 1896.49,1665.09 h -822.94 v -302.37 h 822.94 v 302.37"
         style="fill:#8496d4;fill-opacity:1;fill-rule:nonzero;stroke:none"
         id="path160" /><path
         d="m 1092.55,1381.8 h 784.94 v 264.22 h -784.94 z m 803.94,-38.07 h -822.94 c -10.46,0 -18.99,8.53 -18.99,18.99 v 302.37 c 0,10.47 8.53,19 18.99,19 h 822.94 c 10.47,0 19,-8.53 19,-19 v -302.37 c 0,-10.46 -8.53,-18.99 -19,-18.99"
         style="fill:#231f20;fill-opacity:1;fill-rule:nonzero;stroke:none"
         id="path162" /><path
         d="m 1592.64,1229.28 c 0,0 -421.04,307.41 -592.714,331.91 0,0 -110.363,-70.14 -343.336,-47.28 -232.895,22.86 -281.957,47.28 -281.957,47.28 0,0 269.637,-53.66 416.89,-198.47 C 938.621,1218 1073.55,1229.28 1073.55,1229.28 h 519.09"
         style="fill:#f6f3d7;fill-opacity:1;fill-rule:nonzero;stroke:none"
         id="path164" /><path
         d="m 619.707,1498.55 c 65.086,-30.43 132.699,-70.66 185.102,-122.24 120.898,-118.98 230.821,-128.25 261.691,-128.25 l 5.57,0.14 461.05,0.08 c -113.12,79.12 -395.52,269.27 -529.56,293.09 -23.15,-12.54 -106.872,-51.06 -256.349,-51.06 -29.762,0 -60.934,1.56 -92.477,4.67 -11.949,1.19 -23.597,2.38 -35.027,3.57 z M 1066.5,1210.13 c -34.51,0 -157.195,9.95 -288.336,139.09 -95.742,94.18 -247.672,149.03 -330.348,173.52 -60.859,11.65 -79.711,20.48 -81.64,21.45 -8.461,4.23 -12.543,14.1 -9.504,23.15 3.117,8.99 12.246,14.18 21.672,12.47 1.336,-0.22 31.914,-6.38 78.453,-20.03 52.098,-9.88 119.933,-18.93 201.648,-26.95 30.356,-2.97 60.192,-4.52 88.766,-4.52 162.391,0 241.879,48.46 242.621,48.99 3.785,2.37 8.461,3.4 12.848,2.66 174.26,-24.86 583.87,-322.63 601.17,-335.32 6.68,-4.82 9.42,-13.43 6.82,-21.22 -2.52,-7.87 -9.79,-13.14 -18.03,-13.14 h -518.71 c -0.23,-0.07 -3.05,-0.15 -7.43,-0.15"
         style="fill:#231f20;fill-opacity:1;fill-rule:nonzero;stroke:none"
         id="path166" /></g></g></svg>
