<?xml version="1.0" encoding="UTF-8" standalone="no"?>
<svg
   xmlns:dc="http://purl.org/dc/elements/1.1/"
   xmlns:cc="http://creativecommons.org/ns#"
   xmlns:rdf="http://www.w3.org/1999/02/22-rdf-syntax-ns#"
   xmlns:svg="http://www.w3.org/2000/svg"
   xmlns="http://www.w3.org/2000/svg"
   xmlns:sodipodi="http://sodipodi.sourceforge.net/DTD/sodipodi-0.dtd"
   xmlns:inkscape="http://www.inkscape.org/namespaces/inkscape"
   width="43.022301mm"
   height="37.767464mm"
   viewBox="0 0 43.022301 37.767464"
   version="1.1"
   id="svg6923"
   inkscape:version="1.0.1 (3bc2e813f5, 2020-09-07)"
   sodipodi:docname="ico_maint.svg">
  <defs
     id="defs6917">
    <filter
       height="1.1061696"
       y="-0.053084776"
       width="1.1203138"
       x="-0.060156886"
       id="filter2659"
       style="color-interpolation-filters:sRGB"
       inkscape:collect="always">
      <feGaussianBlur
         id="feGaussianBlur2661"
         stdDeviation="0.76209677"
         inkscape:collect="always" />
    </filter>
  </defs>
  <sodipodi:namedview
     id="base"
     pagecolor="#ffffff"
     bordercolor="#666666"
     borderopacity="1.0"
     inkscape:pageopacity="0.0"
     inkscape:pageshadow="2"
     inkscape:zoom="0.35"
     inkscape:cx="109.87342"
     inkscape:cy="277.08588"
     inkscape:document-units="mm"
     inkscape:current-layer="layer1"
     inkscape:document-rotation="0"
     showgrid="false"
     fit-margin-top="0"
     fit-margin-left="0"
     fit-margin-right="0"
     fit-margin-bottom="0"
     inkscape:window-width="1438"
     inkscape:window-height="1040"
     inkscape:window-x="130"
     inkscape:window-y="0"
     inkscape:window-maximized="0" />
  <metadata
     id="metadata6920">
    <rdf:RDF>
      <cc:Work
         rdf:about="">
        <dc:format>image/svg+xml</dc:format>
        <dc:type
           rdf:resource="http://purl.org/dc/dcmitype/StillImage" />
        <dc:title></dc:title>
      </cc:Work>
    </rdf:RDF>
  </metadata>
  <g
     inkscape:label="Calque 1"
     inkscape:groupmode="layer"
     id="layer1"
     transform="translate(-76.762657,-74.85436)">
    <g
       id="g1428"
       transform="translate(-208.48959,218.61924)"
       inkscape:export-filename="N:\temp\@ico_maint.png"
       inkscape:export-xdpi="18.831024"
       inkscape:export-ydpi="18.831024">
      <path
         sodipodi:type="star"
         style="vector-effect:none;fill:#ffffff;fill-opacity:1;fill-rule:nonzero;stroke:#ff0000;stroke-width:3.79929;stroke-linecap:round;stroke-linejoin:round;stroke-miterlimit:4;stroke-dasharray:none;stroke-dashoffset:0;stroke-opacity:1;paint-order:fill markers stroke"
         id="path1334"
         sodipodi:sides="3"
         sodipodi:cx="306.7634"
         sodipodi:cy="-119.21985"
         sodipodi:r1="22.645576"
         sodipodi:r2="11.322788"
         sodipodi:arg1="0.52359878"
         sodipodi:arg2="1.5707963"
         inkscape:flatsided="true"
         inkscape:rounded="0"
         inkscape:randomized="0"
         inkscape:transform-center-x="5.4312905e-06"
         inkscape:transform-center-y="-5.6660081"
         d="m 326.37504,-107.89706 -39.22329,0 19.61165,-33.96837 z" />
      <path
         inkscape:transform-center-y="-4.1249049"
         inkscape:randomized="0"
         inkscape:rounded="0"
         inkscape:flatsided="true"
         sodipodi:arg2="1.5707963"
         sodipodi:arg1="0.52359878"
         sodipodi:r2="8.2430906"
         sodipodi:r1="16.486181"
         sodipodi:cy="-119.21985"
         sodipodi:cx="306.7634"
         sodipodi:sides="3"
         id="path1336"
         style="vector-effect:none;fill:#f6ff31;fill-opacity:1;fill-rule:nonzero;stroke:none;stroke-width:2.76592;stroke-linecap:round;stroke-linejoin:round;stroke-miterlimit:4;stroke-dasharray:none;stroke-dashoffset:0;stroke-opacity:1;paint-order:fill markers stroke"
         sodipodi:type="star"
         inkscape:transform-center-x="3.888878e-06"
         d="m 321.04085,-110.97676 -28.5549,0 14.27745,-24.72927 z" />
      <path
         style="color:#000000;font-style:normal;font-variant:normal;font-weight:normal;font-stretch:normal;font-size:medium;line-height:normal;font-family:sans-serif;font-variant-ligatures:normal;font-variant-position:normal;font-variant-caps:normal;font-variant-numeric:normal;font-variant-alternates:normal;font-variant-east-asian:normal;font-feature-settings:normal;font-variation-settings:normal;text-indent:0;text-align:start;text-decoration:none;text-decoration-line:none;text-decoration-style:solid;text-decoration-color:#000000;letter-spacing:normal;word-spacing:normal;text-transform:none;writing-mode:lr-tb;direction:ltr;text-orientation:mixed;dominant-baseline:auto;baseline-shift:baseline;text-anchor:start;white-space:normal;shape-padding:0;shape-margin:0;inline-size:0;clip-rule:nonzero;display:inline;overflow:visible;visibility:visible;opacity:0.45;isolation:auto;mix-blend-mode:normal;color-interpolation:sRGB;color-interpolation-filters:linearRGB;solid-color:#000000;solid-opacity:1;vector-effect:none;fill:#000000;fill-opacity:1;fill-rule:nonzero;stroke:none;stroke-width:2.85067;stroke-linecap:round;stroke-linejoin:round;stroke-miterlimit:4;stroke-dasharray:none;stroke-dashoffset:0;stroke-opacity:1;paint-order:fill markers stroke;filter:url(#filter2659);color-rendering:auto;image-rendering:auto;shape-rendering:auto;text-rendering:auto;enable-background:accumulate;stop-color:#000000;stop-opacity:1"
         d="m 309.1695,-131.90538 a 1.311567,1.311567 0 0 0 -0.96967,0.38533 l -6.45319,6.45319 a 1.311567,1.311567 0 0 0 -0.34088,1.2682 l 0.91675,3.4235 -8.84138,8.84139 a 1.311567,1.311567 0 0 0 -0.20961,0.271 l -0.88498,1.53284 a 1.311567,1.311567 0 0 0 1.13693,1.96687 h 11.17665 a 1.311567,1.311567 0 0 0 0.92732,-0.38321 l 4.46304,-4.46304 3.42349,0.91674 a 1.311567,1.311567 0 0 0 1.26609,-0.33875 l 6.45531,-6.45531 a 1.311567,1.311567 0 0 0 0.33875,-1.26607 l -1.21103,-4.52233 a 1.311567,1.311567 0 0 0 -2.19553,-0.58858 l -0.4806,0.48061 -0.56317,-2.10026 a 1.311567,1.311567 0 0 0 -0.92733,-0.9252 l -2.10237,-0.56319 0.48272,-0.48271 a 1.311567,1.311567 0 0 0 -0.58646,-2.19341 l -4.52444,-1.21315 a 1.311567,1.311567 0 0 0 -0.29641,-0.0444 z"
         id="path1401" />
      <path
         id="path1389"
         d="m 308.23406,-133.9099 a 1.311567,1.311567 0 0 0 -0.96967,0.38533 l -6.45319,6.45319 a 1.311567,1.311567 0 0 0 -0.34088,1.2682 l 0.91675,3.4235 -8.84138,8.84139 a 1.311567,1.311567 0 0 0 -0.20961,0.271 l -0.88498,1.53284 a 1.311567,1.311567 0 0 0 1.13693,1.96687 h 11.17665 a 1.311567,1.311567 0 0 0 0.92732,-0.38321 l 4.46304,-4.46304 3.42349,0.91674 a 1.311567,1.311567 0 0 0 1.26609,-0.33875 l 6.45531,-6.45531 a 1.311567,1.311567 0 0 0 0.33875,-1.26607 l -1.21103,-4.52233 a 1.311567,1.311567 0 0 0 -2.19553,-0.58858 l -0.4806,0.48061 -0.56317,-2.10026 a 1.311567,1.311567 0 0 0 -0.92733,-0.9252 l -2.10237,-0.56319 0.48272,-0.48271 a 1.311567,1.311567 0 0 0 -0.58646,-2.19341 l -4.52444,-1.21315 a 1.311567,1.311567 0 0 0 -0.29641,-0.0444 z"
         style="color:#000000;font-style:normal;font-variant:normal;font-weight:normal;font-stretch:normal;font-size:medium;line-height:normal;font-family:sans-serif;font-variant-ligatures:normal;font-variant-position:normal;font-variant-caps:normal;font-variant-numeric:normal;font-variant-alternates:normal;font-variant-east-asian:normal;font-feature-settings:normal;font-variation-settings:normal;text-indent:0;text-align:start;text-decoration:none;text-decoration-line:none;text-decoration-style:solid;text-decoration-color:#000000;letter-spacing:normal;word-spacing:normal;text-transform:none;writing-mode:lr-tb;direction:ltr;text-orientation:mixed;dominant-baseline:auto;baseline-shift:baseline;text-anchor:start;white-space:normal;shape-padding:0;shape-margin:0;inline-size:0;clip-rule:nonzero;display:inline;overflow:visible;visibility:visible;isolation:auto;mix-blend-mode:normal;color-interpolation:sRGB;color-interpolation-filters:linearRGB;solid-color:#000000;solid-opacity:1;vector-effect:none;fill:#ffffff;fill-opacity:1;fill-rule:nonzero;stroke:none;stroke-width:2.62287;stroke-linecap:round;stroke-linejoin:round;stroke-miterlimit:4;stroke-dasharray:none;stroke-dashoffset:0;stroke-opacity:1;paint-order:fill markers stroke;color-rendering:auto;image-rendering:auto;shape-rendering:auto;text-rendering:auto;enable-background:accumulate;stop-color:#000000" />
      <path
         id="path1432"
         style="opacity:1;fill:#666666;stroke-width:9.91321;stroke-linecap:round;stroke-linejoin:round;paint-order:fill markers stroke;stop-color:#000000"
         d="m 1176.9121,634.60742 -9.7656,9.76758 3.5723,13.3418 13.3417,3.57617 9.7676,-9.76758 -3.5761,-13.3418 z m 3.625,8.46094 a 4.8795126,4.8795126 0 0 1 0.019,0 4.8795126,4.8795126 0 0 1 3.3789,1.42969 4.8795126,4.8795126 0 0 1 0,6.90429 4.8795126,4.8795126 0 0 1 -6.9004,-0.004 4.8795126,4.8795126 0 0 1 0,-6.90039 4.8795126,4.8795126 0 0 1 3.3145,-1.42578 4.8795126,4.8795126 0 0 1 0.1855,-0.004 z"
         transform="matrix(0.26458333,0,0,0.26458333,0,-297)" />
      <path
         style="opacity:1;fill:#000000;stroke-width:2.62287;stroke-linecap:round;stroke-linejoin:round;paint-order:fill markers stroke;stop-color:#000000"
         d="m 308.19199,-132.59825 -6.45447,6.4551 1.11307,4.15436 -9.37815,9.37813 -0.88475,1.53236 h 11.17674 l 4.998,-4.99801 4.15497,1.11306 6.45447,-6.45509 -1.21171,-4.52243 -6.45444,6.45447 -4.29476,-1.15038 -1.15101,-4.29475 6.45508,-6.4551 z"
         id="path1353" />
    </g>
  </g>
</svg>
